<svg width="100" height="97" viewBox="0 0 100 97" fill="none" xmlns="http://www.w3.org/2000/svg">
<rect y="18" width="98" height="60" fill="#012626"/>
<g style="mix-blend-mode:difference">
<path d="M25.5598 71.448C21.3358 71.448 17.4531 70.4667 13.9118 68.504C10.4131 66.5413 7.61842 63.8107 5.52775 60.312C3.47975 56.7707 2.45575 52.8027 2.45575 48.408C2.45575 44.0133 3.47975 40.0667 5.52775 36.568C7.61842 33.0693 10.4131 30.3387 13.9118 28.376C17.4531 26.4133 21.3358 25.432 25.5598 25.432C29.7838 25.432 33.6451 26.4133 37.1438 28.376C40.6851 30.3387 43.4584 33.0693 45.4638 36.568C47.5118 40.0667 48.5358 44.0133 48.5358 48.408C48.5358 52.8027 47.5118 56.7707 45.4638 60.312C43.4158 63.8107 40.6424 66.5413 37.1438 68.504C33.6451 70.4667 29.7838 71.448 25.5598 71.448ZM25.5598 61.464C29.1438 61.464 32.0024 60.2693 34.1357 57.88C36.3118 55.4907 37.3998 52.3333 37.3998 48.408C37.3998 44.44 36.3118 41.2827 34.1357 38.936C32.0024 36.5467 29.1438 35.352 25.5598 35.352C21.9331 35.352 19.0318 36.5253 16.8558 38.872C14.7224 41.2187 13.6558 44.3973 13.6558 48.408C13.6558 52.376 14.7224 55.5547 16.8558 57.944C19.0318 60.2907 21.9331 61.464 25.5598 61.464Z" fill="#04BFAD"/>
</g>
<g style="mix-blend-mode:exclusion">
<path d="M95.973 25.072V70H85.029V43.056L74.981 70H66.149L56.037 42.992V70H45.093V25.072H58.021L70.629 56.176L83.109 25.072H95.973Z" fill="#04BFAD"/>
</g>
</svg>
