<svg width="174" height="97" viewBox="0 0 174 97" fill="none" xmlns="http://www.w3.org/2000/svg">
<g style="mix-blend-mode:luminosity">
<g style="mix-blend-mode:multiply">
<path d="M52.5598 71.448C48.3358 71.448 44.4531 70.4667 40.9118 68.504C37.4131 66.5413 34.6184 63.8107 32.5278 60.312C30.4797 56.7707 29.4557 52.8027 29.4557 48.408C29.4557 44.0133 30.4797 40.0667 32.5278 36.568C34.6184 33.0693 37.4131 30.3387 40.9118 28.376C44.4531 26.4133 48.3358 25.432 52.5598 25.432C56.7838 25.432 60.6451 26.4133 64.1438 28.376C67.6851 30.3387 70.4584 33.0693 72.4638 36.568C74.5118 40.0667 75.5358 44.0133 75.5358 48.408C75.5358 52.8027 74.5118 56.7707 72.4638 60.312C70.4158 63.8107 67.6424 66.5413 64.1438 68.504C60.6451 70.4667 56.7838 71.448 52.5598 71.448ZM52.5598 61.464C56.1438 61.464 59.0024 60.2693 61.1357 57.88C63.3118 55.4907 64.3998 52.3333 64.3998 48.408C64.3998 44.44 63.3118 41.2827 61.1357 38.936C59.0024 36.5467 56.1438 35.352 52.5598 35.352C48.9331 35.352 46.0318 36.5253 43.8558 38.872C41.7224 41.2187 40.6558 44.3973 40.6558 48.408C40.6558 52.376 41.7224 55.5547 43.8558 57.944C46.0318 60.2907 48.9331 61.464 52.5598 61.464Z" fill="#04BFAD"/>
</g>
<g style="mix-blend-mode:multiply">
<path d="M122.973 25.072V70H112.029V43.056L101.981 70H93.149L83.037 42.992V70H72.093V25.072H85.021L97.629 56.176L110.109 25.072H122.973Z" fill="#04BFAD"/>
</g>
<path d="M21.3258 60.6502C21.812 61.1232 22.1451 61.7282 22.2829 62.3885C22.4206 63.0488 22.3568 63.7346 22.0994 64.359C21.8421 64.9834 21.4029 65.5183 20.8375 65.8958C20.272 66.2732 19.6059 66.4763 18.9234 66.4793C17.9895 66.4872 17.0881 66.1407 16.4052 65.5112L1.0431 50.1161C0.874515 50.1161 0.821838 49.9496 0.769156 49.7935C0.717256 49.7495 0.660736 49.7111 0.600569 49.679C0.524967 49.546 0.471604 49.4019 0.442529 49.2522C0.399415 49.2309 0.361812 49.2001 0.332592 49.1622C0.303372 49.1243 0.283306 49.0803 0.273942 49.0336C0.22126 48.9295 0.221253 48.7629 0.168571 48.7109C0.115889 48.6589 0.0632161 48.4923 0.0632161 48.4403V48.0655C0.0632161 47.951 0 47.899 0 47.7429C0 47.5867 0.0632161 47.5243 0.0632161 47.4722V47.0871C0.0632161 46.983 0.168571 46.9309 0.168571 46.8789C0.168571 46.8269 0.22126 46.6083 0.273942 46.4417C0.326624 46.2752 0.337158 46.4417 0.337158 46.3376C0.411646 46.1679 0.499729 46.0043 0.600569 45.8484C0.600495 45.8338 0.603535 45.8194 0.609476 45.806C0.615417 45.7926 0.624126 45.7807 0.635055 45.7709C0.645984 45.761 0.658875 45.7536 0.672901 45.749C0.686927 45.7445 0.701775 45.7428 0.716471 45.7443C0.789138 45.5898 0.901807 45.4569 1.0431 45.3592L16.4052 29.9745C17.0679 29.349 17.949 29 18.8655 29C19.782 29 20.6631 29.349 21.3258 29.9745C21.6491 30.2935 21.9056 30.6724 22.0807 31.0895C22.2557 31.5065 22.3458 31.9535 22.3458 32.405C22.3458 32.8565 22.2557 33.3035 22.0807 33.7206C21.9056 34.1377 21.6491 34.5165 21.3258 34.8356L8.36593 47.7429L21.3258 60.6502Z" fill="#039987"/>
<path d="M127.241 62.3021L140.632 30.8145C140.952 30.0839 141.552 29.5082 142.3 29.2136C143.049 28.919 143.885 28.9295 144.626 29.2427C145.343 29.5533 145.906 30.1318 146.192 30.8516C146.479 31.5714 146.465 32.374 146.154 33.0837L132.762 64.6233C132.522 65.1561 132.13 65.6083 131.634 65.9244C131.138 66.2406 130.56 66.407 129.97 66.4033C129.607 66.4066 129.247 66.332 128.916 66.1847C128.542 66.0463 128.2 65.8343 127.911 65.5616C127.623 65.2888 127.393 64.961 127.236 64.598C127.08 64.2349 126.999 63.8442 127 63.4496C127.001 63.0549 127.083 62.6645 127.241 62.3021Z" fill="#039987"/>
<path d="M172.744 50.6269C172.744 50.6269 172.744 50.6894 172.691 50.6894C172.572 50.822 172.446 50.9471 172.312 51.0641L156.949 66.4592C156.285 67.0844 155.401 67.4314 154.484 67.4272C153.569 67.433 152.688 67.0857 152.029 66.4592C151.703 66.1416 151.444 65.7631 151.268 65.3459C151.091 64.9287 151 64.4809 151 64.0286C151 63.5764 151.091 63.1286 151.268 62.7114C151.444 62.2941 151.703 61.9157 152.029 61.5981L164.978 48.6908L152.029 35.8356C151.703 35.5179 151.444 35.1395 151.268 34.7223C151.091 34.305 151 33.8573 151 33.405C151 32.9528 151.091 32.505 151.268 32.0878C151.444 31.6705 151.703 31.2921 152.029 30.9745C152.691 30.349 153.573 30 154.489 30C155.406 30 156.287 30.349 156.949 30.9745L172.312 46.3592C172.449 46.4769 172.575 46.6057 172.691 46.7443C172.744 46.7443 172.744 46.8484 172.744 46.8484C172.844 47.0064 172.935 47.1697 173.017 47.3376C173.017 47.3376 173.07 47.3376 173.07 47.4417C173.106 47.6111 173.162 47.7754 173.239 47.9309C173.239 47.983 173.239 47.983 173.239 48.0871V48.4722C173.239 48.4722 173.291 48.6804 173.291 48.7429C173.291 48.8053 173.239 48.951 173.239 49.0135V49.3674C173.239 49.3674 173.239 49.3674 173.239 49.4715C173.172 49.6307 173.115 49.7941 173.07 49.9607C173.07 49.9607 173.017 49.9607 173.017 50.1273C173.017 50.2938 172.87 50.4083 172.744 50.6269Z" fill="#039987"/>
</g>
</svg>
