<svg width="429" height="387" viewBox="0 0 429 387" fill="none" xmlns="http://www.w3.org/2000/svg">
<path d="M418.24 220.2H269.55V1.94H418.24V220.2ZM273.55 216.2H414.24V5.94H273.55V216.2Z" fill="#EBEBEB"/>
<path d="M345.84 6.99001H341.84V218.2H345.84V6.99001Z" fill="#EBEBEB"/>
<path d="M421.87 10.03H265.92V15.6H421.87V10.03Z" fill="#EBEBEB"/>
<path d="M421.87 16.29H265.92V21.86H421.87V16.29Z" fill="#EBEBEB"/>
<path d="M421.87 22.56H265.92V28.13H421.87V22.56Z" fill="#EBEBEB"/>
<path d="M421.87 28.83H265.92V34.4H421.87V28.83Z" fill="#EBEBEB"/>
<path d="M421.87 35.09H265.92V40.66H421.87V35.09Z" fill="#EBEBEB"/>
<path d="M421.87 41.36H265.92V46.93H421.87V41.36Z" fill="#EBEBEB"/>
<path d="M421.87 47.63H265.92V53.2H421.87V47.63Z" fill="#EBEBEB"/>
<path d="M421.87 53.89H265.92V59.46H421.87V53.89Z" fill="#EBEBEB"/>
<path d="M421.87 60.16H265.92V65.73H421.87V60.16Z" fill="#EBEBEB"/>
<path d="M409.99 8.90001H408.99V137.29H409.99V8.90001Z" fill="#263238"/>
<path d="M411.26 141.94H407.71L408.61 136.84H410.38L411.26 141.94Z" fill="#263238"/>
<path d="M413.59 8.90001H412.59V184.63H413.59V8.90001Z" fill="#263238"/>
<path d="M414.87 188.38H411.32L412.21 183.28H413.98L414.87 188.38Z" fill="#263238"/>
<path d="M428.07 1.16H259.71V12.81H428.07V1.16Z" fill="#DBDBDB"/>
<path d="M26 115.55C26 114.71 26.11 112.48 26.11 111.55C26.11 107.48 24.66 105.65 20.87 105.55C20.505 105.572 20.1392 105.52 19.7953 105.395C19.4513 105.271 19.1365 105.078 18.8701 104.827C18.6037 104.576 18.3914 104.274 18.2463 103.938C18.1012 103.603 18.0264 103.241 18.0264 102.875C18.0264 102.509 18.1012 102.147 18.2463 101.812C18.3914 101.476 18.6037 101.174 18.8701 100.923C19.1365 100.672 19.4513 100.479 19.7953 100.355C20.1392 100.23 20.505 100.178 20.87 100.2C24.66 100.04 26.11 98.25 26.11 94.13C26.11 93.13 26 90.95 26 90.13C26 84.73 28.29 81.27 36.93 79.38C37.5228 79.2272 38.1515 79.3057 38.6885 79.5995C39.2255 79.8933 39.6306 80.3805 39.8215 80.9621C40.0124 81.5437 39.9748 82.1762 39.7164 82.7311C39.4579 83.286 38.998 83.7218 38.43 83.95C33.02 85.62 32.24 87.35 32.24 91.14C32.24 92.25 32.36 94.09 32.36 95.26C32.36 99.61 30.24 101.73 26.56 102.9C30.29 104.12 32.36 106.19 32.36 110.53C32.36 111.71 32.24 113.53 32.24 114.66C32.24 118.45 33.02 120.18 38.43 121.85C38.998 122.078 39.4579 122.514 39.7164 123.069C39.9748 123.624 40.0124 124.256 39.8215 124.838C39.6306 125.42 39.2255 125.907 38.6885 126.201C38.1515 126.494 37.5228 126.573 36.93 126.42C28.28 124.47 26 121 26 115.55Z" fill="#EBEBEB"/>
<path d="M58.6501 90.07C58.6501 90.91 58.5401 93.14 58.5401 94.07C58.5401 98.19 60.0501 99.98 63.8401 100.14C64.2051 100.118 64.5708 100.17 64.9148 100.295C65.2587 100.419 65.5736 100.612 65.84 100.863C66.1064 101.114 66.3186 101.416 66.4637 101.752C66.6088 102.087 66.6837 102.449 66.6837 102.815C66.6837 103.181 66.6088 103.543 66.4637 103.878C66.3186 104.214 66.1064 104.516 65.84 104.767C65.5736 105.018 65.2587 105.211 64.9148 105.335C64.5708 105.46 64.2051 105.512 63.8401 105.49C60.0501 105.61 58.5401 107.49 58.5401 111.49C58.5401 112.44 58.6501 114.67 58.6501 115.49C58.6501 120.95 56.3701 124.41 47.7301 126.3C47.134 126.458 46.5 126.381 45.9594 126.084C45.4188 125.787 45.0132 125.294 44.8267 124.706C44.6402 124.118 44.6872 123.481 44.9577 122.927C45.2283 122.373 45.7018 121.944 46.2801 121.73C51.6301 120.06 52.4101 118.33 52.4101 114.54C52.4101 113.42 52.3001 111.59 52.3001 110.41C52.3001 106.07 54.4201 103.95 58.1001 102.78C54.3601 101.55 52.3001 99.49 52.3001 95.14C52.3001 93.97 52.4101 92.14 52.4101 91.02C52.4101 87.23 51.6301 85.5 46.2801 83.83C45.7018 83.6156 45.2283 83.1869 44.9577 82.6328C44.6872 82.0787 44.6402 81.4416 44.8267 80.8539C45.0132 80.2661 45.4188 79.7726 45.9594 79.4759C46.5 79.1791 47.134 79.1018 47.7301 79.26C56.3701 81.21 58.6501 84.67 58.6501 90.07Z" fill="#EBEBEB"/>
<path d="M173.59 37.75C174.051 38.2044 174.368 38.7857 174.498 39.42C174.629 40.0544 174.568 40.7132 174.324 41.3131C174.08 41.913 173.663 42.4268 173.127 42.7894C172.59 43.1521 171.958 43.3472 171.31 43.35C170.424 43.3576 169.568 43.0247 168.92 42.42L154.34 27.63C154.18 27.63 154.13 27.47 154.08 27.32C154.031 27.2777 153.977 27.2409 153.92 27.21C153.848 27.0823 153.798 26.9439 153.77 26.8C153.729 26.7795 153.693 26.75 153.666 26.7136C153.638 26.6772 153.619 26.6349 153.61 26.59C153.56 26.49 153.56 26.33 153.51 26.28C153.46 26.23 153.41 26.07 153.41 26.02V25.66C153.41 25.55 153.35 25.5 153.35 25.35C153.35 25.2 153.41 25.14 153.41 25.09V24.72C153.41 24.62 153.51 24.57 153.51 24.52C153.51 24.47 153.56 24.26 153.61 24.1C153.66 23.94 153.67 24.1 153.67 24C153.741 23.8369 153.824 23.6798 153.92 23.53C153.92 23.516 153.923 23.5021 153.928 23.4893C153.934 23.4764 153.942 23.4649 153.953 23.4555C153.963 23.4461 153.975 23.4389 153.989 23.4345C154.002 23.4302 154.016 23.4286 154.03 23.43C154.099 23.2815 154.206 23.1539 154.34 23.06L168.92 8.28001C169.549 7.67912 170.385 7.34381 171.255 7.34381C172.125 7.34381 172.961 7.67912 173.59 8.28001C173.897 8.5865 174.14 8.95048 174.306 9.35114C174.473 9.7518 174.558 10.1813 174.558 10.615C174.558 11.0487 174.473 11.4782 174.306 11.8789C174.14 12.2795 173.897 12.6435 173.59 12.95L161.29 25.35L173.59 37.75Z" fill="#EBEBEB"/>
<path d="M186.82 39.41L199.53 9.16001C199.833 8.45811 200.403 7.90509 201.113 7.62206C201.823 7.33904 202.617 7.34909 203.32 7.65001C204 7.94842 204.535 8.50417 204.807 9.19569C205.078 9.88721 205.065 10.6582 204.77 11.34L192.06 41.64C191.832 42.1519 191.461 42.5863 190.99 42.89C190.519 43.1937 189.97 43.3536 189.41 43.35C189.065 43.3532 188.724 43.2816 188.41 43.14C188.055 43.0071 187.731 42.8034 187.456 42.5414C187.182 42.2794 186.964 41.9644 186.816 41.6157C186.667 41.2669 186.591 40.8916 186.592 40.5124C186.592 40.1333 186.67 39.7582 186.82 39.41Z" fill="#EBEBEB"/>
<path d="M229.88 27.21C229.88 27.21 229.88 27.27 229.83 27.27C229.718 27.3974 229.597 27.5176 229.47 27.63L214.89 42.42C214.259 43.0207 213.421 43.354 212.55 43.35C211.682 43.3556 210.846 43.0219 210.22 42.42C209.911 42.1149 209.665 41.7513 209.497 41.3505C209.33 40.9496 209.244 40.5195 209.244 40.085C209.244 39.6505 209.33 39.2204 209.497 38.8195C209.665 38.4187 209.911 38.0551 210.22 37.75L222.51 25.35L210.22 13C209.911 12.6949 209.665 12.3313 209.497 11.9305C209.33 11.5296 209.244 11.0995 209.244 10.665C209.244 10.2305 209.33 9.80036 209.497 9.39952C209.665 8.99867 209.911 8.63513 210.22 8.33C210.849 7.72912 211.685 7.3938 212.555 7.3938C213.425 7.3938 214.261 7.72912 214.89 8.33L229.47 23.11C229.6 23.2231 229.72 23.3469 229.83 23.48C229.88 23.48 229.88 23.58 229.88 23.58C229.975 23.7318 230.062 23.8887 230.14 24.05C230.14 24.05 230.19 24.05 230.19 24.15C230.224 24.3127 230.277 24.4706 230.35 24.62C230.35 24.67 230.35 24.67 230.35 24.77V25.14C230.35 25.14 230.4 25.34 230.4 25.4C230.4 25.46 230.35 25.6 230.35 25.66V26C230.35 26 230.35 26 230.35 26.1C230.286 26.2529 230.233 26.4099 230.19 26.57C230.19 26.57 230.14 26.57 230.14 26.73C230.14 26.89 230 27 229.88 27.21Z" fill="#EBEBEB"/>
<path d="M210 386.73C321.307 386.73 411.54 379.54 411.54 370.67C411.54 361.8 321.307 354.61 210 354.61C98.6925 354.61 8.45996 361.8 8.45996 370.67C8.45996 379.54 98.6925 386.73 210 386.73Z" fill="#EBEBEB"/>
<path d="M400.04 351.23H278.92L303.07 210.75H393.64L400.04 351.23Z" fill="#DBDBDB"/>
<path d="M400.04 351.23H389.42L383.46 210.75H393.64L400.04 351.23Z" fill="#A6A6A6"/>
<path d="M0.73999 351.23L53.06 350.99L105.37 350.9L210 350.73L314.63 350.9L366.94 350.99L419.26 351.23L366.94 351.48L314.63 351.56L210 351.73L105.37 351.56L53.06 351.48L0.73999 351.23Z" fill="#263238"/>
<path d="M114.44 1.16H15.0599V64.56H114.44V1.16Z" fill="white"/>
<path d="M115.06 65.18H14.4299V0.529999H115.06V65.18ZM15.6799 63.93H113.81V1.79H15.6799V63.93Z" fill="#EBEBEB"/>
<path d="M114.44 1.16H15.0599V13.15H114.44V1.16Z" fill="#038C7F"/>
<path d="M115.06 13.78H14.4299V0.529999H115.06V13.78ZM15.6799 12.52H113.81V1.79H15.6799V12.52Z" fill="#EBEBEB"/>
<path d="M26.3099 7.24001C26.3099 7.83335 26.134 8.41336 25.8043 8.90671C25.4747 9.40006 25.0062 9.78458 24.458 10.0116C23.9098 10.2387 23.3066 10.2981 22.7247 10.1824C22.1427 10.0666 21.6082 9.78088 21.1886 9.36132C20.7691 8.94177 20.4833 8.40722 20.3676 7.82528C20.2518 7.24333 20.3112 6.64013 20.5383 6.09195C20.7654 5.54377 21.1499 5.07524 21.6432 4.74559C22.1366 4.41595 22.7166 4.24001 23.3099 4.24001C24.1056 4.24001 24.8686 4.55607 25.4313 5.11868C25.9939 5.68129 26.3099 6.44436 26.3099 7.24001Z" fill="#A6A6A6"/>
<path d="M38.6299 7.24001C38.6299 7.83335 38.4539 8.41336 38.1243 8.90671C37.7947 9.40006 37.3261 9.78458 36.7779 10.0116C36.2298 10.2387 35.6266 10.2981 35.0446 10.1824C34.4627 10.0666 33.9281 9.78088 33.5086 9.36132C33.089 8.94177 32.8033 8.40722 32.6875 7.82528C32.5718 7.24333 32.6312 6.64013 32.8582 6.09195C33.0853 5.54377 33.4698 5.07524 33.9632 4.74559C34.4565 4.41595 35.0365 4.24001 35.6299 4.24001C36.4255 4.24001 37.1886 4.55607 37.7512 5.11868C38.3138 5.68129 38.6299 6.44436 38.6299 7.24001Z" fill="#EBEBEB"/>
<path d="M50.9999 7.24001C50.9999 7.83335 50.8239 8.41336 50.4943 8.90671C50.1646 9.40006 49.6961 9.78458 49.1479 10.0116C48.5997 10.2387 47.9965 10.2981 47.4146 10.1824C46.8327 10.0666 46.2981 9.78088 45.8786 9.36132C45.459 8.94177 45.1733 8.40722 45.0575 7.82528C44.9418 7.24333 45.0012 6.64013 45.2282 6.09195C45.4553 5.54377 45.8398 5.07524 46.3332 4.74559C46.8265 4.41595 47.4065 4.24001 47.9999 4.24001C48.7955 4.24001 49.5586 4.55607 50.1212 5.11868C50.6838 5.68129 50.9999 6.44436 50.9999 7.24001Z" fill="white"/>
<path d="M32.21 36.85C32.2779 33.6454 33.5982 30.5949 35.8879 28.3519C38.1776 26.109 41.2547 24.8519 44.46 24.85C47.2526 24.8332 49.9704 25.752 52.18 27.46C52.504 27.7924 52.6966 28.2309 52.7222 28.6944C52.7478 29.158 52.6045 29.615 52.319 29.9811C52.0335 30.3471 51.6251 30.5973 51.1693 30.6853C50.7135 30.7734 50.2413 30.6933 49.84 30.46C48.3196 29.2316 46.4141 28.5799 44.46 28.62C42.2297 28.639 40.0881 29.4957 38.46 31.02C37.6869 31.7824 37.0717 32.6897 36.6496 33.6901C36.2274 34.6905 36.0067 35.7642 36 36.85C35.9979 37.9323 36.2127 39.0041 36.6318 40.002C37.0509 40.9999 37.6657 41.9037 38.44 42.66C40.0644 44.1913 42.2076 45.0522 44.44 45.07C46.3925 45.0999 48.2946 44.4493 49.82 43.23C50.231 42.9477 50.7327 42.8292 51.2267 42.8976C51.7206 42.9661 52.1711 43.2166 52.49 43.6C52.7768 44.0064 52.902 44.5051 52.841 44.9988C52.78 45.4925 52.5372 45.9457 52.16 46.27C49.9504 47.9779 47.2326 48.8968 44.44 48.88C41.2292 48.8856 38.1454 47.6263 35.8563 45.3747C33.5673 43.1231 32.2573 40.0605 32.21 36.85Z" fill="#EBEBEB"/>
<path d="M58.2499 43.07C58.5426 42.7161 58.9634 42.4922 59.4205 42.4472C59.8775 42.4023 60.3339 42.5399 60.6899 42.83C62.4823 44.3547 64.7211 45.2565 67.0699 45.4C68.5534 45.4288 70.0096 44.9993 71.2399 44.17C71.6583 43.9162 72.0082 43.5639 72.2592 43.1438C72.5102 42.7238 72.6546 42.2487 72.6799 41.76C72.6864 41.3817 72.5821 41.0098 72.3799 40.69C72.1228 40.2883 71.7816 39.9472 71.3799 39.69C69.9641 38.8945 68.4157 38.3625 66.8099 38.12H66.7399C65.2577 37.869 63.813 37.4322 62.4399 36.82C61.1738 36.272 60.0936 35.3689 59.3299 34.22C58.822 33.3967 58.5552 32.4474 58.5599 31.48C58.5949 30.515 58.8545 29.5715 59.3179 28.7243C59.7814 27.8772 60.4361 27.1498 61.2299 26.6C62.9227 25.425 64.9394 24.8064 66.9999 24.83C69.6428 24.9616 72.1826 25.8966 74.2799 27.51C74.6541 27.7639 74.9132 28.155 75.0011 28.5986C75.0891 29.0421 74.9988 29.5025 74.7499 29.88C74.6292 30.0708 74.4715 30.2355 74.2861 30.3644C74.1007 30.4933 73.8914 30.5837 73.6705 30.6303C73.4495 30.6769 73.2215 30.6787 72.9999 30.6358C72.7782 30.5928 72.5674 30.5058 72.3799 30.38C70.6699 29.24 69.0399 28.24 66.9999 28.24C65.6663 28.2203 64.3595 28.6151 63.2599 29.37C62.8968 29.5957 62.593 29.905 62.3738 30.2721C62.1546 30.6391 62.0264 31.0533 61.9999 31.48C61.9808 31.8075 62.0647 32.1327 62.2399 32.41C62.4754 32.7601 62.7821 33.0565 63.1399 33.28C64.4206 34.0377 65.8372 34.5371 67.3099 34.75H67.3799C68.9678 35.0273 70.516 35.4974 71.9899 36.15C73.341 36.7422 74.4959 37.7064 75.3199 38.93C75.8507 39.7784 76.1315 40.7593 76.1299 41.76C76.0973 42.7904 75.8189 43.7981 75.3179 44.6992C74.817 45.6002 74.1079 46.3685 73.2499 46.94C71.4463 48.2106 69.2859 48.8758 67.0799 48.84C63.9405 48.6957 60.9358 47.522 58.5299 45.5C58.1773 45.2103 57.951 44.7949 57.8988 44.3416C57.8465 43.8882 57.9724 43.4323 58.2499 43.07Z" fill="#EBEBEB"/>
<path d="M80.19 43.07C80.4827 42.7161 80.9034 42.4922 81.3605 42.4472C81.8176 42.4023 82.2739 42.5399 82.63 42.83C84.4174 44.3564 86.6537 45.2587 89 45.4C90.4866 45.4289 91.946 44.9995 93.18 44.17C93.5965 43.915 93.9445 43.5622 94.1937 43.1422C94.4429 42.7222 94.5858 42.2478 94.61 41.76C94.6165 41.3817 94.5122 41.0098 94.31 40.69C94.0541 40.2873 93.7127 39.9459 93.31 39.69C91.8935 38.8961 90.3453 38.3642 88.74 38.12H88.67C87.1849 37.8675 85.737 37.4308 84.36 36.82C83.0967 36.2718 82.0197 35.3686 81.26 34.22C80.752 33.3967 80.4852 32.4474 80.49 31.48C80.5226 30.5145 80.7812 29.5701 81.2449 28.7226C81.7086 27.8751 82.3645 27.1481 83.16 26.6C84.8556 25.423 86.8761 24.8043 88.94 24.83C91.5821 24.9654 94.1208 25.8999 96.22 27.51C96.5925 27.7655 96.8496 28.1573 96.9356 28.6007C97.0217 29.0442 96.9299 29.5037 96.68 29.88C96.5593 30.0708 96.4016 30.2355 96.2162 30.3644C96.0308 30.4932 95.8214 30.5837 95.6005 30.6303C95.3796 30.6769 95.1516 30.6787 94.9299 30.6357C94.7083 30.5928 94.4975 30.5058 94.31 30.38C92.61 29.24 90.97 28.24 88.94 28.24C87.6061 28.2183 86.2987 28.6133 85.2 29.37C84.835 29.5945 84.5292 29.9033 84.3083 30.2705C84.0873 30.6376 83.9576 31.0524 83.93 31.48C83.913 31.8059 83.993 32.1296 84.16 32.41C84.401 32.7554 84.7066 33.0508 85.06 33.28C86.3443 34.0375 87.7642 34.5368 89.24 34.75H89.3C90.8886 35.0243 92.4371 35.4946 93.91 36.15C95.2639 36.742 96.4221 37.706 97.25 38.93C97.7733 39.7811 98.0503 40.7608 98.05 41.76C98.0193 42.7897 97.7428 43.7971 97.2435 44.6982C96.7443 45.5993 96.0367 46.368 95.18 46.94C93.372 48.2094 91.2088 48.8745 89 48.84C85.8615 48.6913 82.8582 47.5181 80.45 45.5C80.1026 45.206 79.8817 44.7896 79.8333 44.3371C79.7849 43.8846 79.9126 43.4308 80.19 43.07Z" fill="#EBEBEB"/>
<path d="M278.58 182.54H179.2V245.94H278.58V182.54Z" fill="white"/>
<path d="M279.21 246.57H178.57V181.91H279.21V246.57ZM179.83 245.31H278V183.17H179.83V245.31Z" fill="#EBEBEB"/>
<path d="M278.58 182.54H179.2V194.53H278.58V182.54Z" fill="#038C7F"/>
<path d="M279.21 195.16H178.57V181.91H279.21V195.16ZM179.83 193.9H278V183.17H179.83V193.9Z" fill="#EBEBEB"/>
<path d="M190.46 188.62C190.46 189.213 190.284 189.793 189.954 190.287C189.625 190.78 189.156 191.165 188.608 191.392C188.06 191.619 187.457 191.678 186.875 191.562C186.293 191.447 185.758 191.161 185.339 190.741C184.919 190.322 184.633 189.787 184.518 189.205C184.402 188.623 184.461 188.02 184.688 187.472C184.915 186.924 185.3 186.455 185.793 186.126C186.287 185.796 186.867 185.62 187.46 185.62C188.256 185.62 189.019 185.936 189.581 186.499C190.144 187.061 190.46 187.824 190.46 188.62Z" fill="#A6A6A6"/>
<path d="M202.78 188.62C202.78 189.213 202.604 189.793 202.274 190.287C201.945 190.78 201.476 191.165 200.928 191.392C200.38 191.619 199.777 191.678 199.195 191.562C198.613 191.447 198.078 191.161 197.659 190.741C197.239 190.322 196.953 189.787 196.838 189.205C196.722 188.623 196.781 188.02 197.008 187.472C197.235 186.924 197.62 186.455 198.113 186.126C198.607 185.796 199.187 185.62 199.78 185.62C200.576 185.62 201.339 185.936 201.901 186.499C202.464 187.061 202.78 187.824 202.78 188.62Z" fill="#EBEBEB"/>
<path d="M215.1 188.62C215.1 189.213 214.924 189.793 214.594 190.287C214.265 190.78 213.796 191.165 213.248 191.392C212.7 191.619 212.097 191.678 211.515 191.562C210.933 191.447 210.398 191.161 209.979 190.741C209.559 190.322 209.273 189.787 209.157 189.205C209.042 188.623 209.101 188.02 209.328 187.472C209.555 186.924 209.94 186.455 210.433 186.126C210.926 185.796 211.507 185.62 212.1 185.62C212.896 185.62 213.659 185.936 214.221 186.499C214.784 187.061 215.1 187.824 215.1 188.62Z" fill="white"/>
<path d="M232.23 60.73H66.49V196.84H232.23V60.73Z" fill="white"/>
<path d="M232.86 197.48H65.86V60.11H232.86V197.48ZM67.12 196.22H231.6V61.36H67.12V196.22Z" fill="#EBEBEB"/>
<path d="M232.23 60.73H66.49V72.72H232.23V60.73Z" fill="#038C7F"/>
<path d="M232.86 73.35H65.86V60.11H232.86V73.35ZM67.12 72.09H231.6V61.36H67.12V72.09Z" fill="#EBEBEB"/>
<path d="M77.74 66.82C77.74 67.4134 77.564 67.9934 77.2344 68.4867C76.9048 68.9801 76.4362 69.3646 75.888 69.5916C75.3399 69.8187 74.7367 69.8781 74.1547 69.7624C73.5728 69.6466 73.0382 69.3609 72.6187 68.9413C72.1991 68.5218 71.9134 67.9872 71.7976 67.4053C71.6819 66.8233 71.7413 66.2201 71.9684 65.672C72.1954 65.1238 72.5799 64.6552 73.0733 64.3256C73.5666 63.996 74.1466 63.82 74.74 63.82C75.5356 63.82 76.2987 64.1361 76.8613 64.6987C77.4239 65.2613 77.74 66.0244 77.74 66.82Z" fill="#A6A6A6"/>
<path d="M90.0599 66.82C90.0599 67.4134 89.884 67.9934 89.5543 68.4867C89.2247 68.9801 88.7562 69.3646 88.208 69.5916C87.6598 69.8187 87.0566 69.8781 86.4747 69.7624C85.8927 69.6466 85.3582 69.3609 84.9386 68.9413C84.5191 68.5218 84.2333 67.9872 84.1176 67.4053C84.0018 66.8233 84.0612 66.2201 84.2883 65.672C84.5154 65.1238 84.8999 64.6552 85.3932 64.3256C85.8866 63.996 86.4666 63.82 87.0599 63.82C87.8556 63.82 88.6186 64.1361 89.1813 64.6987C89.7439 65.2613 90.0599 66.0244 90.0599 66.82Z" fill="#EBEBEB"/>
<path d="M102.39 66.82C102.39 67.4134 102.214 67.9934 101.884 68.4867C101.555 68.9801 101.086 69.3646 100.538 69.5916C99.9898 69.8187 99.3866 69.8781 98.8046 69.7624C98.2227 69.6466 97.6881 69.3609 97.2686 68.9413C96.849 68.5218 96.5633 67.9872 96.4475 67.4053C96.3318 66.8233 96.3912 66.2201 96.6183 65.672C96.8453 65.1238 97.2298 64.6552 97.7232 64.3256C98.2165 63.996 98.7965 63.82 99.3899 63.82C100.186 63.82 100.949 64.1361 101.511 64.6987C102.074 65.2613 102.39 66.0244 102.39 66.82Z" fill="white"/>
<path d="M85.76 96.57H79.35V98.91H85.76V96.57Z" fill="#EBEBEB"/>
<path d="M163.96 96.57H90.4299V98.91H163.96V96.57Z" fill="#EBEBEB"/>
<path d="M180.07 96.57H167.9V98.91H180.07V96.57Z" fill="#038C7F"/>
<path d="M207.92 127.9H195.74V130.24H207.92V127.9Z" fill="#EBEBEB"/>
<path d="M203.77 96.57H182.72V98.91H203.77V96.57Z" fill="#A6A6A6"/>
<path d="M92.1699 102.84H85.7599V105.18H92.1699V102.84Z" fill="#EBEBEB"/>
<path d="M144.93 102.84H96.6799V105.18H144.93V102.84Z" fill="#A6A6A6"/>
<path d="M192.85 127.9H164.6V130.24H192.85V127.9Z" fill="#A6A6A6"/>
<path d="M136.52 121.64H90.4299V123.98H136.52V121.64Z" fill="#A6A6A6"/>
<path d="M129.01 109.1H96.6799V111.44H129.01V109.1Z" fill="#038C7F"/>
<path d="M188.37 115.37H176.04V117.71H188.37V115.37Z" fill="#A6A6A6"/>
<path d="M184.23 109.1H132.6V111.44H184.23V109.1Z" fill="#A6A6A6"/>
<path d="M152.06 127.9H90.4299V130.24H152.06V127.9Z" fill="#038C7F"/>
<path d="M214.76 102.84H181.36V105.18H214.76V102.84Z" fill="#038C7F"/>
<path d="M178.71 102.84H147.96V105.18H178.71V102.84Z" fill="#EBEBEB"/>
<path d="M207.41 109.1H186.66V111.44H207.41V109.1Z" fill="#EBEBEB"/>
<path d="M92.1699 109.1H85.7599V111.44H92.1699V109.1Z" fill="#EBEBEB"/>
<path d="M85.76 115.37H79.35V117.71H85.76V115.37Z" fill="#A6A6A6"/>
<path d="M128.31 115.37H90.4299V117.71H128.31V115.37Z" fill="#EBEBEB"/>
<path d="M134.56 134.17H96.6799V136.51H134.56V134.17Z" fill="#EBEBEB"/>
<path d="M196.12 140.44H167.32V142.78H196.12V140.44Z" fill="#038C7F"/>
<path d="M175.63 134.17H137.64V136.51H175.63V134.17Z" fill="#038C7F"/>
<path d="M164.01 140.44H130.94V142.78H164.01V140.44Z" fill="#EBEBEB"/>
<path d="M107.65 140.44H96.6799V142.78H107.65V140.44Z" fill="#A6A6A6"/>
<path d="M180.07 121.64H139.13V123.98H180.07V121.64Z" fill="#EBEBEB"/>
<path d="M208.77 121.64H182.72V123.98H208.77V121.64Z" fill="#038C7F"/>
<path d="M173.05 115.37H132.16V117.71H173.05V115.37Z" fill="#038C7F"/>
<path d="M85.76 121.64H79.35V123.98H85.76V121.64Z" fill="#EBEBEB"/>
<path d="M85.76 127.9H79.35V130.24H85.76V127.9Z" fill="#EBEBEB"/>
<path d="M92.1699 134.17H85.7599V136.51H92.1699V134.17Z" fill="#A6A6A6"/>
<path d="M92.1699 140.44H85.7599V142.78H92.1699V140.44Z" fill="#EBEBEB"/>
<path d="M85.76 145.68H79.35V148.02H85.76V145.68Z" fill="#EBEBEB"/>
<path d="M163.96 145.68H90.4299V148.02H163.96V145.68Z" fill="#EBEBEB"/>
<path d="M92.1699 151.95H85.7599V154.29H92.1699V151.95Z" fill="#EBEBEB"/>
<path d="M144.93 151.95H96.6799V154.29H144.93V151.95Z" fill="#A6A6A6"/>
<path d="M136.52 170.75H90.4299V173.09H136.52V170.75Z" fill="#A6A6A6"/>
<path d="M129.01 158.22H96.6799V160.56H129.01V158.22Z" fill="#038C7F"/>
<path d="M184.23 158.22H132.6V160.56H184.23V158.22Z" fill="#A6A6A6"/>
<path d="M152.06 177.01H90.4299V179.35H152.06V177.01Z" fill="#038C7F"/>
<path d="M214.76 151.95H181.36V154.29H214.76V151.95Z" fill="#038C7F"/>
<path d="M178.71 151.95H147.96V154.29H178.71V151.95Z" fill="#EBEBEB"/>
<path d="M207.41 158.22H186.66V160.56H207.41V158.22Z" fill="#EBEBEB"/>
<path d="M92.1699 158.22H85.7599V160.56H92.1699V158.22Z" fill="#EBEBEB"/>
<path d="M85.76 164.48H79.35V166.82H85.76V164.48Z" fill="#A6A6A6"/>
<path d="M128.31 164.48H90.4299V166.82H128.31V164.48Z" fill="#EBEBEB"/>
<path d="M180.07 170.75H139.13V173.09H180.07V170.75Z" fill="#EBEBEB"/>
<path d="M173.05 164.48H132.16V166.82H173.05V164.48Z" fill="#038C7F"/>
<path d="M85.76 170.75H79.35V173.09H85.76V170.75Z" fill="#EBEBEB"/>
<path d="M83.3099 90.41C83.4143 90.5149 83.4729 90.657 83.4729 90.805C83.4729 90.953 83.4143 91.0951 83.3099 91.2C83.2037 91.3021 83.0622 91.3591 82.9149 91.3591C82.7676 91.3591 82.6261 91.3021 82.5199 91.2L80.0499 88.69C80.0446 88.6738 80.0446 88.6562 80.0499 88.64C80.046 88.6168 80.046 88.5932 80.0499 88.57C80.0459 88.5502 80.0459 88.5298 80.0499 88.51V88.45C80.0499 88.45 80.0499 88.45 80.0499 88.39V88.33C80.0458 88.3068 80.0458 88.2831 80.0499 88.26C80.0499 88.26 80.0499 88.19 80.0499 88.18C80.0619 88.1534 80.0833 88.132 80.1099 88.12L82.5799 85.61C82.6861 85.5079 82.8276 85.4509 82.9749 85.4509C83.1222 85.4509 83.2637 85.5079 83.3699 85.61C83.4743 85.7149 83.5329 85.857 83.5329 86.005C83.5329 86.153 83.4743 86.2951 83.3699 86.4L81.2899 88.5L83.3099 90.41Z" fill="#038C7F"/>
<path d="M85.5499 90.69L87.7099 85.56C87.7342 85.5016 87.7698 85.4485 87.8146 85.4038C87.8594 85.3591 87.9126 85.3237 87.9711 85.2995C88.0296 85.2754 88.0923 85.263 88.1556 85.2631C88.2189 85.2632 88.2815 85.2757 88.3399 85.3C88.3984 85.3243 88.4515 85.3599 88.4962 85.4047C88.5409 85.4495 88.5763 85.5027 88.6004 85.5612C88.6246 85.6197 88.6369 85.6823 88.6369 85.7456C88.6368 85.8089 88.6242 85.8716 88.6 85.93L86.4399 91.07C86.4012 91.1568 86.3379 91.2304 86.258 91.2819C86.1781 91.3334 86.085 91.3605 85.9899 91.36C85.9341 91.374 85.8757 91.374 85.8199 91.36C85.7543 91.3389 85.6942 91.3036 85.6437 91.2566C85.5932 91.2097 85.5537 91.1522 85.528 91.0883C85.5022 91.0243 85.4908 90.9555 85.4946 90.8867C85.4984 90.8179 85.5173 90.7507 85.5499 90.69Z" fill="#038C7F"/>
<path d="M92.85 88.62C92.8354 88.6447 92.8147 88.6654 92.79 88.68L90.32 91.19C90.2106 91.2902 90.0683 91.3471 89.92 91.35C89.7743 91.3485 89.6348 91.2912 89.53 91.19C89.4256 91.0851 89.3669 90.943 89.3669 90.795C89.3669 90.647 89.4256 90.5049 89.53 90.4L91.61 88.29L89.53 86.19C89.4256 86.0851 89.3669 85.943 89.3669 85.795C89.3669 85.647 89.4256 85.5049 89.53 85.4C89.6362 85.2979 89.7777 85.241 89.925 85.241C90.0723 85.241 90.2138 85.2979 90.32 85.4L92.79 87.91C92.8166 87.922 92.838 87.9434 92.85 87.97C92.8702 87.9943 92.887 88.0212 92.9 88.05C92.8959 88.0765 92.8959 88.1035 92.9 88.13V88.19V88.31C92.8974 88.3366 92.8974 88.3634 92.9 88.39L92.85 88.62Z" fill="#038C7F"/>
<path d="M251.13 41.65H183.43V66.72H251.13V41.65Z" fill="#455A64"/>
<path d="M193.2 59.38V48.26C193.2 47.9948 193.305 47.7404 193.493 47.5529C193.68 47.3654 193.935 47.26 194.2 47.26C194.336 47.2518 194.473 47.2716 194.601 47.3182C194.729 47.3648 194.847 47.4371 194.946 47.5308C195.045 47.6245 195.125 47.7375 195.179 47.8629C195.232 47.9883 195.26 48.1235 195.26 48.26V52.78H200.14V48.26C200.14 47.9948 200.245 47.7404 200.433 47.5529C200.62 47.3654 200.875 47.26 201.14 47.26C201.276 47.2518 201.413 47.2716 201.541 47.3182C201.669 47.3648 201.787 47.4371 201.886 47.5308C201.985 47.6245 202.065 47.7375 202.119 47.8629C202.172 47.9883 202.2 48.1235 202.2 48.26V59.38C202.2 59.5165 202.172 59.6517 202.119 59.7771C202.065 59.9025 201.985 60.0155 201.886 60.1092C201.787 60.2029 201.669 60.2753 201.541 60.3218C201.413 60.3684 201.276 60.3882 201.14 60.38C200.875 60.38 200.62 60.2746 200.433 60.0871C200.245 59.8996 200.14 59.6452 200.14 59.38V54.86H195.26V59.38C195.26 59.5165 195.232 59.6517 195.179 59.7771C195.125 59.9025 195.045 60.0155 194.946 60.1092C194.847 60.2029 194.729 60.2753 194.601 60.3218C194.473 60.3684 194.336 60.3882 194.2 60.38C193.935 60.38 193.68 60.2746 193.493 60.0871C193.305 59.8996 193.2 59.6452 193.2 59.38Z" fill="white"/>
<path d="M214.62 49.32H211.62V59.38C211.62 59.6558 211.51 59.9204 211.315 60.1154C211.12 60.3104 210.856 60.42 210.58 60.42C210.304 60.42 210.04 60.3104 209.844 60.1154C209.649 59.9204 209.54 59.6558 209.54 59.38V49.32H206.54C206.403 49.3203 206.268 49.2925 206.143 49.2386C206.017 49.1846 205.904 49.1055 205.811 49.0062C205.717 48.9069 205.645 48.7895 205.598 48.6611C205.552 48.5328 205.532 48.3963 205.54 48.26C205.54 47.9948 205.645 47.7404 205.833 47.5529C206.02 47.3654 206.275 47.26 206.54 47.26H214.54C214.805 47.26 215.059 47.3654 215.247 47.5529C215.435 47.7404 215.54 47.9948 215.54 48.26C215.542 48.5185 215.45 48.7689 215.28 48.9641C215.111 49.1593 214.876 49.2859 214.62 49.32Z" fill="white"/>
<path d="M230.11 48.26V59.38C230.092 59.6498 229.973 59.9028 229.777 60.0883C229.58 60.2739 229.32 60.3781 229.05 60.38C228.785 60.38 228.53 60.2746 228.343 60.0871C228.155 59.8996 228.05 59.6452 228.05 59.38V51.45L225.33 55.22C225.236 55.3553 225.11 55.4653 224.964 55.5403C224.817 55.6153 224.655 55.653 224.49 55.65C224.321 55.6512 224.155 55.6129 224.004 55.5382C223.853 55.4636 223.721 55.3546 223.62 55.22L220.93 51.45V59.38C220.93 59.6572 220.82 59.923 220.624 60.1189C220.428 60.3149 220.162 60.425 219.885 60.425C219.608 60.425 219.342 60.3149 219.146 60.1189C218.95 59.923 218.84 59.6572 218.84 59.38V48.26C218.84 47.9948 218.945 47.7404 219.133 47.5529C219.32 47.3654 219.575 47.26 219.84 47.26H219.9C220.063 47.2587 220.224 47.2971 220.368 47.3721C220.513 47.447 220.637 47.5561 220.73 47.69L224.48 52.89L228.23 47.69C228.325 47.5533 228.452 47.4424 228.6 47.3673C228.749 47.2922 228.914 47.2553 229.08 47.26C229.345 47.2694 229.597 47.3769 229.788 47.5616C229.978 47.7464 230.093 47.9953 230.11 48.26Z" fill="white"/>
<path d="M234.67 59.38V48.26C234.67 47.9948 234.775 47.7404 234.963 47.5529C235.15 47.3654 235.405 47.26 235.67 47.26C235.805 47.2532 235.941 47.2741 236.068 47.3213C236.195 47.3685 236.311 47.4411 236.41 47.5346C236.508 47.6282 236.586 47.7407 236.639 47.8654C236.693 47.9901 236.72 48.1244 236.72 48.26V58.32H241.83C242.108 58.32 242.376 58.4306 242.572 58.6275C242.769 58.8245 242.88 59.0915 242.88 59.37C242.88 59.6485 242.769 59.9156 242.572 60.1125C242.376 60.3094 242.108 60.42 241.83 60.42H235.67C235.535 60.4201 235.402 60.393 235.278 60.3402C235.154 60.2875 235.042 60.2103 234.948 60.1131C234.855 60.016 234.782 59.901 234.734 59.775C234.686 59.649 234.665 59.5147 234.67 59.38Z" fill="white"/>
<path d="M234.67 135.78L238.9 146L234.67 147.75L230.42 137.46L223.43 142.88V114.09L243.59 134.45L234.67 135.78Z" fill="#263238"/>
<path d="M223.43 111C223.253 110.537 223.165 110.045 223.17 109.55C223.159 109.054 223.247 108.561 223.43 108.1C223.609 108.562 223.694 109.055 223.68 109.55C223.689 110.045 223.604 110.537 223.43 111Z" fill="#263238"/>
<path d="M220.93 112C220.482 111.796 220.075 111.511 219.73 111.16C219.369 110.819 219.084 110.407 218.89 109.95C219.341 110.153 219.748 110.442 220.09 110.8C220.45 111.137 220.736 111.546 220.93 112Z" fill="#263238"/>
<path d="M219.9 114.47C218.968 114.816 217.942 114.816 217.01 114.47C217.944 114.137 218.966 114.137 219.9 114.47Z" fill="#263238"/>
<path d="M220.93 117C220.736 117.454 220.45 117.863 220.09 118.2C219.748 118.558 219.341 118.847 218.89 119.05C219.084 118.593 219.369 118.181 219.73 117.84C220.075 117.489 220.482 117.204 220.93 117Z" fill="#263238"/>
<path d="M227 114.47C227.938 114.137 228.962 114.137 229.9 114.47C228.964 114.817 227.936 114.817 227 114.47Z" fill="#263238"/>
<path d="M225.92 112C226.121 111.55 226.406 111.143 226.76 110.8C227.103 110.44 227.514 110.151 227.97 109.95C227.546 110.839 226.819 111.548 225.92 111.95V112Z" fill="#263238"/>
<path d="M227.367 230.241C227.659 229.887 228.08 229.663 228.537 229.618C228.994 229.573 229.451 229.711 229.807 230.001C231.594 231.527 233.83 232.429 236.177 232.571C237.663 232.6 239.123 232.17 240.357 231.341C240.773 231.086 241.121 230.733 241.37 230.313C241.62 229.893 241.763 229.419 241.787 228.931C241.793 228.552 241.689 228.181 241.487 227.861C241.231 227.458 240.889 227.117 240.487 226.861C239.07 226.067 237.522 225.535 235.917 225.291H235.847C234.362 225.038 232.914 224.602 231.537 223.991C230.273 223.443 229.196 222.539 228.437 221.391C227.929 220.567 227.662 219.618 227.667 218.651C227.699 217.685 227.958 216.741 228.422 215.893C228.885 215.046 229.541 214.319 230.337 213.771C232.032 212.594 234.053 211.975 236.117 212.001C238.759 212.136 241.298 213.071 243.397 214.681C243.769 214.936 244.026 215.328 244.112 215.771C244.198 216.215 244.107 216.674 243.857 217.051C243.736 217.242 243.578 217.406 243.393 217.535C243.208 217.664 242.998 217.754 242.777 217.801C242.556 217.848 242.328 217.85 242.107 217.807C241.885 217.764 241.674 217.677 241.487 217.551C239.787 216.411 238.147 215.411 236.117 215.411C234.783 215.389 233.475 215.784 232.377 216.541C232.012 216.765 231.706 217.074 231.485 217.441C231.264 217.808 231.134 218.223 231.107 218.651C231.09 218.977 231.17 219.3 231.337 219.581C231.578 219.926 231.883 220.222 232.237 220.451C233.521 221.208 234.941 221.708 236.417 221.921H236.477C238.065 222.195 239.614 222.665 241.087 223.321C242.441 223.913 243.599 224.877 244.427 226.101C244.95 226.952 245.227 227.932 245.227 228.931C245.196 229.96 244.92 230.968 244.42 231.869C243.921 232.77 243.213 233.539 242.357 234.111C240.549 235.38 238.386 236.045 236.177 236.011C233.038 235.862 230.035 234.689 227.627 232.671C227.279 232.377 227.058 231.96 227.01 231.508C226.962 231.055 227.089 230.602 227.367 230.241Z" fill="#EBEBEB"/>
<path d="M299.37 234.42C291.66 268 276.05 310.51 264 319.09C254.28 326.01 203.25 338.19 200.41 338.5C193.36 339.21 179.41 289.45 186.75 287.43C195.96 284.88 239.68 283.52 242.17 280.97C244.66 278.42 260.66 256.75 278.68 231.78C291.1 214.53 304.15 213.59 299.37 234.42Z" fill="#BF7D72"/>
<path d="M206.05 335.77C205.21 336.19 193.3 342.18 185.93 344.32C180.44 345.91 164.49 350.07 162.14 344.2C160.53 340.2 169.61 336.64 175.98 333.98C179.34 332.59 183.48 329.07 182.49 326.92C180.76 323.14 172.12 326.92 166.44 330.23C155.44 336.62 140.81 348.11 134.1 342.53C131.57 340.43 134.51 336.59 138.82 332.83C131.82 337.21 124.37 340.83 121.46 338.58C119.8 337.31 119.72 335.58 120.65 333.58C118.49 334.28 116.58 334.14 115.25 332.74C112.98 330.36 114.08 326.85 116.57 323.25C116.143 323.203 115.734 323.055 115.376 322.818C115.018 322.582 114.721 322.264 114.51 321.89C109.69 314.55 133.78 293.48 142.12 291.51C166.63 285.68 192.7 287.81 192.7 287.81C202.33 295.5 206.07 335.75 206.05 335.77Z" fill="#BF7D72"/>
<path d="M170 313.2C164.164 314.109 158.59 316.253 153.65 319.49C147.43 323.6 143.31 328.4 138.1 333.23C138.081 333.257 138.072 333.29 138.073 333.324C138.075 333.357 138.088 333.389 138.11 333.414C138.131 333.439 138.161 333.456 138.194 333.463C138.226 333.469 138.26 333.465 138.29 333.45C140.77 331.15 151.07 322.51 153.73 320.55C158.532 316.928 164.096 314.449 170 313.3C170.09 313.29 170.07 313.19 170 313.2Z" fill="#263238"/>
<path d="M165.44 302.8C159 304.56 152.44 306.34 146.44 309.39C139.89 312.72 134.77 318.16 129.74 323.39C126.713 326.53 123.76 329.74 120.88 333.02C120.76 333.15 120.94 333.37 121.07 333.23C126.177 327.83 131.447 322.583 136.88 317.49C141.888 312.738 147.784 309.021 154.23 306.55C157.92 305.15 161.7 304.03 165.48 302.91C165.53 302.89 165.51 302.78 165.44 302.8Z" fill="#263238"/>
<path d="M158.56 293.7C152.3 294.99 146.84 296.09 141.29 299.44C133.96 303.88 126.87 311.36 124.39 314.02C121.64 316.95 119 320.02 116.39 323.02C116.28 323.14 116.5 323.33 116.61 323.2C122.561 316.494 128.938 310.177 135.7 304.29C138.882 301.442 142.484 299.101 146.38 297.35C150.328 295.797 154.403 294.589 158.56 293.74C158.56 293.74 158.58 293.7 158.56 293.7Z" fill="#263238"/>
<path d="M242.54 276.07L289.54 274.07C289.54 274.07 298.08 250.76 301.22 230.07C304.36 209.38 286.73 216.8 269.28 239.07C251.83 261.34 242.54 276.07 242.54 276.07Z" fill="#038C7F"/>
<path d="M257.93 262C258.25 261.91 258.57 261.88 258.93 261.81C259.208 261.749 259.497 261.751 259.775 261.816C260.053 261.881 260.312 262.007 260.535 262.185C260.757 262.364 260.937 262.59 261.061 262.847C261.184 263.103 261.249 263.385 261.25 263.67C261.244 263.926 261.305 264.18 261.426 264.406C261.547 264.631 261.724 264.822 261.94 264.96C262.177 265.114 262.448 265.206 262.73 265.23C263.05 265.29 263.37 265.33 263.73 265.42C263.41 265.51 263.09 265.55 262.73 265.62C262.37 265.692 261.997 265.654 261.66 265.51C261.305 265.355 261.003 265.101 260.79 264.778C260.577 264.455 260.462 264.077 260.46 263.69C260.457 263.436 260.389 263.187 260.261 262.968C260.133 262.749 259.95 262.567 259.73 262.44C259.487 262.297 259.212 262.214 258.93 262.2C258.57 262.14 258.25 262.1 257.93 262ZM291 233.44C291.285 233.461 291.562 233.546 291.81 233.69C292.028 233.818 292.21 234.001 292.338 234.22C292.466 234.439 292.535 234.687 292.54 234.94C292.542 235.327 292.657 235.705 292.87 236.028C293.083 236.351 293.385 236.605 293.74 236.76C294.078 236.901 294.451 236.936 294.81 236.86C295.13 236.8 295.45 236.76 295.81 236.67C295.49 236.58 295.17 236.54 294.81 236.48C294.528 236.458 294.256 236.365 294.02 236.21C293.806 236.07 293.63 235.879 293.51 235.653C293.389 235.428 293.327 235.176 293.33 234.92C293.317 234.531 293.19 234.155 292.967 233.837C292.743 233.519 292.431 233.274 292.07 233.13C291.726 233.01 291.356 232.986 291 233.06C290.68 233.12 290.36 233.16 290.05 233.25C290.37 233.34 290.69 233.38 291 233.44ZM292.2 251.77C291.984 251.957 291.727 252.091 291.45 252.16C291.207 252.226 290.951 252.227 290.707 252.164C290.464 252.101 290.24 251.976 290.06 251.8C289.785 251.525 289.437 251.337 289.057 251.257C288.677 251.177 288.282 251.209 287.92 251.35C287.582 251.495 287.294 251.735 287.09 252.04C286.91 252.31 286.71 252.56 286.55 252.85C286.84 252.69 287.09 252.49 287.36 252.31C287.579 252.132 287.835 252.005 288.11 251.94C288.361 251.887 288.621 251.899 288.866 251.974C289.11 252.049 289.332 252.185 289.51 252.37C289.714 252.577 289.961 252.736 290.235 252.833C290.509 252.931 290.801 252.965 291.09 252.934C291.379 252.902 291.657 252.805 291.903 252.65C292.149 252.495 292.356 252.287 292.51 252.04C292.69 251.77 292.89 251.51 293.05 251.22C292.73 251.39 292.48 251.59 292.21 251.77H292.2ZM279.42 230.39C279.201 230.576 278.946 230.712 278.67 230.79C278.424 230.852 278.167 230.85 277.922 230.785C277.678 230.72 277.453 230.595 277.27 230.42L277.02 230.2C276.83 230.39 276.65 230.58 276.47 230.78C276.566 230.838 276.653 230.909 276.73 230.99C277.014 231.257 277.369 231.435 277.753 231.502C278.137 231.57 278.532 231.524 278.89 231.37C279.218 231.214 279.496 230.968 279.69 230.66C279.87 230.39 280.07 230.14 280.23 229.85C280 230 279.7 230.21 279.43 230.39H279.42ZM274.11 248C274.091 248.284 274.009 248.561 273.87 248.81C273.74 249.027 273.557 249.208 273.339 249.336C273.12 249.463 272.873 249.534 272.62 249.54C272.231 249.541 271.851 249.654 271.526 249.868C271.201 250.081 270.945 250.384 270.79 250.74C270.655 251.076 270.62 251.444 270.69 251.8C270.76 252.12 270.79 252.44 270.88 252.8C270.97 252.48 271.01 252.16 271.08 251.8C271.107 251.521 271.196 251.251 271.34 251.01C271.48 250.797 271.672 250.623 271.897 250.504C272.123 250.385 272.375 250.325 272.63 250.33C273.02 250.319 273.399 250.193 273.718 249.969C274.038 249.745 274.286 249.433 274.43 249.07C274.546 248.725 274.57 248.357 274.5 248C274.43 247.68 274.39 247.36 274.3 247C274.21 247.36 274.18 247.68 274.11 248ZM287.57 265.91C287.555 266.195 287.473 266.473 287.33 266.72C287.202 266.939 287.019 267.12 286.8 267.248C286.581 267.376 286.333 267.446 286.08 267.45C285.694 267.452 285.317 267.565 284.994 267.776C284.671 267.987 284.416 268.287 284.26 268.64C284.117 268.978 284.079 269.35 284.15 269.71C284.22 270.03 284.26 270.35 284.35 270.71C284.44 270.39 284.48 270.07 284.54 269.71C284.566 269.429 284.658 269.158 284.81 268.92C284.949 268.706 285.14 268.53 285.366 268.411C285.592 268.292 285.845 268.233 286.1 268.24C286.488 268.227 286.865 268.1 287.183 267.877C287.501 267.653 287.746 267.341 287.89 266.98C288.01 266.636 288.034 266.266 287.96 265.91C287.9 265.59 287.86 265.27 287.77 264.91C287.68 265.27 287.64 265.59 287.57 265.91Z" fill="white"/>
<path d="M291.17 263.87C281 263.61 270.8 264.06 260.63 264.71C257.75 264.903 254.877 265.157 252.01 265.47C251.93 265.47 251.92 265.6 252.01 265.6C257.09 265.6 262.17 265.43 267.25 265.28C272.33 265.13 277.45 264.92 282.54 264.63C285.42 264.46 288.29 264.29 291.16 264.06C291.29 264.05 291.3 263.87 291.17 263.87Z" fill="#263238"/>
<path d="M255.73 351.23H375.73C377.05 348.81 357.37 243.66 316.89 214.05C307.89 207.49 291.98 211.71 287.55 218.1C265.31 250.2 255.73 351.23 255.73 351.23Z" fill="#038C7F"/>
<path d="M306.64 262C306.96 261.91 307.28 261.88 307.64 261.81C307.919 261.749 308.207 261.751 308.485 261.816C308.763 261.881 309.022 262.007 309.245 262.185C309.467 262.364 309.647 262.59 309.771 262.847C309.895 263.103 309.959 263.385 309.96 263.67C309.954 263.926 310.015 264.18 310.136 264.406C310.257 264.631 310.434 264.822 310.65 264.96C310.888 265.112 311.159 265.204 311.44 265.23C311.76 265.29 312.08 265.33 312.44 265.42C312.12 265.51 311.8 265.55 311.44 265.62C311.08 265.691 310.708 265.653 310.37 265.51C310.015 265.355 309.713 265.101 309.5 264.778C309.287 264.455 309.173 264.077 309.17 263.69C309.168 263.436 309.099 263.187 308.971 262.968C308.843 262.749 308.66 262.567 308.44 262.44C308.197 262.295 307.922 262.213 307.64 262.2C307.28 262.14 307 262.1 306.64 262ZM325.29 325.47C325.572 325.491 325.846 325.576 326.09 325.72C326.309 325.845 326.492 326.026 326.62 326.243C326.748 326.461 326.817 326.708 326.82 326.96C326.821 327.349 326.934 327.729 327.148 328.054C327.361 328.379 327.664 328.635 328.02 328.79C328.36 328.926 328.731 328.96 329.09 328.89C329.41 328.83 329.73 328.79 330.09 328.7C329.77 328.61 329.45 328.57 329.09 328.5C328.809 328.482 328.537 328.393 328.3 328.24C328.086 328.1 327.91 327.909 327.79 327.683C327.669 327.458 327.607 327.206 327.61 326.95C327.605 326.559 327.481 326.18 327.257 325.86C327.032 325.541 326.716 325.297 326.35 325.16C326.011 325.034 325.643 325.01 325.29 325.09C324.97 325.15 324.65 325.19 324.29 325.28C324.65 325.38 325 325.42 325.29 325.48V325.47ZM347.29 265.62C347.572 265.634 347.847 265.717 348.09 265.86C348.31 265.987 348.493 266.169 348.621 266.388C348.749 266.607 348.817 266.856 348.82 267.11C348.823 267.497 348.937 267.875 349.15 268.198C349.363 268.521 349.665 268.775 350.02 268.93C350.357 269.074 350.73 269.112 351.09 269.04C351.41 268.97 351.73 268.93 352.09 268.84C351.77 268.75 351.45 268.71 351.09 268.65C350.808 268.626 350.537 268.534 350.3 268.38C350.084 268.242 349.907 268.051 349.786 267.826C349.665 267.6 349.604 267.346 349.61 267.09C349.609 266.805 349.545 266.523 349.421 266.267C349.297 266.01 349.117 265.784 348.895 265.605C348.672 265.427 348.413 265.301 348.135 265.236C347.857 265.171 347.569 265.169 347.29 265.23C346.97 265.3 346.65 265.33 346.29 265.42C346.67 265.52 347 265.56 347.31 265.63L347.29 265.62ZM291 233.44C291.285 233.461 291.562 233.546 291.81 233.69C292.029 233.818 292.21 234.001 292.338 234.22C292.466 234.439 292.536 234.687 292.54 234.94C292.543 235.327 292.657 235.705 292.87 236.028C293.083 236.351 293.385 236.605 293.74 236.76C294.078 236.901 294.451 236.936 294.81 236.86C295.13 236.8 295.45 236.76 295.81 236.67C295.49 236.58 295.17 236.54 294.81 236.48C294.528 236.458 294.256 236.365 294.02 236.21C293.806 236.07 293.63 235.879 293.51 235.653C293.389 235.428 293.327 235.176 293.33 234.92C293.317 234.531 293.19 234.155 292.967 233.837C292.743 233.519 292.431 233.274 292.07 233.13C291.726 233.01 291.356 232.986 291 233.06C290.68 233.12 290.36 233.16 290.05 233.25C290.37 233.34 290.69 233.38 291 233.44ZM325.65 232.72C325.934 232.739 326.211 232.821 326.46 232.96C326.677 233.09 326.858 233.273 326.986 233.491C327.113 233.71 327.184 233.957 327.19 234.21C327.191 234.599 327.304 234.979 327.518 235.304C327.731 235.629 328.034 235.885 328.39 236.04C328.73 236.176 329.101 236.21 329.46 236.14C329.77 236.07 330.09 236.03 330.41 235.95C330.09 235.86 329.77 235.82 329.46 235.75C329.177 235.725 328.904 235.636 328.66 235.49C328.447 235.35 328.273 235.158 328.154 234.933C328.035 234.707 327.975 234.455 327.98 234.2C327.969 233.81 327.843 233.431 327.619 233.111C327.395 232.792 327.083 232.544 326.72 232.4C326.376 232.28 326.006 232.255 325.65 232.33C325.33 232.4 325.01 232.44 324.65 232.53C325 232.61 325.34 232.65 325.66 232.72H325.65ZM282.5 288.72C282.784 288.739 283.061 288.821 283.31 288.96C283.526 289.09 283.705 289.273 283.831 289.492C283.957 289.711 284.026 289.958 284.03 290.21C284.031 290.599 284.144 290.979 284.358 291.304C284.571 291.629 284.874 291.885 285.23 292.04C285.57 292.176 285.941 292.21 286.3 292.14C286.62 292.08 286.94 292.04 287.3 291.95C286.98 291.86 286.66 291.82 286.3 291.75C286.02 291.728 285.749 291.639 285.51 291.49C285.296 291.35 285.12 291.159 285 290.933C284.879 290.708 284.817 290.456 284.82 290.2C284.816 289.809 284.693 289.429 284.468 289.109C284.243 288.789 283.927 288.546 283.56 288.41C283.221 288.284 282.853 288.259 282.5 288.34C282.18 288.4 281.86 288.44 281.5 288.53C281.87 288.58 282.19 288.62 282.51 288.68L282.5 288.72ZM320.28 346.72C320.565 346.738 320.842 346.82 321.09 346.96C321.307 347.09 321.488 347.273 321.616 347.491C321.743 347.71 321.814 347.957 321.82 348.21C321.827 348.59 321.941 348.959 322.15 349.276C322.359 349.593 322.654 349.844 323 350C323.34 350.136 323.711 350.17 324.07 350.1C324.39 350.03 324.71 349.99 325.07 349.9C324.75 349.81 324.43 349.78 324.07 349.71C323.788 349.688 323.516 349.595 323.28 349.44C323.065 349.303 322.889 349.114 322.768 348.89C322.647 348.666 322.586 348.415 322.59 348.16C322.589 347.874 322.524 347.591 322.4 347.333C322.276 347.075 322.095 346.848 321.872 346.668C321.648 346.489 321.388 346.362 321.109 346.297C320.83 346.231 320.54 346.229 320.26 346.29C319.94 346.36 319.63 346.4 319.26 346.49C319.66 346.55 320 346.59 320.29 346.66L320.28 346.72ZM301.68 315.57C301.965 315.585 302.243 315.667 302.49 315.81C302.709 315.937 302.89 316.12 303.016 316.339C303.143 316.558 303.209 316.807 303.21 317.06C303.213 317.447 303.327 317.825 303.54 318.148C303.753 318.471 304.055 318.725 304.41 318.88C304.748 319.023 305.12 319.061 305.48 318.99C305.8 318.92 306.12 318.88 306.48 318.79C306.16 318.7 305.84 318.66 305.48 318.6C305.199 318.574 304.928 318.482 304.69 318.33C304.466 318.191 304.283 317.994 304.161 317.76C304.04 317.526 303.984 317.263 304 317C303.998 316.714 303.932 316.433 303.807 316.176C303.682 315.919 303.501 315.693 303.278 315.515C303.055 315.337 302.794 315.211 302.516 315.146C302.238 315.081 301.949 315.079 301.67 315.14C301.35 315.2 301.03 315.24 300.67 315.33C301.05 315.4 301.37 315.44 301.69 315.51L301.68 315.57ZM259.08 347.5C258.799 347.474 258.528 347.382 258.29 347.23C258.074 347.093 257.897 346.902 257.777 346.676C257.658 346.45 257.6 346.196 257.61 345.94C257.596 345.575 257.482 345.221 257.281 344.916C257.08 344.611 256.8 344.367 256.47 344.21C256.47 344.47 256.41 344.71 256.39 344.95C256.524 345.08 256.63 345.235 256.702 345.407C256.775 345.579 256.811 345.764 256.81 345.95C256.813 346.337 256.927 346.715 257.14 347.038C257.353 347.361 257.655 347.615 258.01 347.77C258.348 347.913 258.72 347.951 259.08 347.88C259.4 347.81 259.72 347.77 260.08 347.68C259.73 347.54 259.41 347.5 259.09 347.44L259.08 347.5ZM267.26 321.23C267.545 321.245 267.823 321.327 268.07 321.47C268.289 321.598 268.47 321.781 268.598 322C268.726 322.219 268.796 322.467 268.8 322.72C268.803 323.107 268.917 323.485 269.13 323.808C269.343 324.131 269.645 324.385 270 324.54C270.337 324.684 270.71 324.722 271.07 324.65C271.39 324.58 271.7 324.54 272.02 324.45C271.7 324.36 271.39 324.32 271.07 324.26C270.788 324.238 270.516 324.145 270.28 323.99C270.062 323.854 269.884 323.663 269.763 323.437C269.642 323.211 269.582 322.957 269.59 322.7C269.577 322.311 269.45 321.935 269.227 321.617C269.003 321.299 268.691 321.054 268.33 320.91C267.986 320.79 267.616 320.766 267.26 320.84C266.94 320.91 266.62 320.94 266.26 321.03C266.63 321.06 267 321.1 267.27 321.17L267.26 321.23ZM317.52 289.5C317.805 289.522 318.082 289.608 318.33 289.75C318.549 289.878 318.73 290.061 318.858 290.28C318.986 290.499 319.056 290.747 319.06 291C319.063 291.387 319.177 291.765 319.39 292.088C319.603 292.411 319.905 292.665 320.26 292.82C320.595 292.96 320.965 292.995 321.32 292.92C321.64 292.86 321.96 292.82 322.32 292.73C322 292.64 321.68 292.6 321.32 292.54C321.039 292.514 320.768 292.422 320.53 292.27C320.317 292.13 320.143 291.938 320.024 291.713C319.905 291.487 319.845 291.235 319.85 290.98C319.837 290.591 319.71 290.215 319.487 289.897C319.263 289.579 318.951 289.334 318.59 289.19C318.246 289.07 317.876 289.046 317.52 289.12C317.2 289.18 316.88 289.22 316.52 289.31C316.89 289.34 317.21 289.38 317.53 289.44L317.52 289.5ZM361.52 332.16C361.801 332.179 362.075 332.261 362.32 332.4C362.539 332.528 362.72 332.711 362.848 332.93C362.976 333.149 363.046 333.397 363.05 333.65C363.051 334.039 363.164 334.419 363.378 334.744C363.591 335.069 363.894 335.325 364.25 335.48C364.59 335.616 364.961 335.65 365.32 335.58C365.64 335.51 365.96 335.47 366.32 335.38C366 335.29 365.68 335.26 365.32 335.19C365.038 335.166 364.767 335.074 364.53 334.92C364.315 334.783 364.139 334.594 364.018 334.37C363.897 334.146 363.836 333.895 363.84 333.64C363.841 333.354 363.777 333.071 363.654 332.813C363.531 332.555 363.351 332.328 363.129 332.148C362.906 331.969 362.646 331.842 362.367 331.776C362.089 331.711 361.799 331.709 361.52 331.77C361.2 331.84 360.88 331.88 360.52 331.97C360.91 332 361.23 332 361.55 332.1L361.52 332.16ZM344.04 306.16C344.325 306.178 344.602 306.26 344.85 306.4C345.067 306.53 345.248 306.713 345.376 306.931C345.503 307.15 345.574 307.397 345.58 307.65C345.581 308.039 345.694 308.419 345.908 308.744C346.121 309.069 346.424 309.325 346.78 309.48C347.12 309.616 347.491 309.65 347.85 309.58C348.17 309.51 348.49 309.48 348.85 309.39C348.53 309.3 348.21 309.26 347.85 309.19C347.569 309.171 347.297 309.082 347.06 308.93C346.846 308.79 346.67 308.599 346.55 308.373C346.429 308.148 346.367 307.896 346.37 307.64C346.357 307.251 346.23 306.875 346.007 306.557C345.783 306.239 345.471 305.994 345.11 305.85C344.767 305.726 344.397 305.699 344.04 305.77C343.72 305.84 343.41 305.88 343.09 305.97C343.44 306 343.75 306 344.07 306.06L344.04 306.16ZM292.18 251.87C291.964 252.057 291.707 252.191 291.43 252.26C291.187 252.326 290.931 252.327 290.687 252.264C290.444 252.201 290.221 252.076 290.04 251.9C289.765 251.625 289.417 251.437 289.037 251.357C288.657 251.277 288.262 251.309 287.9 251.45C287.562 251.595 287.274 251.835 287.07 252.14C286.89 252.41 286.69 252.66 286.53 252.95C286.82 252.79 287.07 252.59 287.34 252.41C287.559 252.232 287.815 252.105 288.09 252.04C288.341 251.987 288.601 251.999 288.846 252.074C289.091 252.149 289.312 252.285 289.49 252.47C289.694 252.677 289.942 252.836 290.215 252.933C290.489 253.031 290.781 253.065 291.07 253.034C291.359 253.002 291.637 252.905 291.883 252.75C292.129 252.595 292.336 252.387 292.49 252.14C292.67 251.87 292.87 251.61 293.03 251.32C292.73 251.39 292.48 251.59 292.21 251.77L292.18 251.87ZM343.92 289C343.707 289.188 343.454 289.325 343.18 289.4C342.934 289.461 342.677 289.46 342.432 289.395C342.188 289.33 341.963 289.205 341.78 289.03C341.505 288.759 341.158 288.573 340.78 288.495C340.402 288.417 340.01 288.45 339.65 288.59C339.313 288.731 339.025 288.968 338.82 289.27C338.64 289.54 338.44 289.79 338.28 290.08C338.57 289.92 338.82 289.72 339.09 289.54C339.308 289.36 339.565 289.233 339.84 289.17C340.089 289.117 340.348 289.129 340.591 289.204C340.834 289.279 341.054 289.415 341.23 289.6C341.434 289.806 341.683 289.962 341.956 290.059C342.23 290.155 342.521 290.189 342.809 290.157C343.098 290.126 343.375 290.029 343.621 289.876C343.867 289.722 344.075 289.515 344.23 289.27C344.41 289 344.61 288.75 344.77 288.46C344.45 288.6 344.2 288.8 343.92 289ZM311.65 219.71C311.437 219.898 311.184 220.035 310.91 220.11C310.665 220.176 310.406 220.177 310.16 220.112C309.915 220.047 309.69 219.919 309.51 219.74C309.234 219.467 308.885 219.28 308.505 219.202C308.125 219.124 307.731 219.158 307.37 219.3C307.033 219.441 306.745 219.678 306.54 219.98C306.36 220.26 306.16 220.51 306 220.8C306.29 220.64 306.55 220.44 306.82 220.26C307.034 220.08 307.288 219.954 307.56 219.89C307.81 219.837 308.069 219.847 308.314 219.921C308.559 219.994 308.781 220.128 308.96 220.31C309.162 220.52 309.409 220.68 309.683 220.78C309.956 220.879 310.249 220.915 310.538 220.884C310.828 220.853 311.106 220.757 311.353 220.602C311.599 220.447 311.807 220.238 311.96 219.99C312.14 219.71 312.34 219.46 312.5 219.17C312.18 219.32 311.92 219.51 311.65 219.69V219.71ZM311 240.22C310.978 240.502 310.892 240.775 310.75 241.02C310.623 241.24 310.441 241.423 310.222 241.551C310.003 241.679 309.754 241.747 309.5 241.75C309.113 241.753 308.735 241.867 308.412 242.08C308.089 242.293 307.835 242.595 307.68 242.95C307.541 243.289 307.503 243.66 307.57 244.02C307.64 244.34 307.68 244.66 307.77 245.02C307.86 244.7 307.9 244.38 307.96 244.02C307.984 243.738 308.076 243.467 308.23 243.23C308.37 243.016 308.561 242.84 308.787 242.72C309.012 242.599 309.264 242.537 309.52 242.54C309.805 242.539 310.087 242.475 310.343 242.351C310.6 242.227 310.826 242.047 311.005 241.825C311.183 241.602 311.309 241.343 311.374 241.065C311.439 240.787 311.441 240.499 311.38 240.22C311.32 239.9 311.28 239.58 311.19 239.22C311.12 239.58 311.08 239.9 311 240.22ZM303.38 296.44C303.359 296.725 303.274 297.002 303.13 297.25C303.002 297.469 302.819 297.65 302.6 297.778C302.381 297.906 302.133 297.976 301.88 297.98C301.493 297.983 301.115 298.097 300.792 298.31C300.469 298.523 300.215 298.825 300.06 299.18C299.924 299.52 299.89 299.891 299.96 300.25C300.02 300.57 300.06 300.89 300.15 301.25C300.24 300.93 300.28 300.61 300.35 300.25C300.365 299.968 300.454 299.695 300.61 299.46C300.75 299.246 300.941 299.07 301.167 298.95C301.392 298.829 301.644 298.767 301.9 298.77C302.289 298.757 302.665 298.63 302.983 298.407C303.301 298.183 303.546 297.871 303.69 297.51C303.816 297.168 303.84 296.796 303.76 296.44C303.7 296.13 303.66 295.81 303.57 295.49C303.5 295.81 303.46 296.13 303.4 296.44H303.38ZM343.28 247.44H343.12C342.731 247.441 342.351 247.554 342.026 247.768C341.701 247.981 341.445 248.284 341.29 248.64C341.154 248.98 341.12 249.351 341.19 249.71C341.25 250.03 341.29 250.35 341.38 250.71C341.47 250.39 341.51 250.07 341.58 249.71C341.601 249.429 341.69 249.158 341.84 248.92C341.98 248.706 342.171 248.53 342.397 248.41C342.622 248.289 342.874 248.227 343.13 248.23C343.307 248.23 343.483 248.2 343.65 248.14L343.28 247.44ZM343 338.28C342.985 338.565 342.903 338.843 342.76 339.09C342.632 339.309 342.449 339.49 342.23 339.618C342.011 339.746 341.763 339.816 341.51 339.82C341.123 339.823 340.745 339.937 340.422 340.15C340.099 340.363 339.845 340.665 339.69 341.02C339.551 341.359 339.513 341.73 339.58 342.09C339.65 342.41 339.69 342.73 339.78 343.09C339.87 342.78 339.91 342.46 339.97 342.09C339.992 341.808 340.085 341.536 340.24 341.3C340.376 341.082 340.567 340.904 340.793 340.783C341.019 340.662 341.273 340.602 341.53 340.61C341.919 340.597 342.295 340.47 342.613 340.247C342.931 340.023 343.176 339.711 343.32 339.35C343.44 339.006 343.465 338.636 343.39 338.28C343.33 337.96 343.29 337.64 343.2 337.28C343.13 337.64 343.09 338 343 338.28ZM360.17 287.28C360.174 287.307 360.174 287.333 360.17 287.36C360.043 287.58 359.861 287.763 359.642 287.891C359.423 288.019 359.174 288.087 358.92 288.09C358.533 288.093 358.155 288.207 357.832 288.42C357.509 288.633 357.255 288.935 357.1 289.29C356.957 289.628 356.919 290 356.99 290.36C357.06 290.68 357.1 291 357.19 291.36C357.28 291.04 357.32 290.72 357.38 290.36C357.406 290.079 357.498 289.808 357.65 289.57C357.788 289.354 357.979 289.177 358.204 289.056C358.43 288.935 358.684 288.874 358.94 288.88C359.239 288.872 359.533 288.797 359.8 288.66C360.066 288.523 360.299 288.329 360.48 288.09L360.17 287.28ZM272.4 298.46C272.382 298.742 272.3 299.015 272.16 299.26C272.032 299.479 271.849 299.66 271.63 299.788C271.411 299.916 271.163 299.986 270.91 299.99C270.521 299.991 270.141 300.104 269.816 300.318C269.491 300.531 269.235 300.834 269.08 301.19C268.944 301.53 268.91 301.901 268.98 302.26C269.05 302.58 269.08 302.9 269.17 303.26C269.26 302.94 269.3 302.62 269.37 302.26C269.395 301.98 269.484 301.71 269.63 301.47C269.77 301.256 269.961 301.08 270.187 300.96C270.412 300.839 270.664 300.777 270.92 300.78C271.31 300.769 271.689 300.643 272.009 300.419C272.328 300.195 272.576 299.883 272.72 299.52C272.836 299.179 272.86 298.813 272.79 298.46C272.72 298.14 272.68 297.82 272.59 297.46C272.5 297.82 272.47 298.14 272.4 298.46ZM274.51 248.07L274 249.74C274.191 249.551 274.338 249.322 274.43 249.07C274.541 248.749 274.569 248.405 274.51 248.07ZM292.51 215.2C292.489 215.485 292.404 215.762 292.26 216.01C292.132 216.229 291.949 216.41 291.73 216.538C291.511 216.666 291.263 216.736 291.01 216.74C290.623 216.743 290.245 216.857 289.922 217.07C289.599 217.283 289.345 217.585 289.19 217.94C289.051 218.279 289.013 218.65 289.08 219.01C289.15 219.33 289.19 219.65 289.28 220.01C289.37 219.69 289.41 219.37 289.47 219.01C289.492 218.728 289.585 218.456 289.74 218.22C289.88 218.006 290.071 217.83 290.297 217.71C290.522 217.589 290.774 217.527 291.03 217.53C291.419 217.517 291.795 217.39 292.113 217.167C292.431 216.943 292.676 216.631 292.82 216.27C292.94 215.926 292.965 215.556 292.89 215.2C292.83 214.89 292.79 214.57 292.7 214.25C292.62 214.57 292.58 214.89 292.52 215.2H292.51ZM287.56 265.91C287.545 266.195 287.463 266.473 287.32 266.72C287.192 266.939 287.009 267.12 286.79 267.248C286.571 267.376 286.323 267.446 286.07 267.45C285.684 267.452 285.307 267.565 284.984 267.776C284.661 267.987 284.406 268.287 284.25 268.64C284.107 268.978 284.069 269.35 284.14 269.71C284.21 270.03 284.25 270.35 284.34 270.71C284.43 270.39 284.47 270.07 284.53 269.71C284.556 269.429 284.648 269.158 284.8 268.92C284.939 268.706 285.13 268.53 285.356 268.411C285.582 268.292 285.835 268.233 286.09 268.24C286.479 268.227 286.855 268.1 287.173 267.877C287.491 267.653 287.736 267.341 287.88 266.98C288 266.636 288.025 266.266 287.95 265.91C287.89 265.59 287.85 265.27 287.76 264.91C287.68 265.27 287.64 265.59 287.57 265.91H287.56ZM331.93 272.73C331.912 273.012 331.83 273.285 331.69 273.53C331.562 273.749 331.379 273.93 331.16 274.058C330.941 274.186 330.693 274.256 330.44 274.26C330.051 274.261 329.671 274.374 329.346 274.587C329.021 274.801 328.765 275.104 328.61 275.46C328.474 275.8 328.44 276.171 328.51 276.53C328.58 276.85 328.61 277.17 328.7 277.53C328.79 277.21 328.83 276.89 328.9 276.53C328.927 276.251 329.016 275.981 329.16 275.74C329.3 275.526 329.491 275.35 329.717 275.23C329.942 275.109 330.194 275.047 330.45 275.05C330.84 275.039 331.219 274.913 331.539 274.689C331.858 274.465 332.106 274.153 332.25 273.79C332.366 273.449 332.39 273.083 332.32 272.73C332.25 272.41 332.21 272.09 332.12 271.73C332 272.09 332 272.41 331.94 272.73H331.93ZM290.93 329.67C290.909 329.952 290.824 330.226 290.68 330.47C290.553 330.69 290.371 330.873 290.152 331.001C289.933 331.129 289.684 331.198 289.43 331.2C289.043 331.203 288.665 331.317 288.342 331.53C288.019 331.743 287.765 332.045 287.61 332.4C287.47 332.738 287.435 333.111 287.51 333.47C287.57 333.79 287.61 334.11 287.7 334.47C287.79 334.15 287.83 333.83 287.89 333.47C287.916 333.189 288.008 332.918 288.16 332.68C288.3 332.466 288.491 332.29 288.717 332.17C288.942 332.049 289.194 331.987 289.45 331.99C289.735 331.989 290.017 331.925 290.273 331.801C290.53 331.677 290.756 331.497 290.935 331.275C291.113 331.052 291.239 330.793 291.304 330.515C291.369 330.237 291.371 329.949 291.31 329.67C291.25 329.35 291.21 329.03 291.12 328.67C291 329 291 329.35 290.94 329.67H290.93ZM325.34 255.13C325.553 254.942 325.806 254.805 326.08 254.73C326.326 254.669 326.583 254.67 326.828 254.735C327.072 254.8 327.297 254.925 327.48 255.1C327.754 255.373 328.1 255.56 328.478 255.64C328.856 255.72 329.249 255.689 329.61 255.55C329.948 255.405 330.236 255.165 330.44 254.86C330.62 254.59 330.82 254.34 330.98 254.05C330.69 254.21 330.44 254.41 330.17 254.59C329.952 254.77 329.695 254.897 329.42 254.96C329.171 255.013 328.912 255.001 328.669 254.926C328.426 254.851 328.206 254.715 328.03 254.53C327.826 254.324 327.577 254.168 327.304 254.071C327.03 253.975 326.739 253.941 326.451 253.973C326.162 254.004 325.885 254.101 325.639 254.254C325.393 254.408 325.185 254.615 325.03 254.86C324.85 255.13 324.65 255.38 324.49 255.67C324.82 255.51 325.07 255.31 325.35 255.13H325.34ZM299.45 278.57C299.666 278.383 299.923 278.249 300.2 278.18C300.445 278.114 300.702 278.113 300.947 278.176C301.193 278.239 301.417 278.364 301.6 278.54C301.874 278.813 302.22 279 302.598 279.08C302.976 279.16 303.369 279.129 303.73 278.99C304.068 278.845 304.356 278.605 304.56 278.3C304.74 278.03 304.94 277.78 305.1 277.49C304.81 277.65 304.56 277.85 304.29 278.03C304.072 278.21 303.815 278.337 303.54 278.4C303.289 278.452 303.03 278.44 302.785 278.365C302.54 278.29 302.318 278.154 302.14 277.97C301.936 277.763 301.688 277.604 301.415 277.507C301.141 277.409 300.849 277.375 300.56 277.406C300.271 277.438 299.993 277.535 299.747 277.69C299.501 277.845 299.294 278.053 299.14 278.3C298.96 278.57 298.76 278.83 298.6 279.12C298.94 279 299.19 278.75 299.46 278.57H299.45ZM281.92 313.11C282.136 312.926 282.388 312.789 282.66 312.71C282.906 312.648 283.163 312.65 283.408 312.715C283.652 312.78 283.877 312.905 284.06 313.08C284.336 313.353 284.685 313.54 285.065 313.618C285.445 313.696 285.839 313.662 286.2 313.52C286.537 313.379 286.825 313.142 287.03 312.84C287.21 312.57 287.41 312.31 287.57 312.02C287.28 312.19 287.03 312.38 286.75 312.56C286.541 312.747 286.285 312.875 286.01 312.93C285.76 312.987 285.5 312.979 285.255 312.905C285.009 312.831 284.787 312.695 284.61 312.51C284.326 312.243 283.97 312.065 283.587 311.998C283.203 311.93 282.808 311.976 282.45 312.13C282.121 312.286 281.844 312.532 281.65 312.84C281.47 313.11 281.27 313.36 281.11 313.65C281.41 313.49 281.66 313.29 281.93 313.11H281.92ZM289.51 349C289.723 348.815 289.977 348.681 290.25 348.61C290.495 348.544 290.752 348.543 290.997 348.606C291.243 348.669 291.467 348.794 291.65 348.97C291.925 349.245 292.273 349.433 292.653 349.513C293.033 349.593 293.428 349.561 293.79 349.42C294.128 349.275 294.416 349.035 294.62 348.73C294.8 348.46 295 348.21 295.16 347.92C294.87 348.08 294.62 348.28 294.34 348.46C294.126 348.64 293.872 348.766 293.6 348.83C293.349 348.884 293.089 348.873 292.844 348.797C292.599 348.722 292.377 348.585 292.2 348.4C291.996 348.193 291.748 348.034 291.475 347.937C291.201 347.839 290.909 347.805 290.62 347.836C290.331 347.868 290.053 347.965 289.807 348.12C289.561 348.275 289.354 348.483 289.2 348.73C289.02 349 288.82 349.26 288.66 349.54C289 349.37 289.24 349.17 289.51 349ZM323.44 309.57C323.653 309.382 323.906 309.245 324.18 309.17C324.426 309.109 324.683 309.11 324.928 309.175C325.172 309.24 325.397 309.365 325.58 309.54C325.856 309.813 326.205 310 326.585 310.078C326.965 310.156 327.359 310.122 327.72 309.98C328.054 309.839 328.339 309.602 328.54 309.3C328.72 309.03 328.92 308.77 329.09 308.48C328.8 308.65 328.54 308.84 328.27 309.02C328.057 309.208 327.798 309.335 327.52 309.39C327.272 309.447 327.013 309.439 326.769 309.365C326.525 309.291 326.305 309.155 326.13 308.97C325.846 308.703 325.49 308.525 325.107 308.458C324.723 308.39 324.328 308.436 323.97 308.59C323.637 308.743 323.355 308.99 323.16 309.3C322.98 309.57 322.79 309.82 322.62 310.11C322.91 309.94 323.17 309.74 323.44 309.56V309.57ZM346.79 323.86C347.006 323.676 347.258 323.539 347.53 323.46C347.776 323.398 348.033 323.4 348.278 323.465C348.522 323.53 348.747 323.655 348.93 323.83C349.206 324.103 349.555 324.29 349.935 324.368C350.315 324.446 350.709 324.412 351.07 324.27C351.407 324.129 351.695 323.892 351.9 323.59C352.08 323.32 352.28 323.07 352.44 322.78C352.15 322.94 351.9 323.14 351.62 323.32C351.406 323.5 351.152 323.627 350.88 323.69C350.629 323.744 350.369 323.733 350.124 323.657C349.879 323.582 349.657 323.445 349.48 323.26C349.276 323.053 349.028 322.894 348.755 322.797C348.481 322.699 348.189 322.665 347.9 322.696C347.611 322.728 347.333 322.825 347.087 322.98C346.841 323.135 346.634 323.343 346.48 323.59C346.3 323.86 346.1 324.11 345.94 324.4C346.26 324.23 346.52 324 346.79 323.85V323.86ZM307.51 334.7C307.724 334.514 307.977 334.377 308.25 334.3C308.496 334.238 308.753 334.24 308.998 334.305C309.242 334.37 309.467 334.495 309.65 334.67C309.926 334.943 310.275 335.13 310.655 335.208C311.035 335.286 311.429 335.252 311.79 335.11C312.127 334.969 312.415 334.732 312.62 334.43C312.8 334.16 312.99 333.9 313.16 333.61C312.87 333.78 312.61 333.98 312.34 334.16C312.123 334.342 311.866 334.469 311.59 334.53C311.341 334.583 311.082 334.571 310.839 334.496C310.596 334.421 310.376 334.285 310.2 334.1C309.916 333.833 309.56 333.655 309.177 333.588C308.793 333.52 308.398 333.566 308.04 333.72C307.714 333.88 307.437 334.125 307.24 334.43C307.06 334.7 306.86 334.95 306.69 335.24C307 335.08 307.24 334.88 307.51 334.7ZM358.17 349C358.383 348.815 358.637 348.681 358.91 348.61C359.155 348.544 359.412 348.543 359.657 348.606C359.903 348.669 360.127 348.794 360.31 348.97C360.585 349.245 360.933 349.433 361.313 349.513C361.693 349.593 362.088 349.561 362.45 349.42C362.788 349.275 363.076 349.035 363.28 348.73C363.46 348.46 363.66 348.21 363.82 347.92C363.53 348.08 363.28 348.28 363 348.46C362.786 348.64 362.532 348.766 362.26 348.83C362.009 348.883 361.749 348.871 361.504 348.796C361.259 348.721 361.038 348.585 360.86 348.4C360.656 348.193 360.408 348.034 360.135 347.937C359.861 347.839 359.569 347.805 359.28 347.836C358.991 347.868 358.713 347.965 358.467 348.12C358.221 348.275 358.014 348.483 357.86 348.73C357.68 349 357.48 349.26 357.32 349.54C357.65 349.37 357.9 349.17 358.17 349ZM367.17 310.16C366.931 310.089 366.714 309.958 366.54 309.78C366.336 309.573 366.088 309.414 365.815 309.317C365.541 309.219 365.249 309.185 364.96 309.216C364.671 309.248 364.393 309.345 364.147 309.5C363.901 309.655 363.694 309.863 363.54 310.11C363.36 310.38 363.16 310.63 363 310.92C363.29 310.76 363.54 310.56 363.81 310.38C364.026 310.196 364.278 310.059 364.55 309.98C364.796 309.919 365.053 309.92 365.298 309.985C365.542 310.05 365.767 310.175 365.95 310.35C366.318 310.721 366.817 310.933 367.34 310.94L367.17 310.16ZM271.32 339.65C271.536 339.466 271.788 339.329 272.06 339.25C272.306 339.188 272.563 339.19 272.808 339.255C273.052 339.32 273.277 339.445 273.46 339.62C273.735 339.895 274.083 340.083 274.463 340.163C274.843 340.243 275.238 340.211 275.6 340.07C275.938 339.925 276.226 339.685 276.43 339.38C276.61 339.11 276.81 338.86 276.97 338.57C276.68 338.73 276.43 338.93 276.15 339.11C275.936 339.29 275.682 339.417 275.41 339.48C275.159 339.533 274.899 339.521 274.654 339.446C274.409 339.371 274.188 339.235 274.01 339.05C273.806 338.843 273.558 338.684 273.285 338.587C273.011 338.489 272.719 338.455 272.43 338.486C272.141 338.518 271.863 338.615 271.617 338.77C271.371 338.925 271.164 339.133 271.01 339.38C270.83 339.65 270.63 339.91 270.47 340.19C270.84 340 271.09 339.82 271.36 339.64L271.32 339.65ZM268.43 279.4C268.64 279.208 268.894 279.071 269.17 279C269.415 278.934 269.674 278.933 269.919 278.998C270.165 279.063 270.39 279.191 270.57 279.37C270.846 279.643 271.195 279.83 271.575 279.908C271.955 279.986 272.349 279.952 272.71 279.81C273.044 279.669 273.329 279.432 273.53 279.13C273.71 278.85 273.91 278.6 274.08 278.31C273.79 278.47 273.53 278.67 273.26 278.85C273.048 279.039 272.789 279.167 272.51 279.22C272.262 279.275 272.003 279.266 271.76 279.192C271.516 279.119 271.296 278.984 271.12 278.8C270.836 278.533 270.48 278.355 270.097 278.288C269.713 278.22 269.318 278.266 268.96 278.42C268.63 278.573 268.349 278.815 268.15 279.12C267.97 279.4 267.78 279.65 267.61 279.94C267.94 279.77 268.2 279.57 268.47 279.39L268.43 279.4Z" fill="white"/>
<path d="M274.8 246.07C273.7 250.07 272.633 254.07 271.6 258.07C271.73 256.32 271.92 254.58 272.15 252.84C272.15 252.74 272.01 252.69 271.98 252.84C271.554 254.999 271.316 257.19 271.27 259.39C270.03 264.223 268.87 269.073 267.79 273.94C265.74 283.27 263.91 292.68 262.39 302.11C261.54 307.44 260.88 312.79 259.97 318.11C259.97 318.21 260.11 318.25 260.13 318.11C260.96 313.4 262.07 308.72 263.13 304.04C264.19 299.36 265.13 294.74 266.13 290.09C268.07 280.72 270.13 271.38 272.05 262.02C273.14 256.74 274.15 251.45 275.24 246.18C275.247 246.151 275.249 246.121 275.244 246.092C275.24 246.062 275.23 246.034 275.214 246.008C275.183 245.957 275.133 245.92 275.075 245.905C275.017 245.89 274.955 245.9 274.903 245.931C274.852 245.961 274.815 246.012 274.8 246.07Z" fill="#263238"/>
<path d="M270.11 183.78C271.44 191.06 267.34 197.91 260.95 199.08C254.56 200.25 248.31 195.29 246.95 188.01C245.59 180.73 249.71 173.87 256.1 172.71C262.49 171.55 268.78 176.5 270.11 183.78Z" fill="#455A64"/>
<path d="M273.94 183.55C275.42 191.65 270.86 199.27 263.76 200.55C256.66 201.83 249.69 196.34 248.21 188.24C246.73 180.14 251.29 172.52 258.39 171.24C265.49 169.96 272.46 175.45 273.94 183.55Z" fill="#292929"/>
<path d="M294.21 240.71C301.45 240.71 310.66 227.35 313.21 217.71C313.38 217.05 305.33 194.38 304.21 189.71C303.98 188.71 276.72 203.89 276.72 203.89C276.72 203.89 281.96 212.96 283.88 221.09C284.06 221.82 287.21 240.74 294.21 240.71Z" fill="#BF7D72"/>
<path d="M287.25 222.86C286.304 223.123 285.337 223.3 284.36 223.39C284.24 222.82 284.14 222.34 284.07 221.97C284.074 221.954 284.074 221.936 284.07 221.92C284.075 221.877 284.075 221.833 284.07 221.79C284.07 221.65 284.02 221.5 283.98 221.35C283.985 221.32 283.985 221.29 283.98 221.26V221.14C283.537 219.323 282.99 217.534 282.34 215.78C281.066 212.385 279.577 209.075 277.88 205.87C277.74 205.603 277.61 205.363 277.49 205.15L276.85 203.97L277.57 203.56L278.57 203.03L279.21 202.68L280 202.24L280.73 201.84L280.87 201.76L281.87 201.24L282.09 201.12L283.04 200.6L283.54 200.33L285.08 199.49L286.26 198.85L287.26 198.31L290.68 196.47L291.78 195.87L295.73 193.79L296.58 193.35L297 193L297.67 192.65L299.11 191.92L299.99 191.48C300.42 191.26 300.82 191.07 301.2 190.89C301.39 190.79 301.58 190.71 301.75 190.63C302.27 190.38 302.75 190.18 303.09 190.03L303.33 189.93C303.67 197.85 303 218.64 287.25 222.86Z" fill="#263238"/>
<path d="M296.06 154.67C302.51 163.76 306.91 194.74 301.89 203.67C294.61 216.59 277.84 223.18 265.64 213.32C253.82 203.77 248.81 163.32 254.87 154.68C263.79 142 286.52 141.26 296.06 154.67Z" fill="#BF7D72"/>
<path d="M273 182C273 181.91 273.17 182.07 273.18 182.16C273.42 184.25 274.05 186.61 276.04 187.03C276.1 187.03 276.11 187.15 276.04 187.15C273.64 187.19 272.84 184.05 273 182Z" fill="#263238"/>
<path d="M274.49 179.57C277.81 178.83 279.06 185.57 275.98 186.21C272.9 186.85 271.71 180.2 274.49 179.57Z" fill="#263238"/>
<path d="M261.56 184.48C261.56 184.4 261.42 184.6 261.43 184.69C261.89 186.75 262.06 189.18 260.31 190.22C260.26 190.22 260.31 190.36 260.31 190.34C262.58 189.59 262.32 186.36 261.56 184.48Z" fill="#263238"/>
<path d="M259.31 182.66C255.93 183.03 256.91 189.76 260.05 189.42C263.19 189.08 262.14 182.35 259.31 182.66Z" fill="#263238"/>
<path d="M276.56 176C275.633 175.908 274.711 175.764 273.8 175.57C272.801 175.552 271.836 175.2 271.06 174.57C270.855 174.326 270.736 174.023 270.72 173.705C270.703 173.387 270.791 173.073 270.97 172.81C271.409 172.352 271.961 172.018 272.57 171.842C273.18 171.666 273.825 171.655 274.44 171.81C275.736 171.933 276.94 172.531 277.82 173.49C278.012 173.719 278.132 173.999 278.167 174.295C278.201 174.592 278.148 174.892 278.015 175.159C277.881 175.426 277.672 175.648 277.413 175.797C277.155 175.946 276.858 176.017 276.56 176Z" fill="#263238"/>
<path d="M256.09 179.77C256.954 179.422 257.798 179.028 258.62 178.59C259.569 178.292 260.394 177.691 260.97 176.88C261.1 176.59 261.13 176.265 261.056 175.955C260.982 175.646 260.808 175.37 260.56 175.17C260.013 174.848 259.39 174.678 258.755 174.678C258.12 174.678 257.497 174.848 256.95 175.17C255.733 175.641 254.74 176.556 254.17 177.73C254.054 178.003 254.02 178.305 254.072 178.597C254.124 178.89 254.26 179.16 254.464 179.377C254.668 179.593 254.93 179.745 255.219 179.815C255.507 179.885 255.81 179.869 256.09 179.77Z" fill="#263238"/>
<path d="M279 200.77C278.6 201.35 278.23 202.11 277.49 202.31C276.715 202.442 275.921 202.408 275.16 202.21C275.144 202.203 275.127 202.203 275.111 202.208C275.094 202.213 275.081 202.224 275.072 202.239C275.063 202.254 275.061 202.271 275.064 202.288C275.067 202.305 275.076 202.32 275.09 202.33C275.462 202.682 275.923 202.927 276.423 203.038C276.923 203.149 277.444 203.122 277.93 202.96C278.332 202.772 278.669 202.47 278.898 202.091C279.128 201.712 279.24 201.273 279.22 200.83C279.23 200.7 279.06 200.69 279 200.77Z" fill="#263238"/>
<path d="M275.67 195C275.294 195.915 274.734 196.743 274.023 197.431C273.312 198.12 272.467 198.654 271.54 199C270.736 199.317 269.891 199.516 269.03 199.59C268.864 199.604 268.696 199.604 268.53 199.59C268.377 199.6 268.223 199.6 268.07 199.59C267.955 199.59 267.844 199.554 267.752 199.485C267.66 199.416 267.592 199.32 267.56 199.21C267.555 199.14 267.555 199.07 267.56 199V198.82C267.22 197.23 266.92 194.82 266.92 194.82C266.39 195.22 263.67 197.11 263.56 196.27C262.68 189.27 261.7 181.53 262.3 174.4C262.31 174.356 262.335 174.316 262.37 174.288C262.406 174.26 262.45 174.244 262.495 174.244C262.54 174.244 262.584 174.26 262.62 174.288C262.655 174.316 262.68 174.356 262.69 174.4C263.8 181.08 263.69 187.9 264.74 194.62C265.704 193.93 266.761 193.381 267.88 192.99C268.12 192.99 268.37 197.74 268.58 198.44V198.52C271.32 198.36 273.19 197.17 275.46 194.88C275.57 194.68 275.76 194.79 275.67 195Z" fill="#263238"/>
<path d="M269.82 198.6C270.904 199.584 272.223 200.272 273.65 200.6C274.435 200.747 275.246 200.645 275.97 200.31C277.54 199.57 277.3 198.04 276.75 196.8C276.456 196.141 276.083 195.52 275.64 194.95C274.139 196.757 272.1 198.036 269.82 198.6Z" fill="#263238"/>
<path d="M273.65 200.57C274.435 200.717 275.246 200.615 275.97 200.28C277.54 199.54 277.3 198.01 276.75 196.77C275 197.29 273.48 198.82 273.65 200.57Z" fill="#FF99BA"/>
<path opacity="0.2" d="M294.9 167.68C296.96 170.29 301.46 176.55 302.99 176.63C301.41 166.54 298.84 157.73 294.82 153.04C293.157 151.103 291.154 149.486 288.91 148.27C289.49 150.93 292.71 165 294.9 167.68Z" fill="#263238"/>
<path d="M264.84 161.55C266.087 162.72 267.614 163.55 269.274 163.961C270.933 164.373 272.671 164.351 274.32 163.9C276.009 163.441 277.553 162.556 278.803 161.331C280.053 160.105 280.967 158.58 281.46 156.9C281.46 156.879 281.468 156.858 281.483 156.843C281.498 156.828 281.519 156.82 281.54 156.82C281.561 156.82 281.582 156.828 281.597 156.843C281.612 156.858 281.62 156.879 281.62 156.9C281.25 158.703 280.397 160.371 279.151 161.725C277.906 163.08 276.315 164.07 274.55 164.59C272.785 165.001 270.943 164.94 269.208 164.413C267.474 163.886 265.909 162.913 264.67 161.59C264.678 161.576 264.689 161.564 264.702 161.554C264.715 161.544 264.73 161.537 264.746 161.533C264.762 161.53 264.779 161.529 264.795 161.532C264.811 161.535 264.826 161.541 264.84 161.55Z" fill="#263238"/>
<path d="M272.38 135.78C278.17 135.26 283.83 137.86 286.38 141.56C287.804 143.663 288.474 146.187 288.28 148.72C288.28 148.82 288.07 148.82 288.07 148.72C287.945 146.513 287.229 144.379 285.998 142.543C284.766 140.706 283.065 139.234 281.07 138.28C278.876 137.166 276.453 136.578 273.992 136.56C271.531 136.543 269.1 137.098 266.89 138.18C264.725 139.184 262.991 140.929 262 143.1C261.91 143.32 261.46 143.23 261.53 143.01C262.66 139.22 267.14 136.26 272.38 135.78Z" fill="#263238"/>
<path d="M240.25 152.08C240.873 149.121 242.524 146.478 244.91 144.62C248.2 142.03 252.25 141.9 256.26 141.86C256.37 141.86 256.38 142.03 256.26 142.03C252.84 142.08 249.37 142.33 246.44 144.27C244.008 145.858 242.202 148.24 241.33 151.01C240.516 153.848 240.752 156.885 241.993 159.564C243.234 162.243 245.399 164.386 248.09 165.6C249.659 166.258 251.346 166.587 253.046 166.568C254.747 166.549 256.426 166.182 257.98 165.49C258.1 165.44 258.22 165.61 258.09 165.67C255.999 166.697 253.664 167.122 251.346 166.896C249.027 166.67 246.818 165.803 244.965 164.392C243.111 162.981 241.688 161.082 240.853 158.907C240.019 156.733 239.806 154.369 240.24 152.08H240.25Z" fill="#263238"/>
<path d="M299.29 161.29C299.29 161.29 303.56 150.29 298.29 144.89C295.29 141.81 286.74 143.26 286.74 143.26C285.396 141.692 283.755 140.406 281.912 139.476C280.069 138.546 278.059 137.99 276 137.84C268.6 137.03 260.52 142.25 260.52 142.25C260.52 142.25 253.21 139.13 247.22 143.55C238.88 149.71 241.6 163.2 251.11 166.55C257.8 168.88 265.72 162.28 265.72 162.28C266.56 162.28 275.61 166.39 281.12 158.1C281.12 158.1 286.85 162.1 291.12 158.33C292.014 159.602 293.277 160.567 294.739 161.097C296.2 161.626 297.789 161.694 299.29 161.29Z" fill="#263238"/>
<path d="M297.75 180.56C297.75 180.56 301.44 169 306.49 170C311.54 171 310.83 186.37 306.35 189.83C305.807 190.314 305.171 190.682 304.482 190.913C303.792 191.145 303.063 191.234 302.338 191.176C301.613 191.118 300.907 190.914 300.263 190.576C299.619 190.238 299.05 189.774 298.59 189.21L297.75 180.56Z" fill="#DD6A57"/>
<path d="M306.18 174.4C306.26 174.4 306.31 174.48 306.25 174.53C303.14 177.07 302.3 180.95 302.05 184.77C302.7 183.13 303.91 181.96 306.05 182.67C306.17 182.67 306.12 182.88 306.05 182.89C305.363 182.886 304.692 183.094 304.128 183.486C303.564 183.878 303.135 184.435 302.9 185.08C302.516 186.161 302.251 187.281 302.11 188.42C302.04 188.79 301.42 188.8 301.43 188.42V188.33C299.91 183.8 301.46 176.37 306.18 174.4Z" fill="#263238"/>
<path d="M303.33 171.8C303.33 171.8 302.61 155.61 296.92 147.28C290.58 138 273.08 131.79 260.56 142.28C260.56 142.28 278.74 137.55 290.65 148.73C296.12 153.87 298.02 172.85 298.02 172.85L303.33 171.8Z" fill="#292929"/>
<path d="M303.704 195.115C310.891 194.387 316.044 187.155 315.213 178.962C314.382 170.769 307.883 164.719 300.696 165.448C293.508 166.176 288.356 173.409 289.186 181.601C290.017 189.794 296.517 195.844 303.704 195.115Z" fill="#292929"/>
<path d="M295.068 180.973C295.704 187.028 300.663 191.498 306.147 190.955C311.631 190.413 315.562 185.073 314.934 179.026C314.306 172.979 309.339 168.509 303.846 169.043C298.353 169.577 294.431 174.926 295.068 180.973Z" fill="#455A64"/>
<path d="M332.29 224.44C351.67 245.2 397.78 323.1 382.83 337.44C367.88 351.78 284.93 332.44 261.63 321.37C254.69 318.07 281.03 274.85 289.18 273.84C295.96 273 330.64 288.84 331.64 286.84C332.78 284.59 324.9 270.12 316.56 239.99C306.94 205.3 323.73 215.27 332.29 224.44Z" fill="#BF7D72"/>
<path d="M254.74 259.91C237.9 257.57 233.21 259.55 220.05 250.02C211.41 243.77 203.71 246.6 208.63 256.54C216.7 272.79 237.8 280.38 245.87 280.91L254.74 259.91Z" fill="#DD6A57"/>
<path d="M299.49 276.13C299.49 276.13 280.56 265.62 262.86 261.34C250.61 258.39 223.26 254.92 197.09 281.91C190.88 288.32 186.57 301.84 200.51 295.07C210.41 290.25 215.23 284.21 221.51 282.46C221.51 282.46 218.08 300.32 224.73 306.28C230.552 311.499 236.738 316.298 243.24 320.64C244.306 319.63 245.308 318.554 246.24 317.42C246.24 317.42 252.99 322.42 265.68 321.2L299.49 276.13Z" fill="#BF7D72"/>
<path d="M250.72 260.39C244.87 263.44 232.57 270.12 224.41 279.08C215.35 289.03 200.57 310.65 207.98 317.27C213.42 322.12 219.79 314.36 219.79 314.36C219.79 314.36 215.57 324.58 221.44 327.89C226.79 330.89 231.35 324.61 231.35 324.61C231.35 324.61 229.86 331.25 235.57 333.16C242.44 335.46 244.45 321.16 253.42 317.47C255.43 316.65 250.72 260.39 250.72 260.39Z" fill="#BF7D72"/>
<path d="M236.52 286.9C231.52 290.68 222.25 302.18 219.7 314.09C219.64 314.36 219.81 314.55 219.92 314.32C224.356 304.569 229.964 295.394 236.62 287C236.66 286.93 236.58 286.86 236.52 286.9Z" fill="#263238"/>
<path d="M246.31 296.34C242.31 300.05 233.31 312.34 231.13 324.49C231.08 324.76 231.27 324.94 231.37 324.7C235.289 314.738 240.321 305.252 246.37 296.42C246.45 296.36 246.36 296.3 246.31 296.34Z" fill="#263238"/>
<path d="M221.5 282.35C216.01 283.97 212.44 286.66 207.8 289.88C205.528 291.503 203.168 292.999 200.73 294.36C198.49 295.57 195.2 297.36 192.81 295.5C191.49 294.45 191.51 292.5 191.81 291.02C192.128 289.311 192.81 287.691 193.81 286.27C193.86 286.2 193.74 286.11 193.69 286.18C192.744 287.418 191.98 288.786 191.42 290.24C190.823 291.586 190.649 293.082 190.92 294.53C191.73 297.53 195.3 297.95 197.82 297.12C199.33 296.57 200.78 295.87 202.15 295.03C203.48 294.26 204.77 293.44 206.04 292.58C208.65 290.81 211.16 288.9 213.75 287.11C216.265 285.418 218.887 283.891 221.6 282.54C221.625 282.527 221.644 282.504 221.652 282.477C221.661 282.45 221.658 282.42 221.645 282.395C221.632 282.37 221.609 282.351 221.582 282.342C221.555 282.334 221.525 282.337 221.5 282.35Z" fill="#263238"/>
<path d="M210 301.67C211.42 298.54 219.11 285.5 221.61 282.48C221.619 282.465 221.623 282.447 221.621 282.429C221.619 282.411 221.611 282.394 221.598 282.382C221.586 282.369 221.569 282.361 221.551 282.359C221.533 282.357 221.515 282.361 221.5 282.37C217.22 286.43 210.34 297.2 208.74 300.66C207.14 304.12 205.33 308.43 205.33 312.23C205.33 317.97 209.13 319.05 210.54 319.33C212.209 319.634 213.932 319.355 215.42 318.54C217.163 317.467 218.67 316.052 219.85 314.38C219.91 314.3 219.8 314.19 219.73 314.27C217.73 316.53 214.44 318.76 211.33 318.35C210.641 318.284 209.972 318.081 209.362 317.753C208.753 317.425 208.215 316.979 207.78 316.44C206.93 315.06 206.604 313.42 206.86 311.82C207.32 308.282 208.382 304.85 210 301.67Z" fill="#263238"/>
<path d="M231.13 324.49C230.33 325.17 228.69 327.55 226.08 328.06C225.153 328.312 224.179 328.335 223.241 328.126C222.304 327.917 221.432 327.482 220.7 326.86C219.356 325.457 218.613 323.583 218.63 321.64C218.847 319.206 219.248 316.793 219.83 314.42C219.83 314.31 219.72 314.26 219.69 314.37C218.731 316.856 218.148 319.472 217.96 322.13C217.924 323.182 218.1 324.231 218.478 325.214C218.856 326.197 219.428 327.093 220.16 327.85C220.948 328.591 221.925 329.1 222.984 329.32C224.043 329.541 225.142 329.465 226.16 329.1C227.16 328.72 230.41 326.65 231.34 324.61C231.37 324.56 231.17 324.46 231.13 324.49Z" fill="#263238"/>
<path d="M252.88 316.44C251.997 317.032 251.182 317.719 250.45 318.49C249.64 319.27 248.86 320.08 248.11 320.9C246.592 322.566 245.251 324.386 244.11 326.33C242.95 328.28 241.88 330.45 239.99 331.8C239.093 332.484 238.003 332.868 236.876 332.896C235.748 332.925 234.64 332.597 233.71 331.96C232.73 331.248 232.024 330.22 231.71 329.05C231.336 327.779 231.214 326.448 231.35 325.13C231.35 325.109 231.342 325.088 231.327 325.073C231.312 325.058 231.291 325.05 231.27 325.05C231.249 325.05 231.228 325.058 231.213 325.073C231.198 325.088 231.19 325.109 231.19 325.13C230.982 326.302 230.888 327.49 230.91 328.68C231.013 329.761 231.399 330.796 232.03 331.68C232.711 332.549 233.618 333.213 234.652 333.599C235.686 333.986 236.806 334.079 237.89 333.87C240.29 333.43 242.04 331.63 243.35 329.68C244.79 327.51 245.99 325.2 247.54 323.09C248.35 321.98 249.15 320.86 250.04 319.81C250.93 318.76 252.04 317.74 252.94 316.6C253.08 316.51 253 316.38 252.88 316.44Z" fill="#263238"/>
<path d="M259.59 321.34C256.456 320.995 253.362 320.352 250.35 319.42C250.25 319.42 250.12 319.66 250.21 319.71C251.666 320.377 253.192 320.881 254.76 321.21C256.339 321.55 257.961 321.651 259.57 321.51C259.65 321.5 259.69 321.35 259.59 321.34Z" fill="#263238"/>
<path d="M363 302C353.332 295.456 342.738 290.4 331.57 287C328.41 286 325.22 285.16 322.03 284.29C322.015 284.296 322.001 284.306 321.992 284.319C321.983 284.333 321.978 284.349 321.978 284.365C321.978 284.381 321.983 284.397 321.992 284.411C322.001 284.424 322.015 284.434 322.03 284.44C327.589 286.176 333.044 288.225 338.37 290.58C343.703 292.873 348.97 295.26 354.17 297.74C357.17 299.15 360.01 300.69 362.92 302.19C362.933 302.202 362.949 302.211 362.966 302.216C362.983 302.221 363.001 302.221 363.018 302.218C363.035 302.214 363.052 302.206 363.065 302.195C363.079 302.183 363.09 302.169 363.097 302.153C363.104 302.136 363.106 302.118 363.105 302.101C363.103 302.083 363.098 302.066 363.088 302.051C363.079 302.036 363.066 302.024 363.05 302.015C363.035 302.006 363.018 302.001 363 302Z" fill="#263238"/>
<path d="M372 273.4L324.95 271.84C324.95 271.84 316.19 248.62 312.86 227.96C309.53 207.3 326.45 213.61 344.11 235.73C361.77 257.85 372 273.4 372 273.4Z" fill="#038C7F"/>
<path d="M330.18 254.59C329.962 254.77 329.705 254.897 329.43 254.96C329.181 255.013 328.922 255.001 328.679 254.926C328.436 254.851 328.216 254.715 328.04 254.53C327.836 254.324 327.587 254.168 327.314 254.071C327.04 253.975 326.749 253.941 326.461 253.973C326.172 254.004 325.895 254.101 325.649 254.254C325.403 254.408 325.195 254.615 325.04 254.86C324.86 255.13 324.66 255.38 324.5 255.67C324.79 255.51 325.04 255.31 325.32 255.13C325.533 254.942 325.786 254.805 326.06 254.73C326.306 254.669 326.563 254.67 326.808 254.735C327.052 254.8 327.277 254.925 327.46 255.1C327.734 255.373 328.08 255.56 328.458 255.64C328.836 255.72 329.229 255.689 329.59 255.55C329.928 255.405 330.216 255.165 330.42 254.86C330.6 254.59 330.8 254.34 330.96 254.05C330.7 254.21 330.45 254.41 330.18 254.59ZM345 245.94C344.93 245.62 344.89 245.3 344.8 244.94C344.71 245.26 344.67 245.58 344.61 245.94C344.591 246.221 344.509 246.495 344.37 246.74C344.242 246.959 344.059 247.14 343.84 247.268C343.621 247.396 343.373 247.466 343.12 247.47C342.731 247.471 342.351 247.584 342.026 247.798C341.701 248.011 341.445 248.314 341.29 248.67C341.154 249.01 341.12 249.381 341.19 249.74C341.25 250.06 341.29 250.38 341.38 250.74C341.47 250.42 341.51 250.1 341.58 249.74C341.601 249.459 341.69 249.188 341.84 248.95C341.98 248.736 342.171 248.56 342.397 248.44C342.622 248.319 342.874 248.257 343.13 248.26C343.415 248.257 343.695 248.191 343.952 248.067C344.208 247.943 344.434 247.763 344.612 247.541C344.791 247.32 344.919 247.061 344.986 246.784C345.053 246.507 345.058 246.219 345 245.94ZM328.47 220.07C328.46 220.183 328.46 220.297 328.47 220.41C328.54 220.72 328.57 221.04 328.66 221.36C328.75 221.04 328.79 220.72 328.86 220.41C328.77 220.27 328.63 220.17 328.49 220.07H328.47ZM362 259.2C361.648 259.192 361.314 259.044 361.07 258.79C360.794 258.517 360.445 258.33 360.065 258.252C359.685 258.174 359.291 258.208 358.93 258.35C358.593 258.491 358.305 258.728 358.1 259.03C357.92 259.31 357.72 259.56 357.56 259.85C357.85 259.69 358.1 259.49 358.38 259.31C358.589 259.123 358.845 258.995 359.12 258.94C359.37 258.885 359.63 258.894 359.875 258.968C360.12 259.041 360.342 259.176 360.52 259.36C360.773 259.6 361.084 259.769 361.423 259.852C361.761 259.934 362.115 259.927 362.45 259.83L362 259.2ZM329.44 235.75C329.157 235.725 328.884 235.636 328.64 235.49C328.427 235.35 328.253 235.158 328.134 234.933C328.015 234.707 327.955 234.455 327.96 234.2C327.949 233.81 327.823 233.431 327.599 233.111C327.375 232.792 327.063 232.544 326.7 232.4C326.356 232.28 325.986 232.255 325.63 232.33C325.31 232.4 324.99 232.44 324.63 232.53C324.95 232.61 325.27 232.65 325.63 232.72C325.914 232.739 326.191 232.821 326.44 232.96C326.657 233.09 326.838 233.273 326.966 233.491C327.093 233.71 327.164 233.957 327.17 234.21C327.171 234.599 327.284 234.979 327.497 235.304C327.711 235.629 328.014 235.885 328.37 236.04C328.71 236.176 329.081 236.21 329.44 236.14C329.75 236.07 330.07 236.04 330.39 235.95C330.1 235.86 329.78 235.82 329.47 235.75H329.44ZM351.08 268.66C350.798 268.636 350.527 268.544 350.29 268.39C350.074 268.252 349.897 268.061 349.776 267.836C349.655 267.61 349.594 267.356 349.6 267.1C349.599 266.815 349.535 266.533 349.411 266.277C349.287 266.02 349.107 265.794 348.885 265.615C348.662 265.437 348.403 265.311 348.125 265.246C347.847 265.181 347.559 265.179 347.28 265.24C346.96 265.31 346.64 265.34 346.28 265.43C346.6 265.52 346.92 265.56 347.28 265.63C347.562 265.644 347.837 265.727 348.08 265.87C348.3 265.997 348.483 266.179 348.611 266.398C348.739 266.617 348.807 266.866 348.81 267.12C348.813 267.507 348.927 267.885 349.14 268.208C349.353 268.531 349.655 268.785 350.01 268.94C350.347 269.084 350.72 269.122 351.08 269.05C351.4 268.98 351.72 268.94 352.08 268.85C351.75 268.76 351.43 268.72 351.11 268.66H351.08Z" fill="white"/>
<path d="M326.88 271.68C326.62 271.68 324.97 271.39 324.96 271.39C324.84 270.78 322.16 261.07 321.45 258.96C320.02 254.65 318.33 250.42 316.7 246.19C316.686 246.168 316.664 246.152 316.64 246.143C316.615 246.134 316.588 246.134 316.564 246.142C316.539 246.15 316.517 246.166 316.502 246.187C316.487 246.208 316.479 246.234 316.48 246.26C317.54 249.9 318.54 253.56 319.63 257.2C319.3 256.68 318.98 256.2 318.63 255.64C318 254.56 317.44 253.44 316.85 252.34C316.837 252.32 316.817 252.306 316.795 252.3C316.772 252.293 316.748 252.295 316.726 252.304C316.705 252.314 316.688 252.331 316.677 252.352C316.667 252.373 316.664 252.397 316.67 252.42C317.174 253.945 317.869 255.4 318.74 256.75C319.115 257.328 319.526 257.883 319.97 258.41L320.24 259.32C320.91 261.44 324.35 271.95 324.53 271.96H326.8C327 272 327 271.68 326.88 271.68Z" fill="#263238"/>
<path d="M364.37 264.29C354.23 263.53 344.01 263.48 333.83 263.64C330.943 263.68 328.06 263.79 325.18 263.97C325.167 263.975 325.156 263.984 325.148 263.996C325.14 264.007 325.136 264.021 325.136 264.035C325.136 264.049 325.14 264.063 325.148 264.074C325.156 264.086 325.167 264.095 325.18 264.1C330.26 264.37 335.34 264.43 340.43 264.53C345.52 264.63 350.63 264.67 355.73 264.62C358.61 264.62 361.49 264.57 364.37 264.48C364.39 264.473 364.407 264.461 364.42 264.444C364.432 264.427 364.439 264.406 364.439 264.385C364.439 264.364 364.432 264.343 364.42 264.326C364.407 264.309 364.39 264.297 364.37 264.29Z" fill="#263238"/>
<path d="M201.48 354.66H208.66V349.97H201.48V354.66Z" fill="#455A64"/>
<path d="M192.17 354.35H199.35V349.66H192.17V354.35Z" fill="#455A64"/>
<path d="M182.85 354.04H190.03V349.35H182.85V354.04Z" fill="#455A64"/>
<path d="M173.54 353.73H180.72V349.04H173.54V353.73Z" fill="#455A64"/>
<path d="M164.22 353.42H171.4V348.73H164.22V353.42Z" fill="#455A64"/>
<path d="M154.91 353.11H162.09V348.42H154.91V353.11Z" fill="#455A64"/>
<path d="M145.59 352.8H152.77V348.11H145.59V352.8Z" fill="#455A64"/>
<path d="M136.28 352.49H143.46V347.8H136.28V352.49Z" fill="#455A64"/>
<path d="M126.96 352.18H134.14V347.49H126.96V352.18Z" fill="#455A64"/>
<path d="M125.2 357.36H210.42V351.66L125.2 349.28V357.36Z" fill="#37474F"/>
<path d="M42.0299 334.86H182.71L160.34 230.12H19.6499L42.0299 334.86Z" fill="#455A64"/>
<path d="M36.82 334.86H177.51L155.13 230.12H14.45L36.82 334.86Z" fill="#37474F"/>
<path d="M83.8199 276.42C84.2494 278.805 85.4848 280.971 87.3197 282.555C89.1545 284.138 91.4774 285.044 93.8999 285.12C94.9937 285.155 96.081 284.941 97.0803 284.495C98.0796 284.049 98.9648 283.382 99.6693 282.545C100.374 281.707 100.879 280.721 101.148 279.66C101.417 278.6 101.441 277.492 101.22 276.42C100.785 274.037 99.5483 271.875 97.7145 270.292C95.8808 268.709 93.5608 267.802 91.1399 267.72C90.0461 267.685 88.9587 267.899 87.9595 268.345C86.9602 268.791 86.075 269.458 85.3705 270.295C84.6659 271.133 84.1604 272.119 83.8918 273.18C83.6233 274.24 83.5987 275.348 83.8199 276.42Z" fill="#263238"/>
<path d="M76.61 362.21H145.8V356.84L76.61 354.6V362.21Z" fill="#455A64"/>
<path d="M57.7999 362.2H94.9499L117.32 303.52H80.1699L57.7999 362.2Z" fill="#455A64"/>
<path d="M51.6799 362.2H88.8299L111.21 303.52H74.0599L51.6799 362.2Z" fill="#263238"/>
<path d="M213.05 363.64H284.39C290.48 363.64 281.67 346.31 259.45 339.64C237.23 332.97 206 357.14 213.05 363.64Z" fill="#37474F"/>
<path d="M241.05 363.64C240.599 361.75 240.021 359.892 239.32 358.08C238.627 356.29 237.78 354.564 236.79 352.92C235.817 351.271 234.656 349.741 233.33 348.36L232.33 347.36L231.22 346.43C230.52 345.75 229.65 345.31 228.88 344.69C230.716 345.434 232.408 346.493 233.88 347.82C235.368 349.15 236.643 350.702 237.66 352.42C238.675 354.128 239.484 355.951 240.07 357.85C240.647 359.729 240.977 361.676 241.05 363.64Z" fill="#263238"/>
<path d="M232.59 347.15C231.59 347.67 230.64 348.15 229.68 348.72C228.72 349.29 227.75 349.79 226.81 350.35C224.93 351.48 223.06 352.62 221.29 353.9C219.492 355.132 217.818 356.535 216.29 358.09C215.532 358.864 214.862 359.72 214.29 360.64C213.692 361.558 213.259 362.573 213.01 363.64C213.074 362.517 213.363 361.419 213.86 360.41C214.368 359.402 214.985 358.453 215.7 357.58C217.164 355.869 218.845 354.356 220.7 353.08C224.354 350.543 228.356 348.545 232.58 347.15H232.59Z" fill="#263238"/>
<path d="M346.99 322.13L342.75 375.37H313.47L309.23 322.13H346.99Z" fill="#038C7F"/>
<path opacity="0.1" d="M346.99 322.13L342.75 375.37H313.47L309.23 322.13H346.99Z" fill="black"/>
<path d="M349.51 317.33H306.46V325.09H349.51V317.33Z" fill="#455A64"/>
<path d="M346.56 317.33H309.41L311.58 308.61H344.39L346.56 317.33Z" fill="#37474F"/>
<path d="M338.28 349.22C338.28 356.13 333.73 361.73 328.11 361.73C322.49 361.73 317.94 356.13 317.94 349.22C317.94 342.31 322.5 336.7 328.11 336.7C333.72 336.7 338.28 342.31 338.28 349.22Z" fill="white"/>
<path d="M224.412 229.6C224.412 231.472 223.932 232.912 222.972 233.92C222.012 234.904 220.656 235.396 218.904 235.396C217.152 235.396 215.796 234.904 214.836 233.92C213.876 232.912 213.396 231.472 213.396 229.6V228.124H216.348V229.744C216.348 230.704 216.564 231.448 216.996 231.976C217.452 232.48 218.088 232.732 218.904 232.732C219.744 232.732 220.38 232.48 220.812 231.976C221.268 231.448 221.496 230.704 221.496 229.744V212.32H224.412V229.6Z" fill="#EBEBEB"/>
</svg>
