<svg width="57" height="57" viewBox="0 0 57 57" fill="none" xmlns="http://www.w3.org/2000/svg">
<path fill-rule="evenodd" clip-rule="evenodd" d="M51.2662 7.84645H33.2221V3.5946L3.5625 8.17242V48.2986L33.2221 53.4073V47.1052H51.2662C51.8126 47.1329 52.3478 46.9431 52.7547 46.5772C53.1616 46.2114 53.4071 45.6993 53.4375 45.153V9.79692C53.4067 9.2509 53.161 8.73927 52.7541 8.37381C52.3473 8.00834 51.8123 7.81875 51.2662 7.84645ZM51.5512 45.4771H33.1615L33.1313 42.1124H37.5612V38.1936H33.0974L33.076 35.878H37.5612V31.9592H33.0422L33.0208 29.6436H37.5612V25.7249H33.0066V23.4092H37.5612V19.4905H33.0066V17.1749H37.5612V13.2561H33.0066V9.6936H51.5512V45.4771Z" fill="white"/>
<path d="M40.0549 13.2507H47.7553V17.1695H40.0549V13.2507ZM40.0549 19.4869H47.7553V23.4056H40.0549V19.4869ZM40.0549 25.723H47.7553V29.6418H40.0549V25.723ZM40.0549 31.9592H47.7553V35.878H40.0549V31.9592ZM40.0549 38.1954H47.7553V42.1141H40.0549V38.1954Z" fill="white"/>
<path fill-rule="evenodd" clip-rule="evenodd" d="M11.3055 19.0113L15.1281 18.7922L17.531 25.3988L20.3703 18.5196L24.1929 18.3005L19.5509 27.6806L24.1929 37.0838L20.1512 36.8113L17.4223 29.6435L14.6917 36.5388L10.9778 36.211L15.292 27.905L11.3055 19.0113Z" fill="#BDBDBD"/>
</svg>
