<svg width="49" height="49" viewBox="0 0 49 49" fill="none" xmlns="http://www.w3.org/2000/svg">
<path d="M9.5 47.75H39.25M15.3586 11.1086L19.8679 15.6179M19.8679 15.6179C21.0634 14.4223 22.6842 13.75 24.375 13.75M19.8679 15.6179C18.6723 16.8134 18 18.4342 18 20.125M18 20.125H11.625M18 20.125C18 21.8158 18.6723 23.4366 19.8679 24.6321M19.8679 24.6321L15.3586 29.1414M19.8679 24.6321C21.0634 25.8277 22.6842 26.5 24.375 26.5M24.375 26.5V32.875M24.375 26.5C26.0658 26.5 27.6866 25.8277 28.8821 24.6321M28.8821 24.6321L33.3914 29.1414M28.8821 24.6321C30.0777 23.4366 30.75 21.8158 30.75 20.125M37.125 20.125H30.75M30.75 20.125C30.75 18.4342 30.0777 16.8134 28.8821 15.6179M33.3914 11.1086L28.8821 15.6179M28.8821 15.6179C27.6866 14.4223 26.0658 13.75 24.375 13.75M24.375 13.75V7.375M1 39.25H47.75V1H1V39.25ZM15.875 47.75H32.875V39.25H15.875V47.75Z" stroke="white" stroke-width="2"/>
</svg>
