<svg width="451" height="372" viewBox="0 0 451 372" fill="none" xmlns="http://www.w3.org/2000/svg">
<path d="M439.897 211.593H283.23V1.35815H439.897V211.593ZM287.445 207.74H435.682V5.21108H287.445V207.74Z" fill="#EBEBEB"/>
<path d="M363.613 6.22247H359.398V209.667H363.613V6.22247Z" fill="#EBEBEB"/>
<path d="M443.721 9.1507H279.406V14.5159H443.721V9.1507Z" fill="#EBEBEB"/>
<path d="M443.721 15.1805H279.406V20.5457H443.721V15.1805Z" fill="#EBEBEB"/>
<path d="M443.721 21.22H279.406V26.5852H443.721V21.22Z" fill="#EBEBEB"/>
<path d="M443.721 27.2594H279.406V32.6246H443.721V27.2594Z" fill="#EBEBEB"/>
<path d="M443.721 33.2893H279.406V38.6545H443.721V33.2893Z" fill="#EBEBEB"/>
<path d="M443.721 39.3288H279.406V44.6939H443.721V39.3288Z" fill="#EBEBEB"/>
<path d="M443.721 45.3682H279.406V50.7334H443.721V45.3682Z" fill="#EBEBEB"/>
<path d="M443.721 51.398H279.406V56.7632H443.721V51.398Z" fill="#EBEBEB"/>
<path d="M443.721 57.4375H279.406V62.8027H443.721V57.4375Z" fill="#EBEBEB"/>
<path d="M431.204 8.06226H430.15V131.732H431.204V8.06226Z" fill="#263238"/>
<path d="M432.542 136.211H428.802L429.75 131.298H431.615L432.542 136.211Z" fill="#263238"/>
<path d="M434.997 8.06226H433.943V177.331H434.997V8.06226Z" fill="#263238"/>
<path d="M436.346 180.943H432.605L433.543 176.031H435.408L436.346 180.943Z" fill="#263238"/>
<path d="M450.254 0.606842H272.862V11.8285H450.254V0.606842Z" fill="#DBDBDB"/>
<path d="M26.615 110.791C26.615 109.982 26.7309 107.834 26.7309 106.938C26.7309 103.018 25.2031 101.255 21.2098 101.159C20.8252 101.18 20.4398 101.129 20.0774 101.01C19.715 100.89 19.3833 100.704 19.1026 100.462C18.8219 100.221 18.5983 99.9295 18.4454 99.6061C18.2925 99.2828 18.2136 98.9342 18.2136 98.5819C18.2136 98.2297 18.2925 97.8811 18.4454 97.5578C18.5983 97.2344 18.8219 96.9431 19.1026 96.7017C19.3833 96.4603 19.715 96.274 20.0774 96.1542C20.4398 96.0345 20.8252 95.9838 21.2098 96.0053C25.2031 95.8512 26.7309 94.127 26.7309 90.1585C26.7309 89.1953 26.615 87.0954 26.615 86.3056C26.615 81.1041 29.0278 77.7713 38.1313 75.9508C38.7559 75.8036 39.4183 75.8792 39.9841 76.1622C40.55 76.4453 40.9768 76.9145 41.1779 77.4748C41.3791 78.035 41.3395 78.6442 41.0672 79.1787C40.7949 79.7132 40.3103 80.133 39.7118 80.3528C34.0116 81.9614 33.1897 83.6278 33.1897 87.2784C33.1897 88.3476 33.3162 90.12 33.3162 91.2469C33.3162 95.437 31.0824 97.479 27.205 98.606C31.1351 99.7812 33.3162 101.775 33.3162 105.955C33.3162 107.092 33.1897 108.845 33.1897 109.934C33.1897 113.584 34.0116 115.251 39.7118 116.859C40.3103 117.079 40.7949 117.499 41.0672 118.033C41.3395 118.568 41.3791 119.177 41.1779 119.737C40.9768 120.298 40.55 120.767 39.9841 121.05C39.4183 121.333 38.7559 121.408 38.1313 121.261C29.0173 119.383 26.615 116.041 26.615 110.791Z" fill="#EBEBEB"/>
<path d="M61.0166 86.2478C61.0166 87.0569 60.9007 89.2049 60.9007 90.1007C60.9007 94.0692 62.4917 95.7934 66.4851 95.9475C66.8697 95.926 67.2551 95.9767 67.6175 96.0964C67.9798 96.2162 68.3116 96.4025 68.5923 96.6439C68.8729 96.8852 69.0966 97.1766 69.2495 97.4999C69.4024 97.8233 69.4812 98.1719 69.4812 98.5241C69.4812 98.8764 69.4024 99.225 69.2495 99.5483C69.0966 99.8717 68.8729 100.163 68.5923 100.404C68.3116 100.646 67.9798 100.832 67.6175 100.952C67.2551 101.072 66.8697 101.122 66.4851 101.101C62.4917 101.216 60.9007 103.027 60.9007 106.88C60.9007 107.795 61.0166 109.943 61.0166 110.733C61.0166 115.992 58.6143 119.325 49.5109 121.146C48.8828 121.298 48.2148 121.224 47.6452 120.938C47.0756 120.652 46.6483 120.177 46.4518 119.61C46.2553 119.044 46.3047 118.431 46.5898 117.897C46.8749 117.363 47.3738 116.95 47.9831 116.744C53.6201 115.135 54.4419 113.469 54.4419 109.818C54.4419 108.739 54.326 106.976 54.326 105.84C54.326 101.659 56.5597 99.6174 60.4371 98.4904C56.4965 97.3056 54.326 95.3214 54.326 91.1313C54.326 90.0044 54.4419 88.2416 54.4419 87.1628C54.4419 83.5122 53.6201 81.8458 47.9831 80.2372C47.3738 80.0307 46.8749 79.6178 46.5898 79.084C46.3047 78.5502 46.2553 77.9366 46.4518 77.3705C46.6483 76.8043 47.0756 76.329 47.6452 76.0431C48.2148 75.7573 48.8828 75.6828 49.5109 75.8352C58.6143 77.7135 61.0166 81.0463 61.0166 86.2478Z" fill="#EBEBEB"/>
<path d="M182.122 35.8515C182.609 36.2892 182.942 36.8491 183.08 37.4601C183.217 38.0711 183.153 38.7058 182.896 39.2836C182.639 39.8614 182.2 40.3563 181.634 40.7056C181.069 41.0549 180.402 41.2429 179.72 41.2456C178.786 41.2529 177.885 40.9322 177.202 40.3498L161.84 26.1036C161.671 26.1036 161.618 25.9495 161.566 25.805C161.514 25.7643 161.457 25.7287 161.397 25.699C161.322 25.576 161.268 25.4427 161.239 25.3041C161.196 25.2844 161.158 25.2559 161.129 25.2208C161.1 25.1858 161.08 25.1451 161.071 25.1018C161.018 25.0055 161.018 24.8514 160.965 24.8032C160.913 24.7551 160.86 24.6009 160.86 24.5528V24.206C160.86 24.1001 160.797 24.0519 160.797 23.9074C160.797 23.7629 160.86 23.7051 160.86 23.657V23.3006C160.86 23.2043 160.965 23.1561 160.965 23.1079C160.965 23.0598 161.018 22.8575 161.071 22.7034C161.123 22.5493 161.134 22.7034 161.134 22.6071C161.208 22.45 161.296 22.2986 161.397 22.1543C161.397 22.1408 161.4 22.1275 161.406 22.1151C161.412 22.1027 161.421 22.0917 161.432 22.0826C161.443 22.0735 161.456 22.0666 161.47 22.0624C161.484 22.0582 161.498 22.0567 161.513 22.058C161.586 21.915 161.698 21.7921 161.84 21.7016L177.202 7.46505C177.864 6.88626 178.746 6.56328 179.662 6.56328C180.579 6.56328 181.46 6.88626 182.122 7.46505C182.446 7.76027 182.702 8.11088 182.877 8.4968C183.052 8.88273 183.142 9.29641 183.142 9.7142C183.142 10.132 183.052 10.5457 182.877 10.9316C182.702 11.3175 182.446 11.6681 182.122 11.9633L169.163 23.9074L182.122 35.8515Z" fill="#EBEBEB"/>
<path d="M196.062 37.4504L209.454 8.3127C209.774 7.63661 210.374 7.10392 211.122 6.8313C211.871 6.55868 212.707 6.56836 213.447 6.85821C214.164 7.14566 214.727 7.68098 215.014 8.34707C215.3 9.01316 215.286 9.75579 214.975 10.4125L201.583 39.5984C201.344 40.0915 200.952 40.5099 200.456 40.8025C199.96 41.095 199.381 41.249 198.791 41.2456C198.428 41.2487 198.069 41.1797 197.738 41.0433C197.363 40.9153 197.022 40.7191 196.733 40.4667C196.444 40.2143 196.214 39.911 196.058 39.575C195.901 39.239 195.821 38.8775 195.822 38.5123C195.822 38.1471 195.904 37.7859 196.062 37.4504Z" fill="#EBEBEB"/>
<path d="M241.432 25.699C241.432 25.699 241.432 25.7568 241.379 25.7568C241.261 25.8795 241.134 25.9953 241 26.1036L225.638 40.3498C224.974 40.9284 224.09 41.2494 223.172 41.2456C222.258 41.251 221.377 40.9295 220.717 40.3498C220.392 40.0559 220.133 39.7057 219.956 39.3196C219.78 38.9335 219.689 38.5191 219.689 38.1006C219.689 37.6821 219.78 37.2678 219.956 36.8817C220.133 36.4956 220.392 36.1454 220.717 35.8515L233.667 23.9074L220.717 12.0115C220.392 11.7176 220.133 11.3674 219.956 10.9813C219.78 10.5952 219.689 10.1809 219.689 9.76236C219.689 9.34385 219.78 8.92951 219.956 8.54341C220.133 8.1573 220.392 7.80713 220.717 7.51321C221.38 6.93442 222.261 6.61143 223.178 6.61143C224.094 6.61143 224.975 6.93442 225.638 7.51321L241 21.7498C241.137 21.8587 241.264 21.9779 241.379 22.1062C241.432 22.1062 241.432 22.2025 241.432 22.2025C241.532 22.3487 241.624 22.4998 241.706 22.6552C241.706 22.6552 241.759 22.6552 241.759 22.7515C241.794 22.9083 241.851 23.0603 241.927 23.2043C241.927 23.2524 241.927 23.2524 241.927 23.3487V23.7051C241.927 23.7051 241.98 23.8978 241.98 23.9556C241.98 24.0134 241.927 24.1482 241.927 24.206V24.5335C241.927 24.5335 241.927 24.5335 241.927 24.6298C241.86 24.7771 241.804 24.9284 241.759 25.0826C241.759 25.0826 241.706 25.0826 241.706 25.2367C241.706 25.3908 241.559 25.4967 241.432 25.699Z" fill="#EBEBEB"/>
<path d="M220.486 372C337.764 372 432.837 365.074 432.837 356.53C432.837 347.987 337.764 341.061 220.486 341.061C103.207 341.061 8.13416 347.987 8.13416 356.53C8.13416 365.074 103.207 372 220.486 372Z" fill="#EBEBEB"/>
<path d="M420.72 337.805H293.103L318.548 202.491H413.977L420.72 337.805Z" fill="#DBDBDB"/>
<path d="M420.72 337.805H409.531L403.251 202.491H413.977L420.72 337.805Z" fill="#A6A6A6"/>
<path d="M0 337.805L55.1267 337.574L110.243 337.487L220.486 337.324L330.729 337.487L385.845 337.574L440.971 337.805L385.845 338.046L330.729 338.123L220.486 338.287L110.243 338.123L55.1267 338.046L0 337.805Z" fill="#263238"/>
<path d="M119.799 0.606842H15.0881V61.6757H119.799V0.606842Z" fill="white"/>
<path d="M120.453 62.2729H14.4243V0H120.453V62.2729ZM15.7414 61.0689H119.136V1.21367H15.7414V61.0689Z" fill="#EBEBEB"/>
<path d="M119.799 0.606842H15.0881V12.156H119.799V0.606842Z" fill="#038C7F"/>
<path d="M120.453 12.7628H14.4243V0H120.453V12.7628ZM15.7414 11.5491H119.136V1.21367H15.7414V11.5491Z" fill="#EBEBEB"/>
<path d="M26.9416 6.46329C26.9416 7.03482 26.7562 7.5935 26.4089 8.06871C26.0616 8.54392 25.5679 8.9143 24.9903 9.13301C24.4127 9.35173 23.7772 9.40896 23.164 9.29746C22.5509 9.18596 21.9876 8.91074 21.5456 8.50661C21.1035 8.10248 20.8025 7.58758 20.6805 7.02704C20.5585 6.46649 20.6211 5.88547 20.8604 5.35745C21.0996 4.82942 21.5048 4.37812 22.0246 4.06059C22.5444 3.74307 23.1555 3.57359 23.7807 3.57359C24.619 3.57359 25.423 3.87804 26.0158 4.41996C26.6086 4.96189 26.9416 5.69689 26.9416 6.46329Z" fill="#A6A6A6"/>
<path d="M39.9225 6.46329C39.9225 7.03482 39.7371 7.5935 39.3897 8.06871C39.0424 8.54392 38.5487 8.9143 37.9712 9.13301C37.3936 9.35173 36.758 9.40896 36.1449 9.29746C35.5317 9.18596 34.9685 8.91074 34.5264 8.50661C34.0843 8.10248 33.7833 7.58758 33.6613 7.02704C33.5394 6.46649 33.602 5.88547 33.8412 5.35745C34.0804 4.82942 34.4856 4.37812 35.0054 4.06059C35.5252 3.74307 36.1363 3.57359 36.7615 3.57359C37.5998 3.57359 38.4038 3.87804 38.9966 4.41996C39.5894 4.96189 39.9225 5.69689 39.9225 6.46329Z" fill="#EBEBEB"/>
<path d="M52.9561 6.46329C52.9561 7.03482 52.7708 7.5935 52.4234 8.06871C52.0761 8.54392 51.5824 8.9143 51.0048 9.13301C50.4273 9.35173 49.7917 9.40896 49.1785 9.29746C48.5654 9.18596 48.0022 8.91074 47.5601 8.50661C47.118 8.10248 46.817 7.58758 46.695 7.02704C46.5731 6.46649 46.6356 5.88547 46.8749 5.35745C47.1141 4.82942 47.5193 4.37812 48.0391 4.06059C48.5589 3.74307 49.17 3.57359 49.7952 3.57359C50.6335 3.57359 51.4375 3.87804 52.0303 4.41996C52.6231 4.96189 52.9561 5.69689 52.9561 6.46329Z" fill="white"/>
<path d="M33.1581 34.9846C33.2297 31.8978 34.6208 28.9595 37.0333 26.799C39.4459 24.6385 42.688 23.4276 46.0652 23.4258C49.0077 23.4096 51.8713 24.2947 54.1994 25.9398C54.5408 26.26 54.7437 26.6824 54.7707 27.1289C54.7976 27.5754 54.6467 28.0156 54.3459 28.3682C54.0451 28.7208 53.6147 28.9618 53.1345 29.0466C52.6542 29.1314 52.1567 29.0543 51.7338 28.8295C50.1319 27.6463 48.1242 27.0186 46.0652 27.0572C43.7153 27.0755 41.4588 27.9007 39.7434 29.3689C38.9288 30.1033 38.2806 30.9773 37.8358 31.9408C37.3911 32.9044 37.1585 33.9387 37.1514 34.9846C37.1492 36.0271 37.3756 37.0595 37.8171 38.0207C38.2587 38.9819 38.9065 39.8525 39.7223 40.5809C41.4339 42.056 43.692 42.8852 46.0442 42.9023C48.1015 42.9311 50.1056 42.3045 51.7128 41.13C52.1459 40.8581 52.6745 40.7439 53.1949 40.8098C53.7153 40.8758 54.1901 41.117 54.526 41.4864C54.8283 41.8778 54.9601 42.3582 54.8959 42.8337C54.8316 43.3093 54.5757 43.7458 54.1783 44.0582C51.8502 45.7034 48.9866 46.5884 46.0442 46.5722C42.6611 46.5776 39.4119 45.3646 37.0001 43.1958C34.5882 41.027 33.2079 38.077 33.1581 34.9846Z" fill="#EBEBEB"/>
<path d="M60.5949 40.9759C60.9033 40.6349 61.3467 40.4193 61.8283 40.376C62.3099 40.3327 62.7907 40.4652 63.1658 40.7447C65.0544 42.2133 67.4133 43.082 69.8881 43.2202C71.4511 43.248 72.9854 42.8342 74.2818 42.0354C74.7226 41.7909 75.0913 41.4516 75.3558 41.047C75.6202 40.6424 75.7724 40.1848 75.799 39.714C75.8059 39.3497 75.696 38.9914 75.4829 38.6834C75.212 38.2965 74.8525 37.9678 74.4293 37.7201C72.9375 36.9539 71.3061 36.4415 69.6141 36.2079H69.5404C67.9786 35.9661 66.4564 35.5453 65.0097 34.9557C63.6757 34.4278 62.5376 33.5579 61.7329 32.4513C61.1977 31.6582 60.9166 30.7438 60.9216 29.812C60.9584 28.8825 61.2319 27.9736 61.7203 27.1577C62.2086 26.3417 62.8984 25.6411 63.7348 25.1114C65.5184 23.9797 67.6433 23.3838 69.8143 23.4065C72.599 23.5333 75.275 24.4339 77.4849 25.988C77.8791 26.2326 78.1521 26.6093 78.2448 27.0365C78.3374 27.4638 78.2424 27.9072 77.9801 28.2708C77.8529 28.4546 77.6867 28.6133 77.4914 28.7374C77.2961 28.8616 77.0755 28.9486 76.8427 28.9935C76.6099 29.0384 76.3697 29.0402 76.1361 28.9988C75.9026 28.9574 75.6805 28.8736 75.4829 28.7525C73.6812 27.6544 71.9638 26.6911 69.8143 26.6911C68.4092 26.6722 67.0323 27.0525 65.8737 27.7796C65.4911 27.997 65.171 28.2949 64.94 28.6485C64.7091 29.002 64.574 29.401 64.5461 29.812C64.526 30.1274 64.6144 30.4407 64.799 30.7078C65.0471 31.045 65.3702 31.3306 65.7473 31.5458C67.0966 32.2757 68.5893 32.7567 70.141 32.9618H70.2147C71.8878 33.2289 73.519 33.6817 75.072 34.3103C76.4956 34.8807 77.7125 35.8094 78.5806 36.9881C79.1399 37.8053 79.4357 38.7501 79.4341 39.714C79.3997 40.7066 79.1064 41.6772 78.5785 42.5451C78.0507 43.413 77.3037 44.1531 76.3996 44.7036C74.4992 45.9274 72.2229 46.5682 69.8986 46.5337C66.5908 46.3948 63.4249 45.2642 60.89 43.3165C60.5184 43.0375 60.28 42.6374 60.225 42.2007C60.1699 41.764 60.3026 41.3249 60.5949 40.9759Z" fill="#EBEBEB"/>
<path d="M83.7121 40.9759C84.0205 40.6349 84.4638 40.4193 84.9454 40.376C85.427 40.3327 85.9078 40.4652 86.283 40.7447C88.1663 42.215 90.5226 43.084 92.9947 43.2202C94.561 43.2481 96.0988 42.8344 97.3989 42.0354C97.8378 41.7898 98.2044 41.45 98.467 41.0454C98.7296 40.6409 98.8802 40.1839 98.9057 39.714C98.9125 39.3496 98.8026 38.9914 98.5896 38.6834C98.3199 38.2955 97.9602 37.9666 97.5359 37.7201C96.0434 36.9554 94.4122 36.4431 92.7208 36.2079H92.647C91.0822 35.9647 89.5567 35.544 88.1058 34.9557C86.7747 34.4277 85.64 33.5576 84.8395 32.4513C84.3043 31.6582 84.0232 30.7438 84.0282 29.812C84.0626 28.882 84.335 27.9723 84.8236 27.156C85.3121 26.3397 86.0033 25.6394 86.8414 25.1114C88.628 23.9778 90.7569 23.3818 92.9315 23.4065C95.7153 23.5369 98.3902 24.4371 100.602 25.988C100.995 26.2341 101.265 26.6115 101.356 27.0386C101.447 27.4657 101.35 27.9084 101.087 28.2708C100.96 28.4546 100.793 28.6133 100.598 28.7374C100.403 28.8615 100.182 28.9486 99.9493 28.9935C99.7166 29.0384 99.4763 29.0402 99.2428 28.9988C99.0092 28.9574 98.7871 28.8736 98.5896 28.7524C96.7984 27.6544 95.0704 26.6911 92.9315 26.6911C91.5261 26.6702 90.1485 27.0507 88.9909 27.7796C88.6063 27.9959 88.2841 28.2933 88.0513 28.647C87.8185 29.0006 87.6818 29.4001 87.6527 29.812C87.6348 30.1259 87.7192 30.4377 87.8951 30.7078C88.149 31.0405 88.471 31.3251 88.8433 31.5458C90.1966 32.2755 91.6927 32.7565 93.2476 32.9618H93.3108C94.9847 33.226 96.6162 33.679 98.1681 34.3103C99.5946 34.8806 100.815 35.8091 101.687 36.9881C102.239 37.8079 102.53 38.7516 102.53 39.714C102.498 40.7059 102.206 41.6763 101.68 42.5442C101.154 43.4122 100.409 44.1526 99.5062 44.7036C97.6013 45.9263 95.3221 46.5669 92.9947 46.5337C89.6878 46.3905 86.5234 45.2604 83.986 43.3165C83.62 43.0334 83.3873 42.6322 83.3363 42.1963C83.2853 41.7605 83.4199 41.3234 83.7121 40.9759Z" fill="#EBEBEB"/>
<path d="M292.745 175.318H188.033V236.387H292.745V175.318Z" fill="white"/>
<path d="M293.408 236.993H187.37V174.711H293.408V236.993ZM188.697 235.78H292.134V175.925H188.697V235.78Z" fill="#EBEBEB"/>
<path d="M292.745 175.318H188.033V186.867H292.745V175.318Z" fill="#038C7F"/>
<path d="M293.408 187.474H187.37V174.711H293.408V187.474ZM188.697 186.26H292.134V175.925H188.697V186.26Z" fill="#EBEBEB"/>
<path d="M199.898 181.174C199.898 181.746 199.712 182.304 199.365 182.78C199.018 183.255 198.524 183.625 197.946 183.844C197.369 184.063 196.733 184.12 196.12 184.008C195.507 183.897 194.944 183.622 194.502 183.218C194.059 182.813 193.758 182.299 193.636 181.738C193.514 181.177 193.577 180.596 193.816 180.068C194.056 179.54 194.461 179.089 194.981 178.772C195.5 178.454 196.111 178.285 196.737 178.285C197.575 178.285 198.379 178.589 198.972 179.131C199.565 179.673 199.898 180.408 199.898 181.174Z" fill="#A6A6A6"/>
<path d="M212.878 181.174C212.878 181.746 212.693 182.304 212.346 182.78C211.998 183.255 211.505 183.625 210.927 183.844C210.349 184.063 209.714 184.12 209.101 184.008C208.488 183.897 207.924 183.622 207.482 183.218C207.04 182.813 206.739 182.299 206.617 181.738C206.495 181.177 206.558 180.596 206.797 180.068C207.036 179.54 207.441 179.089 207.961 178.772C208.481 178.454 209.092 178.285 209.717 178.285C210.556 178.285 211.36 178.589 211.952 179.131C212.545 179.673 212.878 180.408 212.878 181.174Z" fill="#EBEBEB"/>
<path d="M225.859 181.174C225.859 181.746 225.674 182.304 225.326 182.78C224.979 183.255 224.485 183.625 223.908 183.844C223.33 184.063 222.695 184.12 222.082 184.008C221.468 183.897 220.905 183.622 220.463 183.218C220.021 182.813 219.72 182.299 219.598 181.738C219.476 181.177 219.539 180.596 219.778 180.068C220.017 179.54 220.422 179.089 220.942 178.772C221.462 178.454 222.073 178.285 222.698 178.285C223.537 178.285 224.34 178.589 224.933 179.131C225.526 179.673 225.859 180.408 225.859 181.174Z" fill="white"/>
<path d="M243.908 57.9865H69.2771V189.092H243.908V57.9865Z" fill="white"/>
<path d="M244.572 189.708H68.6133V57.3893H244.572V189.708ZM69.9409 188.495H243.244V58.5934H69.9409V188.495Z" fill="#EBEBEB"/>
<path d="M243.908 57.9865H69.2771V69.5357H243.908V57.9865Z" fill="#038C7F"/>
<path d="M244.572 70.1425H68.6133V57.3893H244.572V70.1425ZM69.9409 68.9289H243.244V58.5934H69.9409V68.9289Z" fill="#EBEBEB"/>
<path d="M81.1306 63.8526C81.1306 64.4241 80.9452 64.9828 80.5979 65.458C80.2505 65.9333 79.7569 66.3036 79.1793 66.5223C78.6017 66.7411 77.9661 66.7983 77.353 66.6868C76.7398 66.5753 76.1766 66.3001 75.7345 65.8959C75.2925 65.4918 74.9914 64.9769 74.8695 64.4164C74.7475 63.8558 74.8101 63.2748 75.0493 62.7468C75.2886 62.2188 75.6937 61.7674 76.2135 61.4499C76.7333 61.1324 77.3445 60.9629 77.9696 60.9629C78.808 60.9629 79.612 61.2674 80.2048 61.8093C80.7976 62.3512 81.1306 63.0862 81.1306 63.8526Z" fill="#A6A6A6"/>
<path d="M94.1114 63.8526C94.1114 64.4241 93.926 64.9828 93.5787 65.458C93.2314 65.9333 92.7377 66.3036 92.1601 66.5223C91.5825 66.7411 90.947 66.7983 90.3338 66.6868C89.7207 66.5753 89.1574 66.3001 88.7154 65.8959C88.2733 65.4918 87.9723 64.9769 87.8503 64.4164C87.7283 63.8558 87.7909 63.2748 88.0302 62.7468C88.2694 62.2188 88.6746 61.7674 89.1944 61.4499C89.7142 61.1324 90.3253 60.9629 90.9505 60.9629C91.7888 60.9629 92.5928 61.2674 93.1856 61.8093C93.7784 62.3512 94.1114 63.0862 94.1114 63.8526Z" fill="#EBEBEB"/>
<path d="M107.103 63.8526C107.103 64.4241 106.917 64.9828 106.57 65.458C106.223 65.9333 105.729 66.3036 105.152 66.5223C104.574 66.7411 103.938 66.7983 103.325 66.6868C102.712 66.5753 102.149 66.3001 101.707 65.8959C101.265 65.4918 100.964 64.9769 100.842 64.4164C100.72 63.8558 100.782 63.2748 101.022 62.7468C101.261 62.2188 101.666 61.7674 102.186 61.4499C102.706 61.1324 103.317 60.9629 103.942 60.9629C104.78 60.9629 105.584 61.2674 106.177 61.8093C106.77 62.3512 107.103 63.0862 107.103 63.8526Z" fill="white"/>
<path d="M89.5808 92.5088H82.8269V94.7627H89.5808V92.5088Z" fill="#EBEBEB"/>
<path d="M171.976 92.5088H94.5013V94.7627H171.976V92.5088Z" fill="#EBEBEB"/>
<path d="M188.95 92.5088H176.127V94.7627H188.95V92.5088Z" fill="#038C7F"/>
<path d="M218.294 122.687H205.461V124.941H218.294V122.687Z" fill="#EBEBEB"/>
<path d="M213.922 92.5088H191.742V94.7627H213.922V92.5088Z" fill="#A6A6A6"/>
<path d="M96.3345 98.5482H89.5807V100.802H96.3345V98.5482Z" fill="#EBEBEB"/>
<path d="M151.925 98.5482H101.087V100.802H151.925V98.5482Z" fill="#A6A6A6"/>
<path d="M202.416 122.687H172.65V124.941H202.416V122.687Z" fill="#A6A6A6"/>
<path d="M143.064 116.657H94.5013V118.911H143.064V116.657Z" fill="#A6A6A6"/>
<path d="M135.151 104.578H101.087V106.832H135.151V104.578Z" fill="#038C7F"/>
<path d="M197.695 110.617H184.704V112.871H197.695V110.617Z" fill="#A6A6A6"/>
<path d="M193.333 104.578H138.934V106.832H193.333V104.578Z" fill="#A6A6A6"/>
<path d="M159.437 122.687H94.5013V124.941H159.437V122.687Z" fill="#038C7F"/>
<path d="M225.501 98.5482H190.309V100.802H225.501V98.5482Z" fill="#038C7F"/>
<path d="M187.517 98.5482H155.118V100.802H187.517V98.5482Z" fill="#EBEBEB"/>
<path d="M217.757 104.578H195.894V106.832H217.757V104.578Z" fill="#EBEBEB"/>
<path d="M96.3345 104.578H89.5807V106.832H96.3345V104.578Z" fill="#EBEBEB"/>
<path d="M89.5808 110.617H82.8269V112.871H89.5808V110.617Z" fill="#A6A6A6"/>
<path d="M134.413 110.617H94.5013V112.871H134.413V110.617Z" fill="#EBEBEB"/>
<path d="M140.999 128.726H101.087V130.98H140.999V128.726Z" fill="#EBEBEB"/>
<path d="M205.861 134.766H175.516V137.02H205.861V134.766Z" fill="#038C7F"/>
<path d="M184.272 128.726H144.244V130.98H184.272V128.726Z" fill="#038C7F"/>
<path d="M172.028 134.766H137.184V137.02H172.028V134.766Z" fill="#EBEBEB"/>
<path d="M112.645 134.766H101.087V137.02H112.645V134.766Z" fill="#A6A6A6"/>
<path d="M188.95 116.657H145.814V118.911H188.95V116.657Z" fill="#EBEBEB"/>
<path d="M219.19 116.657H191.742V118.911H219.19V116.657Z" fill="#038C7F"/>
<path d="M181.553 110.617H138.47V112.871H181.553V110.617Z" fill="#038C7F"/>
<path d="M89.5808 116.657H82.8269V118.911H89.5808V116.657Z" fill="#EBEBEB"/>
<path d="M89.5808 122.687H82.8269V124.941H89.5808V122.687Z" fill="#EBEBEB"/>
<path d="M96.3345 128.726H89.5807V130.98H96.3345V128.726Z" fill="#A6A6A6"/>
<path d="M96.3345 134.766H89.5807V137.02H96.3345V134.766Z" fill="#EBEBEB"/>
<path d="M89.5808 139.813H82.8269V142.067H89.5808V139.813Z" fill="#EBEBEB"/>
<path d="M171.976 139.813H94.5013V142.067H171.976V139.813Z" fill="#EBEBEB"/>
<path d="M96.3345 145.853H89.5807V148.106H96.3345V145.853Z" fill="#EBEBEB"/>
<path d="M151.925 145.853H101.087V148.106H151.925V145.853Z" fill="#A6A6A6"/>
<path d="M143.064 163.961H94.5013V166.215H143.064V163.961Z" fill="#A6A6A6"/>
<path d="M135.151 151.892H101.087V154.146H135.151V151.892Z" fill="#038C7F"/>
<path d="M193.333 151.892H138.934V154.146H193.333V151.892Z" fill="#A6A6A6"/>
<path d="M159.437 169.991H94.5013V172.245H159.437V169.991Z" fill="#038C7F"/>
<path d="M225.501 145.853H190.309V148.106H225.501V145.853Z" fill="#038C7F"/>
<path d="M187.517 145.853H155.118V148.106H187.517V145.853Z" fill="#EBEBEB"/>
<path d="M217.757 151.892H195.894V154.146H217.757V151.892Z" fill="#EBEBEB"/>
<path d="M96.3345 151.892H89.5807V154.146H96.3345V151.892Z" fill="#EBEBEB"/>
<path d="M89.5808 157.922H82.8269V160.176H89.5808V157.922Z" fill="#A6A6A6"/>
<path d="M134.413 157.922H94.5013V160.176H134.413V157.922Z" fill="#EBEBEB"/>
<path d="M188.95 163.961H145.814V166.215H188.95V163.961Z" fill="#EBEBEB"/>
<path d="M181.553 157.922H138.47V160.176H181.553V157.922Z" fill="#038C7F"/>
<path d="M89.5808 163.961H82.8269V166.215H89.5808V163.961Z" fill="#EBEBEB"/>
<path d="M263.822 39.6081H192.49V63.7563H263.822V39.6081Z" fill="#455A64"/>
<path d="M202.784 56.6862V45.9751C202.784 45.7196 202.895 45.4746 203.093 45.2939C203.291 45.1133 203.559 45.0118 203.838 45.0118C203.982 45.0039 204.126 45.023 204.261 45.0679C204.396 45.1127 204.52 45.1824 204.624 45.2727C204.729 45.3629 204.812 45.4718 204.869 45.5926C204.926 45.7134 204.955 45.8435 204.955 45.9751V50.3289H210.097V45.9751C210.097 45.7196 210.208 45.4746 210.405 45.2939C210.603 45.1133 210.871 45.0118 211.15 45.0118C211.294 45.0039 211.438 45.023 211.573 45.0679C211.708 45.1127 211.832 45.1824 211.937 45.2727C212.041 45.3629 212.125 45.4718 212.181 45.5926C212.238 45.7134 212.267 45.8435 212.267 45.9751V56.6862C212.267 56.8177 212.238 56.9479 212.181 57.0687C212.125 57.1895 212.041 57.2983 211.937 57.3886C211.832 57.4788 211.708 57.5485 211.573 57.5934C211.438 57.6382 211.294 57.6573 211.15 57.6494C210.871 57.6494 210.603 57.5479 210.405 57.3673C210.208 57.1866 210.097 56.9416 210.097 56.6862V52.3324H204.955V56.6862C204.955 56.8177 204.926 56.9479 204.869 57.0687C204.812 57.1895 204.729 57.2983 204.624 57.3886C204.52 57.4788 204.396 57.5485 204.261 57.5934C204.126 57.6382 203.982 57.6573 203.838 57.6494C203.559 57.6494 203.291 57.5479 203.093 57.3673C202.895 57.1866 202.784 56.9416 202.784 56.6862Z" fill="white"/>
<path d="M225.353 46.9961H222.192V56.6862C222.192 56.9519 222.077 57.2067 221.872 57.3945C221.666 57.5824 221.387 57.6879 221.097 57.6879C220.806 57.6879 220.527 57.5824 220.322 57.3945C220.116 57.2067 220.001 56.9519 220.001 56.6862V46.9961H216.84C216.696 46.9963 216.554 46.9696 216.422 46.9176C216.289 46.8656 216.17 46.7895 216.072 46.6938C215.973 46.5982 215.897 46.485 215.848 46.3614C215.799 46.2378 215.778 46.1063 215.786 45.975C215.786 45.7196 215.897 45.4746 216.095 45.2939C216.293 45.1133 216.561 45.0118 216.84 45.0118H225.269C225.549 45.0118 225.817 45.1133 226.014 45.2939C226.212 45.4746 226.323 45.7196 226.323 45.975C226.325 46.224 226.228 46.4652 226.049 46.6532C225.871 46.8413 225.623 46.9632 225.353 46.9961Z" fill="white"/>
<path d="M241.674 45.9751V56.6862C241.656 56.946 241.53 57.1898 241.323 57.3685C241.116 57.5472 240.842 57.6475 240.558 57.6494C240.278 57.6494 240.01 57.5479 239.813 57.3673C239.615 57.1867 239.504 56.9416 239.504 56.6862V49.0478L236.638 52.6791C236.539 52.8094 236.407 52.9154 236.252 52.9877C236.098 53.0599 235.926 53.0962 235.753 53.0933C235.575 53.0945 235.4 53.0576 235.241 52.9857C235.082 52.9137 234.943 52.8088 234.836 52.6791L232.002 49.0478V56.6862C232.002 56.9531 231.886 57.2092 231.68 57.3979C231.473 57.5867 231.193 57.6928 230.901 57.6928C230.609 57.6928 230.329 57.5867 230.122 57.3979C229.916 57.2092 229.8 56.9531 229.8 56.6862V45.9751C229.8 45.7196 229.911 45.4746 230.109 45.2939C230.306 45.1133 230.574 45.0118 230.854 45.0118H230.917C231.088 45.0105 231.258 45.0476 231.41 45.1197C231.563 45.1919 231.693 45.2971 231.791 45.426L235.742 50.4348L239.694 45.426C239.793 45.2943 239.928 45.1875 240.084 45.1152C240.24 45.0428 240.414 45.0073 240.589 45.0118C240.869 45.0208 241.134 45.1244 241.335 45.3024C241.535 45.4803 241.656 45.7201 241.674 45.9751Z" fill="white"/>
<path d="M246.479 56.6862V45.975C246.479 45.7196 246.59 45.4746 246.788 45.2939C246.985 45.1133 247.253 45.0118 247.533 45.0118C247.675 45.0053 247.818 45.0254 247.952 45.0708C248.086 45.1163 248.208 45.1862 248.312 45.2763C248.415 45.3664 248.498 45.4748 248.554 45.595C248.61 45.7151 248.639 45.8444 248.639 45.975V55.6651H254.023C254.316 55.6651 254.598 55.7717 254.805 55.9614C255.013 56.1511 255.129 56.4083 255.129 56.6765C255.129 56.9448 255.013 57.202 254.805 57.3917C254.598 57.5814 254.316 57.6879 254.023 57.6879H247.533C247.391 57.688 247.25 57.6619 247.119 57.6111C246.989 57.5603 246.871 57.4859 246.772 57.3923C246.674 57.2988 246.597 57.188 246.547 57.0666C246.496 56.9453 246.473 56.8159 246.479 56.6862Z" fill="white"/>
<path d="M246.479 130.277L250.936 140.121L246.479 141.807L242.001 131.895L234.636 137.116V109.385L255.877 128.996L246.479 130.277Z" fill="#263238"/>
<path d="M234.636 106.408C234.449 105.963 234.357 105.489 234.362 105.011C234.35 104.534 234.443 104.059 234.636 103.615C234.825 104.06 234.915 104.535 234.899 105.011C234.909 105.488 234.819 105.962 234.636 106.408Z" fill="#263238"/>
<path d="M232.002 107.371C231.529 107.175 231.101 106.901 230.737 106.562C230.358 106.234 230.056 105.837 229.852 105.397C230.328 105.593 230.757 105.871 231.117 106.216C231.496 106.541 231.798 106.934 232.002 107.371Z" fill="#263238"/>
<path d="M230.917 109.751C229.934 110.084 228.854 110.084 227.872 109.751C228.856 109.429 229.932 109.429 230.917 109.751Z" fill="#263238"/>
<path d="M232.002 112.188C231.798 112.625 231.496 113.018 231.117 113.343C230.757 113.688 230.328 113.966 229.852 114.162C230.056 113.722 230.358 113.325 230.737 112.997C231.101 112.658 231.529 112.384 232.002 112.188Z" fill="#263238"/>
<path d="M238.398 109.751C239.386 109.43 240.465 109.43 241.453 109.751C240.467 110.085 239.383 110.085 238.398 109.751Z" fill="#263238"/>
<path d="M237.26 107.371C237.471 106.938 237.772 106.546 238.145 106.216C238.506 105.868 238.94 105.59 239.42 105.397C238.972 106.253 238.207 106.936 237.26 107.323V107.371Z" fill="#263238"/>
<path d="M238.784 221.265C239.092 220.924 239.536 220.708 240.017 220.665C240.499 220.621 240.98 220.754 241.355 221.033C243.238 222.504 245.594 223.373 248.067 223.509C249.633 223.537 251.171 223.123 252.471 222.324C252.91 222.079 253.276 221.739 253.539 221.334C253.801 220.93 253.952 220.473 253.978 220.003C253.984 219.638 253.874 219.28 253.661 218.972C253.392 218.584 253.032 218.255 252.608 218.009C251.115 217.244 249.484 216.732 247.793 216.497H247.719C246.154 216.253 244.629 215.833 243.178 215.244C241.847 214.716 240.712 213.846 239.911 212.74C239.376 211.947 239.095 211.033 239.1 210.101C239.134 209.171 239.407 208.261 239.895 207.445C240.384 206.628 241.075 205.928 241.913 205.4C243.7 204.267 245.829 203.671 248.003 203.695C250.787 203.826 253.462 204.726 255.674 206.277C256.066 206.523 256.337 206.9 256.428 207.327C256.519 207.755 256.422 208.197 256.159 208.56C256.031 208.743 255.865 208.902 255.67 209.026C255.475 209.15 255.254 209.237 255.021 209.282C254.788 209.327 254.548 209.329 254.315 209.288C254.081 209.246 253.859 209.162 253.661 209.041C251.87 207.943 250.142 206.98 248.003 206.98C246.598 206.959 245.22 207.34 244.063 208.068C243.678 208.285 243.356 208.582 243.123 208.936C242.89 209.289 242.754 209.689 242.725 210.101C242.707 210.415 242.791 210.726 242.967 210.997C243.221 211.329 243.543 211.614 243.915 211.835C245.268 212.564 246.765 213.045 248.319 213.251H248.383C250.057 213.515 251.688 213.968 253.24 214.599C254.667 215.169 255.887 216.098 256.759 217.277C257.311 218.097 257.602 219.04 257.602 220.003C257.57 220.995 257.278 221.965 256.752 222.833C256.226 223.701 255.481 224.441 254.578 224.992C252.673 226.215 250.394 226.856 248.067 226.822C244.76 226.679 241.595 225.549 239.058 223.605C238.692 223.322 238.459 222.921 238.408 222.485C238.357 222.049 238.492 221.612 238.784 221.265Z" fill="#EBEBEB"/>
<path d="M314.65 225.29C306.526 257.636 290.079 298.582 277.383 306.847C267.141 313.513 213.374 325.245 210.381 325.543C202.953 326.227 188.255 278.297 195.989 276.351C205.693 273.895 251.758 272.585 254.382 270.129C257.005 267.672 273.863 246.799 292.85 222.747C305.936 206.132 319.686 205.226 314.65 225.29Z" fill="#DD6A57"/>
<path d="M216.324 322.914C215.439 323.318 202.89 329.088 195.124 331.149C189.34 332.681 172.534 336.688 170.058 331.034C168.362 327.181 177.929 323.752 184.641 321.19C188.181 319.851 192.543 316.46 191.5 314.389C189.677 310.748 180.574 314.389 174.589 317.577C162.999 323.732 147.584 334.8 140.514 329.425C137.848 327.402 140.946 323.704 145.487 320.082C138.112 324.301 130.262 327.788 127.196 325.62C125.447 324.397 125.363 322.731 126.342 320.804C124.067 321.478 122.054 321.344 120.653 319.995C118.261 317.703 119.42 314.322 122.044 310.854C121.594 310.808 121.163 310.666 120.786 310.438C120.408 310.21 120.096 309.904 119.873 309.544C114.795 302.474 140.177 282.179 148.964 280.281C174.789 274.665 202.258 276.717 202.258 276.717C212.404 284.124 216.345 322.894 216.324 322.914Z" fill="#DD6A57"/>
<path d="M178.34 301.174C172.191 302.049 166.318 304.115 161.113 307.232C154.559 311.191 150.218 315.815 144.729 320.467C144.709 320.493 144.699 320.525 144.701 320.557C144.702 320.589 144.716 320.62 144.739 320.644C144.762 320.668 144.793 320.685 144.827 320.691C144.862 320.698 144.897 320.693 144.929 320.679C147.542 318.464 158.394 310.141 161.197 308.253C166.257 304.765 172.119 302.376 178.34 301.27C178.435 301.26 178.414 301.164 178.34 301.174Z" fill="#263238"/>
<path d="M173.535 291.156C166.75 292.851 159.838 294.566 153.516 297.504C146.615 300.711 141.22 305.951 135.92 310.989C132.731 314.013 129.619 317.105 126.585 320.265C126.458 320.39 126.648 320.602 126.785 320.467C132.166 315.266 137.718 310.212 143.443 305.306C148.72 300.729 154.932 297.148 161.724 294.768C165.612 293.42 169.595 292.341 173.577 291.262C173.63 291.243 173.609 291.137 173.535 291.156Z" fill="#263238"/>
<path d="M166.286 282.391C159.69 283.633 153.937 284.693 148.09 287.92C140.367 292.196 132.896 299.401 130.283 301.963C127.386 304.786 124.604 307.743 121.854 310.633C121.738 310.748 121.97 310.931 122.086 310.806C128.356 304.346 135.075 298.262 142.2 292.591C145.553 289.847 149.348 287.593 153.453 285.906C157.613 284.411 161.907 283.247 166.286 282.429C166.286 282.429 166.307 282.391 166.286 282.391Z" fill="#263238"/>
<path d="M254.771 265.409L304.293 263.482C304.293 263.482 313.291 241.029 316.599 221.1C319.908 201.171 301.332 208.318 282.946 229.769C264.56 251.22 254.771 265.409 254.771 265.409Z" fill="#038C7F"/>
<path d="M270.987 251.856C271.324 251.769 271.661 251.741 272.04 251.673C272.334 251.614 272.638 251.616 272.931 251.679C273.223 251.741 273.497 251.863 273.731 252.035C273.966 252.206 274.155 252.424 274.286 252.672C274.416 252.919 274.484 253.19 274.485 253.465C274.479 253.712 274.543 253.956 274.67 254.173C274.797 254.391 274.984 254.575 275.212 254.707C275.462 254.855 275.748 254.944 276.044 254.967C276.381 255.025 276.719 255.064 277.098 255.15C276.761 255.237 276.424 255.276 276.044 255.343C275.665 255.412 275.272 255.375 274.917 255.237C274.543 255.088 274.225 254.843 274 254.532C273.776 254.221 273.655 253.857 273.653 253.484C273.65 253.239 273.578 253 273.443 252.789C273.308 252.578 273.115 252.402 272.883 252.28C272.627 252.142 272.338 252.063 272.04 252.049C271.661 251.991 271.324 251.952 270.987 251.856ZM305.831 224.346C306.132 224.366 306.423 224.449 306.684 224.587C306.915 224.711 307.106 224.886 307.241 225.097C307.376 225.308 307.449 225.547 307.453 225.791C307.456 226.164 307.577 226.528 307.801 226.839C308.026 227.15 308.344 227.395 308.718 227.544C309.074 227.68 309.467 227.713 309.845 227.64C310.182 227.583 310.52 227.544 310.899 227.457C310.562 227.371 310.225 227.332 309.845 227.274C309.548 227.253 309.262 227.164 309.013 227.014C308.787 226.88 308.602 226.696 308.475 226.478C308.348 226.261 308.283 226.018 308.286 225.772C308.272 225.398 308.139 225.035 307.903 224.729C307.667 224.423 307.339 224.186 306.958 224.048C306.596 223.932 306.206 223.908 305.831 223.98C305.494 224.038 305.157 224.077 304.83 224.163C305.167 224.25 305.504 224.288 305.831 224.346ZM307.095 242.002C306.868 242.183 306.597 242.311 306.305 242.378C306.049 242.441 305.779 242.443 305.522 242.382C305.266 242.321 305.031 242.2 304.84 242.031C304.551 241.767 304.184 241.585 303.784 241.508C303.383 241.431 302.967 241.462 302.586 241.598C302.23 241.737 301.926 241.968 301.711 242.262C301.521 242.522 301.311 242.763 301.142 243.043C301.448 242.888 301.711 242.696 301.996 242.522C302.226 242.351 302.496 242.229 302.786 242.166C303.05 242.115 303.324 242.126 303.582 242.199C303.84 242.271 304.074 242.402 304.261 242.58C304.475 242.78 304.737 242.933 305.025 243.027C305.313 243.121 305.621 243.154 305.926 243.123C306.23 243.092 306.523 242.999 306.782 242.85C307.041 242.701 307.26 242.5 307.422 242.262C307.612 242.002 307.822 241.752 307.991 241.472C307.654 241.636 307.39 241.829 307.106 242.002H307.095ZM293.63 221.408C293.399 221.587 293.13 221.719 292.839 221.794C292.581 221.853 292.31 221.851 292.052 221.789C291.794 221.727 291.557 221.606 291.364 221.437L291.101 221.225C290.901 221.408 290.711 221.591 290.521 221.784C290.622 221.84 290.714 221.908 290.795 221.986C291.094 222.243 291.469 222.415 291.874 222.48C292.278 222.545 292.694 222.501 293.071 222.352C293.417 222.202 293.71 221.965 293.914 221.668C294.104 221.408 294.315 221.168 294.483 220.888C294.241 221.033 293.925 221.235 293.64 221.408H293.63ZM288.035 238.371C288.015 238.645 287.928 238.911 287.782 239.151C287.645 239.36 287.453 239.535 287.222 239.658C286.992 239.78 286.731 239.848 286.465 239.854C286.055 239.855 285.655 239.964 285.312 240.17C284.97 240.375 284.7 240.667 284.537 241.01C284.394 241.334 284.357 241.689 284.431 242.031C284.505 242.339 284.537 242.648 284.632 242.994C284.726 242.686 284.768 242.378 284.842 242.031C284.871 241.762 284.964 241.502 285.116 241.27C285.264 241.065 285.466 240.897 285.704 240.783C285.941 240.668 286.207 240.611 286.475 240.615C286.887 240.604 287.285 240.483 287.622 240.268C287.959 240.052 288.22 239.751 288.372 239.402C288.494 239.07 288.52 238.714 288.446 238.371C288.372 238.063 288.33 237.754 288.235 237.408C288.14 237.754 288.109 238.063 288.035 238.371ZM302.217 255.622C302.201 255.897 302.115 256.165 301.964 256.403C301.829 256.613 301.637 256.788 301.406 256.911C301.175 257.035 300.914 257.101 300.647 257.106C300.24 257.107 299.843 257.216 299.503 257.42C299.163 257.623 298.894 257.912 298.729 258.252C298.579 258.577 298.538 258.936 298.613 259.283C298.687 259.591 298.729 259.899 298.824 260.246C298.919 259.938 298.961 259.629 299.024 259.283C299.051 259.012 299.149 258.751 299.309 258.522C299.455 258.315 299.657 258.146 299.895 258.032C300.133 257.917 300.399 257.86 300.668 257.867C301.077 257.854 301.474 257.732 301.809 257.517C302.144 257.301 302.403 257.001 302.554 256.653C302.681 256.322 302.706 255.966 302.628 255.622C302.565 255.314 302.522 255.006 302.428 254.659C302.333 255.006 302.291 255.314 302.217 255.622Z" fill="white"/>
<path d="M306.01 253.657C295.295 253.407 284.547 253.84 273.832 254.466C270.797 254.653 267.77 254.897 264.749 255.199C264.665 255.199 264.655 255.324 264.749 255.324C270.102 255.324 275.454 255.16 280.807 255.016C286.159 254.871 291.554 254.669 296.917 254.389C299.952 254.226 302.976 254.062 306 253.84C306.137 253.831 306.147 253.657 306.01 253.657Z" fill="#263238"/>
<path d="M268.669 337.805H395.106C396.497 335.474 375.761 234.19 333.11 205.669C323.627 199.35 306.864 203.415 302.196 209.57C278.763 240.49 268.669 337.805 268.669 337.805Z" fill="#038C7F"/>
<path d="M322.31 251.856C322.647 251.769 322.984 251.741 323.364 251.673C323.657 251.614 323.961 251.616 324.254 251.679C324.546 251.741 324.82 251.863 325.054 252.035C325.289 252.206 325.478 252.424 325.609 252.672C325.739 252.919 325.807 253.19 325.808 253.465C325.802 253.712 325.866 253.956 325.993 254.173C326.121 254.391 326.307 254.575 326.535 254.707C326.786 254.853 327.071 254.943 327.367 254.967C327.705 255.025 328.042 255.064 328.421 255.15C328.084 255.237 327.747 255.276 327.367 255.343C326.988 255.412 326.596 255.375 326.24 255.237C325.866 255.088 325.548 254.843 325.324 254.532C325.099 254.221 324.978 253.857 324.976 253.484C324.973 253.239 324.901 253 324.766 252.789C324.631 252.578 324.438 252.402 324.206 252.28C323.951 252.141 323.661 252.061 323.364 252.049C322.984 251.991 322.689 251.952 322.31 251.856ZM341.96 312.992C342.258 313.012 342.546 313.095 342.803 313.233C343.034 313.354 343.226 313.528 343.361 313.737C343.496 313.947 343.569 314.185 343.572 314.428C343.573 314.802 343.693 315.168 343.918 315.481C344.142 315.794 344.461 316.041 344.837 316.19C345.195 316.321 345.586 316.354 345.964 316.287C346.301 316.229 346.639 316.19 347.018 316.104C346.681 316.017 346.344 315.978 345.964 315.911C345.668 315.894 345.381 315.808 345.132 315.661C344.906 315.526 344.721 315.342 344.594 315.125C344.467 314.907 344.402 314.664 344.405 314.418C344.399 314.042 344.269 313.676 344.032 313.368C343.796 313.061 343.463 312.826 343.077 312.694C342.72 312.573 342.332 312.549 341.96 312.626C341.623 312.684 341.286 312.723 340.907 312.809C341.286 312.906 341.655 312.944 341.96 313.002V312.992ZM365.141 255.343C365.438 255.357 365.727 255.436 365.983 255.574C366.215 255.696 366.408 255.872 366.543 256.083C366.678 256.294 366.75 256.534 366.753 256.778C366.755 257.151 366.876 257.515 367.101 257.826C367.325 258.137 367.643 258.382 368.017 258.531C368.373 258.67 368.765 258.707 369.144 258.637C369.482 258.57 369.819 258.531 370.198 258.445C369.861 258.358 369.524 258.319 369.144 258.262C368.848 258.239 368.562 258.149 368.312 258.002C368.084 257.869 367.898 257.685 367.77 257.467C367.643 257.25 367.579 257.006 367.585 256.759C367.584 256.484 367.516 256.213 367.386 255.966C367.255 255.718 367.066 255.501 366.831 255.329C366.597 255.157 366.323 255.035 366.031 254.973C365.738 254.91 365.434 254.908 365.141 254.967C364.803 255.035 364.466 255.064 364.087 255.15C364.487 255.247 364.835 255.285 365.162 255.353L365.141 255.343ZM305.831 224.346C306.132 224.366 306.423 224.449 306.684 224.587C306.915 224.711 307.106 224.886 307.241 225.097C307.376 225.308 307.449 225.547 307.454 225.791C307.456 226.164 307.577 226.528 307.801 226.839C308.026 227.15 308.344 227.395 308.718 227.544C309.074 227.68 309.467 227.713 309.845 227.64C310.182 227.583 310.52 227.544 310.899 227.457C310.562 227.371 310.225 227.332 309.845 227.274C309.548 227.253 309.262 227.164 309.013 227.014C308.787 226.88 308.602 226.696 308.475 226.478C308.348 226.261 308.283 226.018 308.286 225.772C308.272 225.398 308.139 225.035 307.903 224.729C307.667 224.423 307.339 224.186 306.958 224.048C306.596 223.932 306.206 223.908 305.831 223.98C305.494 224.038 305.157 224.077 304.83 224.163C305.167 224.25 305.504 224.288 305.831 224.346ZM342.34 223.653C342.639 223.671 342.931 223.75 343.193 223.884C343.422 224.009 343.613 224.185 343.747 224.395C343.882 224.606 343.956 224.844 343.962 225.088C343.963 225.462 344.083 225.828 344.307 226.141C344.532 226.454 344.851 226.701 345.227 226.851C345.584 226.981 345.976 227.015 346.354 226.947C346.681 226.88 347.018 226.841 347.355 226.764C347.018 226.677 346.681 226.639 346.354 226.571C346.056 226.547 345.768 226.461 345.511 226.321C345.287 226.186 345.103 226.001 344.978 225.784C344.853 225.567 344.79 225.324 344.795 225.078C344.783 224.702 344.651 224.338 344.415 224.03C344.179 223.722 343.849 223.483 343.467 223.344C343.105 223.229 342.715 223.205 342.34 223.277C342.002 223.344 341.665 223.383 341.286 223.47C341.655 223.547 342.013 223.585 342.35 223.653H342.34ZM296.875 277.594C297.175 277.612 297.466 277.691 297.728 277.825C297.956 277.95 298.145 278.127 298.278 278.337C298.41 278.548 298.482 278.786 298.487 279.029C298.488 279.403 298.608 279.769 298.832 280.082C299.057 280.395 299.376 280.642 299.751 280.792C300.109 280.922 300.501 280.956 300.879 280.888C301.216 280.83 301.553 280.792 301.932 280.705C301.595 280.618 301.258 280.58 300.879 280.512C300.583 280.491 300.298 280.405 300.046 280.262C299.821 280.127 299.636 279.943 299.509 279.726C299.382 279.509 299.316 279.266 299.319 279.019C299.315 278.643 299.186 278.276 298.949 277.968C298.712 277.661 298.378 277.426 297.992 277.295C297.635 277.173 297.246 277.15 296.875 277.228C296.538 277.285 296.201 277.324 295.821 277.411C296.211 277.459 296.548 277.497 296.885 277.555L296.875 277.594ZM336.682 333.461C336.982 333.478 337.273 333.557 337.535 333.692C337.764 333.817 337.955 333.993 338.089 334.204C338.223 334.414 338.298 334.653 338.304 334.896C338.311 335.262 338.432 335.618 338.652 335.924C338.872 336.229 339.183 336.471 339.548 336.621C339.905 336.751 340.297 336.785 340.675 336.717C341.012 336.649 341.349 336.611 341.729 336.524C341.391 336.437 341.054 336.409 340.675 336.341C340.378 336.32 340.092 336.23 339.843 336.081C339.616 335.949 339.431 335.767 339.303 335.551C339.176 335.335 339.111 335.093 339.116 334.848C339.115 334.572 339.046 334.3 338.915 334.051C338.784 333.803 338.594 333.584 338.359 333.411C338.123 333.239 337.849 333.116 337.555 333.053C337.261 332.99 336.955 332.988 336.661 333.047C336.323 333.114 335.997 333.153 335.607 333.24C336.028 333.297 336.387 333.336 336.692 333.403L336.682 333.461ZM317.084 303.456C317.384 303.471 317.677 303.55 317.937 303.688C318.168 303.81 318.359 303.986 318.492 304.197C318.625 304.409 318.695 304.648 318.696 304.892C318.699 305.264 318.819 305.628 319.044 305.94C319.268 306.251 319.587 306.496 319.96 306.645C320.316 306.783 320.709 306.819 321.088 306.751C321.425 306.683 321.762 306.645 322.141 306.558C321.804 306.471 321.467 306.433 321.088 306.375C320.791 306.35 320.506 306.261 320.255 306.115C320.019 305.981 319.826 305.792 319.698 305.566C319.57 305.341 319.512 305.088 319.528 304.834C319.526 304.559 319.456 304.288 319.325 304.04C319.193 303.793 319.003 303.575 318.767 303.404C318.532 303.232 318.258 303.11 317.965 303.048C317.672 302.985 317.367 302.984 317.073 303.042C316.736 303.1 316.399 303.139 316.02 303.225C316.42 303.293 316.757 303.331 317.094 303.399L317.084 303.456ZM272.199 334.212C271.902 334.188 271.617 334.098 271.366 333.952C271.138 333.821 270.952 333.637 270.826 333.419C270.7 333.201 270.639 332.956 270.65 332.71C270.635 332.358 270.515 332.017 270.304 331.723C270.092 331.43 269.796 331.194 269.449 331.043C269.449 331.294 269.385 331.525 269.364 331.756C269.505 331.881 269.617 332.031 269.693 332.196C269.769 332.362 269.808 332.54 269.807 332.719C269.809 333.092 269.93 333.456 270.155 333.767C270.379 334.078 270.697 334.323 271.071 334.472C271.427 334.61 271.82 334.647 272.199 334.578C272.536 334.511 272.873 334.472 273.252 334.386C272.883 334.251 272.546 334.212 272.209 334.155L272.199 334.212ZM280.817 308.908C281.118 308.922 281.41 309.002 281.671 309.14C281.901 309.263 282.093 309.439 282.227 309.65C282.362 309.861 282.435 310.099 282.44 310.344C282.443 310.716 282.563 311.08 282.788 311.391C283.012 311.703 283.331 311.948 283.704 312.097C284.06 312.235 284.453 312.272 284.832 312.203C285.169 312.135 285.496 312.097 285.833 312.01C285.496 311.923 285.169 311.885 284.832 311.827C284.535 311.806 284.248 311.716 283.999 311.567C283.77 311.436 283.582 311.252 283.455 311.034C283.327 310.816 283.264 310.571 283.272 310.324C283.258 309.95 283.125 309.588 282.889 309.281C282.654 308.975 282.325 308.738 281.945 308.6C281.583 308.484 281.193 308.461 280.817 308.533C280.48 308.6 280.143 308.629 279.764 308.716C280.154 308.745 280.543 308.783 280.828 308.851L280.817 308.908ZM333.774 278.345C334.074 278.366 334.366 278.449 334.627 278.586C334.857 278.709 335.049 278.885 335.184 279.096C335.318 279.307 335.391 279.546 335.396 279.79C335.399 280.163 335.52 280.527 335.744 280.838C335.969 281.149 336.287 281.394 336.661 281.543C337.014 281.678 337.403 281.711 337.777 281.639C338.115 281.581 338.452 281.543 338.831 281.456C338.494 281.37 338.157 281.331 337.777 281.273C337.481 281.248 337.196 281.159 336.945 281.013C336.721 280.878 336.537 280.693 336.412 280.476C336.287 280.259 336.223 280.016 336.229 279.771C336.214 279.396 336.081 279.034 335.846 278.728C335.61 278.421 335.282 278.185 334.901 278.046C334.539 277.931 334.149 277.907 333.774 277.979C333.436 278.037 333.099 278.075 332.72 278.162C333.11 278.191 333.447 278.229 333.784 278.287L333.774 278.345ZM380.134 319.436C380.43 319.455 380.718 319.534 380.977 319.668C381.207 319.791 381.399 319.967 381.533 320.178C381.668 320.389 381.741 320.628 381.746 320.872C381.747 321.246 381.866 321.612 382.091 321.925C382.316 322.238 382.635 322.485 383.01 322.634C383.368 322.765 383.76 322.798 384.138 322.731C384.475 322.663 384.812 322.625 385.191 322.538C384.854 322.451 384.517 322.422 384.138 322.355C383.841 322.332 383.555 322.243 383.305 322.095C383.079 321.963 382.893 321.781 382.766 321.565C382.639 321.349 382.574 321.107 382.578 320.862C382.579 320.587 382.512 320.314 382.382 320.066C382.253 319.817 382.063 319.598 381.829 319.425C381.594 319.252 381.32 319.13 381.027 319.067C380.733 319.004 380.428 319.002 380.134 319.061C379.797 319.128 379.46 319.167 379.08 319.253C379.491 319.282 379.828 319.282 380.165 319.379L380.134 319.436ZM361.716 294.392C362.016 294.41 362.308 294.489 362.57 294.624C362.799 294.749 362.989 294.925 363.124 295.135C363.258 295.346 363.332 295.584 363.339 295.828C363.339 296.202 363.459 296.568 363.684 296.881C363.908 297.194 364.228 297.441 364.603 297.59C364.961 297.721 365.352 297.754 365.731 297.687C366.068 297.619 366.405 297.59 366.784 297.504C366.447 297.417 366.11 297.378 365.731 297.311C365.435 297.293 365.148 297.207 364.898 297.061C364.672 296.926 364.487 296.742 364.36 296.525C364.233 296.307 364.168 296.064 364.171 295.818C364.157 295.444 364.024 295.081 363.788 294.775C363.553 294.469 363.224 294.232 362.844 294.094C362.482 293.975 362.093 293.948 361.716 294.017C361.379 294.084 361.052 294.123 360.715 294.209C361.084 294.238 361.411 294.238 361.748 294.296L361.716 294.392ZM307.074 242.099C306.847 242.279 306.576 242.408 306.284 242.474C306.028 242.538 305.758 242.539 305.501 242.478C305.245 242.417 305.01 242.297 304.819 242.127C304.53 241.863 304.163 241.681 303.763 241.604C303.362 241.527 302.946 241.558 302.565 241.694C302.209 241.834 301.905 242.065 301.69 242.359C301.5 242.619 301.29 242.86 301.121 243.139C301.427 242.985 301.69 242.792 301.975 242.619C302.205 242.447 302.475 242.325 302.765 242.262C303.029 242.211 303.303 242.223 303.561 242.295C303.819 242.367 304.053 242.499 304.24 242.677C304.454 242.876 304.716 243.029 305.004 243.123C305.292 243.217 305.6 243.25 305.905 243.219C306.209 243.189 306.502 243.095 306.761 242.946C307.02 242.797 307.239 242.596 307.401 242.359C307.59 242.099 307.801 241.848 307.97 241.569C307.654 241.636 307.39 241.829 307.106 242.002L307.074 242.099ZM361.59 277.863C361.365 278.045 361.099 278.176 360.81 278.249C360.551 278.308 360.28 278.306 360.022 278.244C359.764 278.182 359.528 278.061 359.335 277.892C359.045 277.631 358.68 277.452 358.281 277.377C357.883 277.302 357.47 277.334 357.091 277.468C356.736 277.604 356.432 277.832 356.216 278.123C356.027 278.384 355.816 278.624 355.647 278.904C355.953 278.75 356.216 278.557 356.501 278.384C356.73 278.21 357.001 278.088 357.291 278.027C357.553 277.976 357.826 277.987 358.082 278.06C358.339 278.132 358.57 278.264 358.755 278.441C358.971 278.639 359.232 278.79 359.521 278.883C359.809 278.976 360.116 279.009 360.42 278.978C360.723 278.948 361.016 278.855 361.275 278.707C361.534 278.559 361.753 278.36 361.916 278.123C362.106 277.863 362.317 277.623 362.485 277.343C362.148 277.478 361.885 277.671 361.59 277.863ZM327.589 211.121C327.364 211.302 327.097 211.434 326.809 211.506C326.55 211.57 326.278 211.571 326.019 211.509C325.76 211.446 325.524 211.322 325.334 211.15C325.043 210.887 324.676 210.707 324.275 210.632C323.875 210.556 323.459 210.589 323.079 210.726C322.724 210.862 322.42 211.09 322.205 211.381C322.015 211.651 321.804 211.892 321.636 212.171C321.941 212.017 322.215 211.824 322.5 211.651C322.725 211.478 322.992 211.356 323.279 211.294C323.542 211.243 323.816 211.253 324.073 211.324C324.331 211.395 324.565 211.524 324.754 211.699C324.967 211.901 325.228 212.056 325.516 212.152C325.804 212.248 326.112 212.282 326.417 212.252C326.722 212.222 327.016 212.129 327.275 211.98C327.535 211.831 327.754 211.629 327.915 211.391C328.105 211.121 328.316 210.88 328.484 210.601C328.147 210.745 327.873 210.928 327.589 211.102V211.121ZM326.904 230.877C326.88 231.149 326.79 231.412 326.64 231.648C326.507 231.859 326.315 232.036 326.084 232.159C325.853 232.282 325.591 232.348 325.323 232.351C324.916 232.353 324.517 232.464 324.177 232.669C323.837 232.874 323.569 233.165 323.406 233.507C323.259 233.833 323.219 234.191 323.29 234.537C323.364 234.845 323.406 235.154 323.5 235.5C323.595 235.192 323.637 234.884 323.701 234.537C323.726 234.266 323.823 234.005 323.985 233.776C324.132 233.57 324.334 233.401 324.572 233.285C324.809 233.168 325.075 233.109 325.344 233.112C325.645 233.111 325.941 233.049 326.212 232.929C326.483 232.81 326.721 232.637 326.909 232.423C327.097 232.208 327.23 231.958 327.298 231.691C327.367 231.423 327.369 231.145 327.304 230.877C327.241 230.569 327.199 230.26 327.104 229.914C327.03 230.26 326.988 230.569 326.904 230.877ZM318.875 285.03C318.853 285.305 318.763 285.572 318.612 285.81C318.476 286.021 318.284 286.196 318.054 286.319C317.823 286.442 317.562 286.509 317.295 286.513C316.887 286.516 316.489 286.626 316.148 286.831C315.808 287.036 315.54 287.327 315.377 287.669C315.234 287.996 315.197 288.354 315.272 288.7C315.335 289.008 315.377 289.316 315.472 289.663C315.567 289.355 315.609 289.046 315.682 288.7C315.698 288.428 315.792 288.166 315.956 287.939C316.104 287.732 316.305 287.563 316.543 287.447C316.78 287.331 317.046 287.271 317.316 287.274C317.725 287.261 318.121 287.14 318.456 286.924C318.791 286.709 319.05 286.408 319.202 286.06C319.335 285.731 319.36 285.373 319.275 285.03C319.212 284.731 319.17 284.423 319.075 284.115C319.001 284.423 318.959 284.731 318.896 285.03H318.875ZM360.915 237.831H360.747C360.337 237.832 359.937 237.942 359.594 238.147C359.252 238.352 358.982 238.644 358.819 238.987C358.676 239.314 358.639 239.672 358.713 240.018C358.777 240.326 358.819 240.634 358.913 240.981C359.008 240.673 359.05 240.365 359.124 240.018C359.146 239.748 359.24 239.486 359.398 239.257C359.545 239.051 359.747 238.882 359.985 238.765C360.222 238.649 360.488 238.59 360.757 238.592C360.944 238.593 361.129 238.563 361.305 238.506L360.915 237.831ZM360.62 325.331C360.605 325.606 360.518 325.874 360.368 326.112C360.232 326.322 360.04 326.497 359.809 326.62C359.579 326.744 359.317 326.811 359.05 326.815C358.643 326.817 358.245 326.928 357.904 327.133C357.564 327.338 357.296 327.629 357.133 327.971C356.986 328.297 356.946 328.655 357.017 329.001C357.091 329.31 357.133 329.618 357.228 329.965C357.322 329.666 357.365 329.358 357.428 329.001C357.451 328.73 357.549 328.468 357.712 328.24C357.856 328.031 358.057 327.859 358.295 327.743C358.534 327.626 358.801 327.568 359.072 327.576C359.481 327.563 359.877 327.441 360.212 327.226C360.547 327.01 360.806 326.71 360.958 326.362C361.084 326.031 361.11 325.675 361.031 325.331C360.968 325.023 360.926 324.715 360.831 324.368C360.757 324.715 360.715 325.062 360.62 325.331ZM378.711 276.207C378.715 276.232 378.715 276.258 378.711 276.284C378.578 276.495 378.386 276.672 378.155 276.795C377.924 276.918 377.662 276.984 377.394 276.987C376.987 276.989 376.589 277.1 376.248 277.305C375.908 277.51 375.64 277.801 375.477 278.143C375.326 278.468 375.286 278.827 375.361 279.173C375.435 279.482 375.477 279.79 375.572 280.137C375.666 279.828 375.709 279.52 375.772 279.173C375.799 278.903 375.896 278.642 376.056 278.412C376.201 278.204 376.402 278.034 376.641 277.917C376.879 277.801 377.146 277.742 377.415 277.748C377.731 277.74 378.041 277.668 378.322 277.536C378.602 277.404 378.847 277.217 379.038 276.987L378.711 276.207ZM286.233 286.976C286.215 287.247 286.128 287.51 285.98 287.746C285.845 287.957 285.653 288.132 285.422 288.255C285.192 288.378 284.93 288.445 284.663 288.449C284.254 288.45 283.853 288.559 283.511 288.765C283.168 288.97 282.899 289.262 282.735 289.605C282.592 289.932 282.556 290.29 282.63 290.636C282.703 290.944 282.735 291.252 282.83 291.599C282.925 291.291 282.967 290.983 283.041 290.636C283.067 290.366 283.161 290.106 283.315 289.875C283.462 289.669 283.663 289.499 283.901 289.383C284.138 289.267 284.404 289.208 284.674 289.21C285.085 289.199 285.484 289.078 285.821 288.863C286.158 288.647 286.418 288.346 286.57 287.997C286.693 287.668 286.718 287.316 286.644 286.976C286.57 286.667 286.528 286.359 286.433 286.012C286.338 286.359 286.307 286.667 286.233 286.976ZM288.456 238.438L287.919 240.047C288.12 239.865 288.275 239.644 288.372 239.402C288.489 239.092 288.518 238.761 288.456 238.438ZM307.422 206.777C307.4 207.052 307.31 207.319 307.158 207.557C307.023 207.768 306.831 207.943 306.6 208.066C306.37 208.189 306.108 208.256 305.841 208.26C305.434 208.263 305.036 208.373 304.695 208.578C304.355 208.784 304.087 209.075 303.924 209.416C303.777 209.742 303.737 210.1 303.808 210.447C303.882 210.755 303.924 211.063 304.019 211.41C304.113 211.102 304.156 210.794 304.219 210.447C304.242 210.175 304.34 209.914 304.503 209.686C304.65 209.479 304.852 209.31 305.09 209.194C305.327 209.078 305.593 209.019 305.862 209.021C306.272 209.008 306.668 208.887 307.003 208.671C307.338 208.456 307.597 208.156 307.749 207.808C307.875 207.477 307.901 207.12 307.822 206.777C307.759 206.478 307.717 206.17 307.622 205.862C307.538 206.17 307.496 206.478 307.432 206.777H307.422ZM302.206 255.622C302.191 255.897 302.104 256.165 301.953 256.403C301.818 256.613 301.626 256.788 301.395 256.911C301.165 257.035 300.903 257.101 300.636 257.106C300.23 257.107 299.833 257.216 299.492 257.42C299.152 257.623 298.883 257.912 298.719 258.252C298.568 258.577 298.528 258.936 298.603 259.283C298.677 259.591 298.719 259.899 298.814 260.246C298.908 259.938 298.951 259.629 299.014 259.283C299.041 259.012 299.138 258.751 299.298 258.522C299.444 258.315 299.646 258.146 299.884 258.032C300.122 257.917 300.389 257.86 300.657 257.867C301.067 257.854 301.463 257.732 301.798 257.517C302.133 257.301 302.392 257.001 302.544 256.653C302.67 256.322 302.696 255.966 302.617 255.622C302.554 255.314 302.512 255.006 302.417 254.659C302.333 255.006 302.291 255.314 302.217 255.622H302.206ZM348.957 262.192C348.938 262.463 348.851 262.726 348.704 262.962C348.568 263.173 348.376 263.348 348.146 263.471C347.915 263.594 347.654 263.661 347.387 263.665C346.977 263.666 346.577 263.776 346.234 263.981C345.892 264.186 345.622 264.478 345.458 264.821C345.316 265.148 345.279 265.506 345.353 265.852C345.427 266.16 345.458 266.468 345.553 266.815C345.648 266.507 345.69 266.199 345.764 265.852C345.792 265.583 345.886 265.323 346.038 265.091C346.185 264.885 346.387 264.715 346.624 264.599C346.862 264.483 347.128 264.424 347.397 264.426C347.808 264.415 348.207 264.295 348.544 264.079C348.881 263.863 349.142 263.562 349.294 263.213C349.416 262.884 349.441 262.532 349.367 262.192C349.294 261.883 349.252 261.575 349.157 261.228C349.03 261.575 349.03 261.883 348.967 262.192H348.957ZM305.757 317.038C305.735 317.31 305.645 317.574 305.494 317.809C305.36 318.02 305.168 318.197 304.937 318.32C304.706 318.443 304.444 318.509 304.177 318.512C303.769 318.514 303.371 318.625 303.03 318.83C302.69 319.035 302.422 319.326 302.259 319.668C302.111 319.994 302.075 320.353 302.154 320.698C302.217 321.007 302.259 321.315 302.354 321.662C302.449 321.353 302.491 321.045 302.554 320.698C302.581 320.428 302.679 320.167 302.839 319.937C302.986 319.731 303.187 319.562 303.425 319.446C303.662 319.33 303.928 319.27 304.198 319.273C304.498 319.272 304.795 319.21 305.065 319.09C305.336 318.971 305.574 318.798 305.762 318.584C305.95 318.369 306.083 318.119 306.152 317.852C306.22 317.584 306.222 317.306 306.158 317.038C306.094 316.73 306.052 316.422 305.957 316.075C305.831 316.393 305.831 316.73 305.768 317.038H305.757ZM342.013 245.239C342.237 245.058 342.504 244.926 342.793 244.853C343.052 244.794 343.323 244.796 343.58 244.858C343.838 244.92 344.075 245.041 344.268 245.21C344.556 245.473 344.922 245.653 345.32 245.73C345.718 245.807 346.132 245.777 346.512 245.643C346.868 245.504 347.172 245.273 347.387 244.979C347.576 244.719 347.787 244.478 347.956 244.198C347.65 244.353 347.387 244.545 347.102 244.719C346.873 244.892 346.602 245.014 346.312 245.075C346.049 245.126 345.777 245.115 345.521 245.042C345.264 244.97 345.032 244.839 344.847 244.661C344.632 244.463 344.37 244.312 344.082 244.219C343.794 244.126 343.487 244.093 343.183 244.124C342.879 244.154 342.587 244.247 342.328 244.395C342.069 244.543 341.85 244.743 341.686 244.979C341.497 245.239 341.286 245.48 341.117 245.759C341.465 245.605 341.729 245.412 342.024 245.239H342.013ZM314.734 267.817C314.961 267.636 315.232 267.508 315.524 267.441C315.782 267.378 316.053 267.377 316.312 267.437C316.57 267.498 316.807 267.619 317 267.788C317.288 268.051 317.653 268.231 318.051 268.308C318.45 268.385 318.864 268.355 319.244 268.221C319.599 268.082 319.903 267.851 320.118 267.557C320.308 267.297 320.519 267.056 320.687 266.777C320.382 266.931 320.118 267.123 319.834 267.297C319.604 267.47 319.334 267.592 319.044 267.653C318.779 267.703 318.506 267.692 318.248 267.619C317.99 267.547 317.756 267.416 317.568 267.239C317.354 267.039 317.093 266.887 316.804 266.793C316.516 266.698 316.208 266.666 315.904 266.696C315.599 266.727 315.306 266.82 315.047 266.969C314.788 267.118 314.569 267.319 314.408 267.557C314.218 267.817 314.007 268.067 313.839 268.347C314.197 268.231 314.46 267.99 314.745 267.817H314.734ZM296.264 301.087C296.491 300.909 296.757 300.778 297.043 300.702C297.302 300.642 297.573 300.644 297.831 300.706C298.089 300.769 298.326 300.89 298.519 301.058C298.809 301.321 299.177 301.501 299.577 301.576C299.977 301.651 300.393 301.619 300.773 301.482C301.128 301.346 301.432 301.118 301.648 300.827C301.838 300.567 302.048 300.316 302.217 300.037C301.911 300.201 301.648 300.384 301.353 300.557C301.133 300.738 300.863 300.861 300.573 300.914C300.31 300.969 300.036 300.96 299.777 300.889C299.519 300.818 299.285 300.687 299.098 300.509C298.799 300.252 298.424 300.08 298.02 300.015C297.616 299.95 297.199 299.995 296.822 300.143C296.476 300.293 296.184 300.53 295.979 300.827C295.79 301.087 295.579 301.328 295.41 301.607C295.726 301.453 295.99 301.26 296.274 301.087H296.264ZM304.261 335.657C304.486 335.479 304.753 335.35 305.041 335.282C305.298 335.218 305.57 335.217 305.828 335.278C306.086 335.339 306.323 335.459 306.516 335.628C306.805 335.893 307.172 336.075 307.573 336.152C307.973 336.229 308.389 336.198 308.771 336.062C309.126 335.922 309.43 335.691 309.645 335.397C309.835 335.137 310.045 334.896 310.214 334.617C309.908 334.771 309.645 334.964 309.35 335.137C309.124 335.31 308.857 335.432 308.57 335.494C308.306 335.545 308.032 335.535 307.774 335.462C307.516 335.39 307.282 335.258 307.095 335.079C306.881 334.88 306.619 334.727 306.331 334.633C306.043 334.539 305.735 334.506 305.43 334.537C305.126 334.567 304.833 334.66 304.574 334.81C304.315 334.959 304.096 335.16 303.934 335.397C303.745 335.657 303.534 335.908 303.365 336.177C303.724 336.014 303.976 335.821 304.261 335.657ZM340.011 297.677C340.235 297.496 340.502 297.364 340.791 297.292C341.05 297.233 341.321 297.234 341.579 297.296C341.836 297.359 342.073 297.48 342.266 297.648C342.556 297.911 342.924 298.091 343.324 298.166C343.725 298.242 344.14 298.209 344.521 298.072C344.873 297.936 345.173 297.708 345.385 297.417C345.574 297.157 345.785 296.906 345.964 296.627C345.659 296.791 345.385 296.974 345.1 297.147C344.876 297.328 344.603 297.451 344.31 297.504C344.048 297.559 343.776 297.551 343.519 297.48C343.262 297.409 343.03 297.277 342.845 297.099C342.546 296.842 342.172 296.671 341.767 296.605C341.363 296.54 340.947 296.585 340.57 296.733C340.219 296.881 339.922 297.118 339.716 297.417C339.526 297.677 339.326 297.918 339.147 298.197C339.453 298.033 339.727 297.841 340.011 297.667V297.677ZM364.614 311.442C364.841 311.264 365.107 311.133 365.393 311.056C365.652 310.997 365.923 310.999 366.181 311.061C366.439 311.123 366.676 311.244 366.868 311.413C367.159 311.676 367.527 311.856 367.927 311.931C368.327 312.006 368.743 311.973 369.123 311.837C369.478 311.701 369.782 311.473 369.998 311.182C370.187 310.921 370.398 310.681 370.567 310.401C370.261 310.555 369.998 310.748 369.703 310.921C369.477 311.095 369.21 311.217 368.923 311.278C368.659 311.33 368.385 311.319 368.127 311.247C367.868 311.174 367.635 311.042 367.448 310.864C367.234 310.664 366.972 310.511 366.684 310.417C366.395 310.323 366.087 310.29 365.783 310.321C365.479 310.351 365.186 310.445 364.927 310.594C364.668 310.743 364.449 310.944 364.287 311.182C364.097 311.442 363.887 311.682 363.718 311.962C364.055 311.798 364.329 311.576 364.614 311.432V311.442ZM323.227 321.883C323.452 321.704 323.719 321.572 324.006 321.498C324.265 321.439 324.536 321.44 324.794 321.502C325.052 321.565 325.288 321.686 325.481 321.854C325.772 322.117 326.139 322.297 326.54 322.372C326.94 322.448 327.356 322.415 327.736 322.278C328.091 322.142 328.395 321.914 328.611 321.623C328.8 321.363 329.001 321.112 329.18 320.833C328.874 320.997 328.6 321.19 328.316 321.363C328.087 321.538 327.816 321.66 327.525 321.719C327.263 321.77 326.99 321.759 326.734 321.687C326.478 321.614 326.246 321.483 326.061 321.305C325.762 321.048 325.387 320.877 324.983 320.811C324.578 320.746 324.162 320.791 323.785 320.939C323.441 321.093 323.15 321.329 322.942 321.623C322.752 321.883 322.542 322.124 322.363 322.403C322.689 322.249 322.942 322.056 323.227 321.883ZM376.604 335.657C376.829 335.479 377.096 335.35 377.384 335.282C377.642 335.218 377.913 335.217 378.171 335.278C378.43 335.339 378.667 335.459 378.859 335.628C379.148 335.893 379.515 336.075 379.916 336.152C380.316 336.229 380.732 336.198 381.114 336.062C381.469 335.922 381.773 335.691 381.988 335.397C382.178 335.137 382.389 334.896 382.557 334.617C382.252 334.771 381.988 334.964 381.693 335.137C381.468 335.31 381.201 335.432 380.914 335.494C380.649 335.545 380.375 335.533 380.117 335.461C379.859 335.388 379.626 335.257 379.438 335.079C379.224 334.88 378.963 334.727 378.674 334.633C378.386 334.539 378.078 334.506 377.774 334.537C377.469 334.567 377.176 334.66 376.917 334.81C376.658 334.959 376.439 335.16 376.278 335.397C376.088 335.657 375.877 335.908 375.709 336.177C376.056 336.014 376.32 335.821 376.604 335.657ZM386.087 298.245C385.835 298.177 385.607 298.051 385.423 297.879C385.209 297.68 384.947 297.527 384.659 297.433C384.371 297.339 384.063 297.306 383.758 297.337C383.454 297.367 383.161 297.461 382.902 297.61C382.643 297.759 382.424 297.96 382.262 298.197C382.073 298.457 381.862 298.698 381.693 298.977C381.999 298.823 382.262 298.631 382.547 298.457C382.774 298.28 383.04 298.148 383.326 298.072C383.585 298.013 383.856 298.014 384.114 298.077C384.372 298.139 384.609 298.26 384.802 298.428C385.19 298.785 385.715 298.989 386.266 298.997L386.087 298.245ZM285.095 326.651C285.322 326.474 285.588 326.342 285.875 326.266C286.134 326.207 286.405 326.208 286.663 326.27C286.921 326.333 287.157 326.454 287.35 326.622C287.639 326.887 288.006 327.069 288.407 327.146C288.807 327.223 289.223 327.191 289.605 327.056C289.96 326.916 290.264 326.685 290.479 326.391C290.669 326.131 290.88 325.89 291.048 325.611C290.743 325.765 290.479 325.958 290.184 326.131C289.959 326.304 289.691 326.426 289.405 326.487C289.14 326.538 288.866 326.527 288.608 326.455C288.35 326.382 288.117 326.251 287.929 326.073C287.715 325.873 287.454 325.721 287.165 325.627C286.877 325.533 286.569 325.5 286.265 325.53C285.96 325.561 285.667 325.654 285.408 325.803C285.149 325.952 284.93 326.153 284.769 326.391C284.579 326.651 284.368 326.901 284.2 327.171C284.589 326.988 284.853 326.815 285.137 326.641L285.095 326.651ZM282.05 268.616C282.272 268.432 282.54 268.3 282.83 268.231C283.088 268.167 283.361 268.166 283.62 268.229C283.878 268.291 284.115 268.415 284.305 268.587C284.595 268.85 284.963 269.03 285.363 269.106C285.764 269.181 286.179 269.148 286.56 269.011C286.912 268.875 287.212 268.647 287.424 268.356C287.613 268.087 287.824 267.846 288.003 267.566C287.698 267.721 287.424 267.913 287.139 268.087C286.916 268.269 286.643 268.392 286.349 268.443C286.087 268.496 285.815 268.487 285.559 268.416C285.302 268.345 285.07 268.215 284.884 268.038C284.585 267.781 284.211 267.61 283.806 267.545C283.402 267.48 282.986 267.524 282.609 267.672C282.261 267.82 281.965 268.053 281.755 268.347C281.565 268.616 281.365 268.857 281.186 269.137C281.534 268.973 281.808 268.78 282.092 268.607L282.05 268.616Z" fill="white"/>
<path d="M288.762 236.512C287.603 240.365 286.479 244.218 285.39 248.071C285.527 246.385 285.727 244.709 285.97 243.033C285.97 242.937 285.822 242.888 285.791 243.033C285.342 245.112 285.091 247.223 285.042 249.342C283.736 253.998 282.514 258.669 281.376 263.357C279.216 272.344 277.288 281.408 275.686 290.491C274.79 295.625 274.095 300.779 273.136 305.903C273.136 305.999 273.284 306.038 273.305 305.903C274.179 301.366 275.349 296.858 276.466 292.35C277.583 287.842 278.573 283.392 279.627 278.913C281.671 269.888 283.841 260.891 285.864 251.875C287.013 246.79 288.077 241.694 289.225 236.618C289.233 236.59 289.235 236.561 289.23 236.533C289.225 236.504 289.215 236.477 289.198 236.452C289.166 236.403 289.113 236.367 289.052 236.353C288.99 236.339 288.925 236.348 288.871 236.378C288.816 236.407 288.777 236.456 288.762 236.512Z" fill="#263238"/>
<path d="M283.82 176.512C285.222 183.524 280.902 190.123 274.169 191.25C267.436 192.377 260.851 187.599 259.418 180.587C257.985 173.574 262.326 166.967 269.059 165.849C275.792 164.732 282.419 169.5 283.82 176.512Z" fill="#455A64"/>
<path d="M287.856 176.291C289.415 184.093 284.61 191.433 277.13 192.666C269.649 193.898 262.305 188.61 260.745 180.808C259.186 173.006 263.991 165.666 271.472 164.433C278.952 163.2 286.296 168.488 287.856 176.291Z" fill="#292929"/>
<path d="M309.213 231.349C316.842 231.349 326.546 218.48 329.232 209.195C329.412 208.559 320.93 186.722 319.75 182.224C319.507 181.261 290.785 195.883 290.785 195.883C290.785 195.883 296.306 204.619 298.329 212.45C298.519 213.153 301.838 231.378 309.213 231.349Z" fill="#DD6A57"/>
<path d="M301.88 214.155C300.883 214.408 299.864 214.579 298.835 214.666C298.708 214.117 298.603 213.654 298.529 213.298C298.533 213.282 298.533 213.266 298.529 213.25C298.534 213.208 298.534 213.166 298.529 213.125C298.529 212.99 298.476 212.845 298.434 212.701C298.439 212.672 298.439 212.643 298.434 212.614V212.499C297.968 210.749 297.391 209.025 296.706 207.336C295.364 204.065 293.795 200.877 292.007 197.79C291.859 197.533 291.723 197.302 291.596 197.096L290.922 195.96L291.68 195.565L292.734 195.054L293.408 194.717L294.241 194.293L295.01 193.908L295.157 193.831L296.211 193.33L296.443 193.215L297.444 192.714L297.971 192.454L299.593 191.645L300.837 191.028L301.89 190.508L305.494 188.736L306.653 188.158L310.815 186.154L311.71 185.73L312.153 185.393L312.859 185.056L314.376 184.353L315.303 183.929C315.756 183.717 316.178 183.534 316.578 183.361C316.778 183.264 316.978 183.187 317.157 183.11C317.705 182.869 318.211 182.677 318.569 182.532L318.822 182.436C319.18 190.065 318.475 210.09 301.88 214.155Z" fill="#263238"/>
<path d="M311.162 148.472C317.958 157.228 322.594 187.069 317.305 195.671C309.635 208.116 291.965 214.463 279.11 204.966C266.656 195.767 261.378 156.804 267.763 148.482C277.161 136.268 301.111 135.556 311.162 148.472Z" fill="#DD6A57"/>
<path d="M286.865 174.798C286.865 174.711 287.044 174.865 287.055 174.952C287.308 176.965 287.972 179.238 290.068 179.643C290.132 179.643 290.142 179.758 290.068 179.758C287.54 179.797 286.697 176.772 286.865 174.798Z" fill="#263238"/>
<path d="M288.435 172.457C291.933 171.744 293.25 178.236 290.005 178.853C286.76 179.469 285.506 173.064 288.435 172.457Z" fill="#263238"/>
<path d="M274.812 177.186C274.812 177.109 274.664 177.302 274.675 177.389C275.159 179.373 275.338 181.714 273.495 182.715C273.442 182.715 273.495 182.85 273.495 182.831C275.886 182.109 275.612 178.997 274.812 177.186Z" fill="#263238"/>
<path d="M272.441 175.433C268.88 175.79 269.912 182.272 273.221 181.945C276.529 181.617 275.423 175.135 272.441 175.433Z" fill="#263238"/>
<path d="M290.616 169.018C289.639 168.929 288.668 168.791 287.708 168.604C286.655 168.586 285.639 168.247 284.821 167.641C284.606 167.406 284.48 167.114 284.462 166.808C284.445 166.502 284.538 166.199 284.726 165.946C285.188 165.504 285.77 165.182 286.412 165.013C287.055 164.844 287.734 164.833 288.383 164.982C289.748 165.1 291.017 165.677 291.944 166.601C292.146 166.821 292.273 167.091 292.309 167.376C292.346 167.662 292.29 167.951 292.149 168.208C292.008 168.465 291.787 168.679 291.515 168.823C291.243 168.967 290.93 169.035 290.616 169.018Z" fill="#263238"/>
<path d="M269.048 172.65C269.958 172.314 270.848 171.935 271.714 171.513C272.713 171.226 273.583 170.647 274.19 169.866C274.327 169.586 274.359 169.273 274.281 168.975C274.203 168.677 274.019 168.411 273.758 168.219C273.181 167.909 272.525 167.745 271.856 167.745C271.187 167.745 270.531 167.909 269.954 168.219C268.672 168.672 267.625 169.554 267.025 170.685C266.903 170.948 266.867 171.238 266.922 171.52C266.977 171.802 267.12 172.062 267.335 172.271C267.549 172.479 267.826 172.626 268.13 172.693C268.434 172.76 268.753 172.745 269.048 172.65Z" fill="#263238"/>
<path d="M293.187 192.877C292.766 193.436 292.376 194.168 291.596 194.361C290.78 194.488 289.943 194.455 289.141 194.265C289.125 194.258 289.106 194.257 289.089 194.263C289.072 194.268 289.058 194.278 289.049 194.293C289.039 194.307 289.036 194.323 289.04 194.34C289.043 194.356 289.053 194.37 289.067 194.38C289.459 194.719 289.945 194.955 290.472 195.062C290.999 195.169 291.548 195.143 292.06 194.987C292.483 194.806 292.838 194.515 293.08 194.15C293.322 193.784 293.44 193.362 293.419 192.935C293.43 192.81 293.25 192.8 293.187 192.877Z" fill="#263238"/>
<path d="M289.678 187.32C289.283 188.201 288.692 188.999 287.943 189.662C287.194 190.325 286.303 190.839 285.327 191.173C284.48 191.478 283.589 191.67 282.682 191.741C282.507 191.755 282.331 191.755 282.155 191.741C281.994 191.751 281.832 191.751 281.671 191.741C281.55 191.741 281.432 191.706 281.335 191.64C281.238 191.574 281.168 191.481 281.133 191.375C281.128 191.308 281.128 191.24 281.133 191.173V190.999C280.775 189.468 280.459 187.146 280.459 187.146C279.901 187.532 277.035 189.352 276.919 188.543C275.992 181.8 274.959 174.345 275.591 167.477C275.602 167.434 275.628 167.396 275.665 167.369C275.703 167.342 275.749 167.327 275.797 167.327C275.844 167.327 275.891 167.342 275.928 167.369C275.965 167.396 275.992 167.434 276.002 167.477C277.172 173.911 277.056 180.481 278.162 186.954C279.177 186.289 280.292 185.76 281.471 185.384C281.723 185.384 281.987 189.959 282.208 190.633V190.71C285.095 190.556 287.065 189.41 289.457 187.204C289.573 187.011 289.773 187.117 289.678 187.32Z" fill="#263238"/>
<path d="M283.515 190.787C284.657 191.735 286.047 192.398 287.55 192.714C288.377 192.855 289.231 192.758 289.995 192.434C291.649 191.722 291.396 190.248 290.817 189.053C290.506 188.419 290.114 187.82 289.647 187.271C288.066 189.012 285.917 190.244 283.515 190.787Z" fill="#263238"/>
<path d="M287.55 192.685C288.377 192.826 289.231 192.729 289.995 192.405C291.649 191.693 291.396 190.219 290.816 189.025C288.973 189.525 287.371 190.999 287.55 192.685Z" fill="#FF99BA"/>
<path opacity="0.2" d="M309.94 161.004C312.111 163.518 316.852 169.548 318.464 169.625C316.799 159.906 314.091 151.42 309.856 146.902C308.104 145.037 305.993 143.48 303.629 142.308C304.24 144.87 307.633 158.423 309.94 161.004Z" fill="#263238"/>
<path d="M278.267 155.1C279.582 156.226 281.19 157.026 282.939 157.422C284.688 157.818 286.518 157.798 288.256 157.363C290.036 156.921 291.662 156.069 292.979 154.888C294.296 153.708 295.26 152.239 295.779 150.621C295.779 150.6 295.788 150.58 295.804 150.566C295.82 150.552 295.841 150.543 295.863 150.543C295.886 150.543 295.907 150.552 295.923 150.566C295.939 150.58 295.948 150.6 295.948 150.621C295.558 152.357 294.659 153.964 293.347 155.269C292.034 156.573 290.358 157.527 288.498 158.028C286.638 158.423 284.697 158.364 282.87 157.857C281.043 157.35 279.394 156.412 278.088 155.138C278.097 155.124 278.109 155.113 278.122 155.103C278.136 155.094 278.152 155.087 278.169 155.083C278.186 155.08 278.203 155.079 278.22 155.082C278.237 155.085 278.253 155.091 278.267 155.1Z" fill="#263238"/>
<path d="M286.212 130.277C292.313 129.776 298.276 132.281 300.963 135.845C302.464 137.871 303.169 140.302 302.965 142.741C302.965 142.838 302.744 142.838 302.744 142.741C302.612 140.615 301.858 138.56 300.56 136.791C299.263 135.022 297.47 133.604 295.368 132.685C293.056 131.613 290.503 131.046 287.91 131.029C285.318 131.012 282.756 131.546 280.428 132.589C278.147 133.556 276.319 135.237 275.275 137.328C275.18 137.54 274.706 137.453 274.78 137.241C275.971 133.591 280.691 130.739 286.212 130.277Z" fill="#263238"/>
<path d="M252.358 145.978C253.015 143.127 254.755 140.582 257.268 138.792C260.735 136.297 265.002 136.172 269.227 136.134C269.343 136.134 269.354 136.297 269.227 136.297C265.624 136.345 261.968 136.586 258.88 138.455C256.318 139.984 254.415 142.279 253.496 144.947C252.639 147.681 252.887 150.606 254.195 153.187C255.503 155.767 257.783 157.831 260.619 159.001C262.272 159.634 264.049 159.952 265.841 159.933C267.633 159.915 269.403 159.562 271.04 158.895C271.166 158.847 271.292 159.01 271.155 159.068C268.953 160.057 266.492 160.466 264.049 160.249C261.607 160.031 259.278 159.196 257.326 157.837C255.373 156.478 253.873 154.649 252.994 152.554C252.115 150.459 251.891 148.182 252.348 145.978H252.358Z" fill="#263238"/>
<path d="M314.566 154.849C314.566 154.849 319.065 144.254 313.512 139.052C310.351 136.085 301.342 137.482 301.342 137.482C299.927 135.972 298.198 134.733 296.255 133.837C294.313 132.941 292.196 132.406 290.026 132.261C282.229 131.481 273.716 136.509 273.716 136.509C273.716 136.509 266.014 133.504 259.702 137.761C250.915 143.695 253.781 156.689 263.801 159.916C270.85 162.16 279.195 155.803 279.195 155.803C280.08 155.803 289.615 159.762 295.421 151.776C295.421 151.776 301.458 155.629 305.957 151.998C306.899 153.223 308.23 154.153 309.77 154.663C311.31 155.173 312.984 155.238 314.566 154.849Z" fill="#263238"/>
<path d="M312.943 173.411C312.943 173.411 316.831 162.276 322.152 163.239C327.473 164.202 326.725 179.007 322.004 182.34C321.432 182.805 320.762 183.16 320.036 183.383C319.309 183.606 318.541 183.692 317.777 183.636C317.013 183.581 316.269 183.384 315.591 183.059C314.912 182.733 314.312 182.285 313.828 181.743L312.943 173.411Z" fill="#DD6A57"/>
<path d="M321.825 167.477C321.91 167.477 321.962 167.554 321.899 167.602C318.622 170.049 317.737 173.786 317.474 177.466C318.159 175.886 319.433 174.759 321.688 175.443C321.815 175.443 321.762 175.645 321.688 175.655C320.965 175.651 320.257 175.851 319.663 176.229C319.069 176.606 318.617 177.143 318.369 177.764C317.965 178.806 317.685 179.885 317.537 180.982C317.463 181.338 316.81 181.348 316.82 180.982V180.895C315.219 176.531 316.852 169.375 321.825 167.477Z" fill="#263238"/>
<path d="M318.822 164.973C318.822 164.973 318.064 149.378 312.069 141.354C305.388 132.415 286.95 126.434 273.758 136.538C273.758 136.538 292.913 131.982 305.462 142.751C311.226 147.702 313.228 165.984 313.228 165.984L318.822 164.973Z" fill="#292929"/>
<path d="M319.216 187.431C326.789 186.729 332.218 179.763 331.343 171.871C330.467 163.98 323.619 158.152 316.047 158.854C308.474 159.556 303.045 166.522 303.92 174.413C304.795 182.305 311.644 188.133 319.216 187.431Z" fill="#292929"/>
<path d="M310.117 173.808C310.788 179.641 316.012 183.946 321.79 183.424C327.569 182.901 331.711 177.757 331.049 171.933C330.387 166.108 325.154 161.803 319.366 162.317C313.579 162.832 309.446 167.984 310.117 173.808Z" fill="#455A64"/>
<path d="M349.336 215.677C369.755 235.674 418.339 310.71 402.587 324.522C386.835 338.335 299.435 319.706 274.885 309.043C267.573 305.865 295.326 264.234 303.913 263.261C311.057 262.452 347.597 277.709 348.651 275.783C349.852 273.616 341.549 259.678 332.762 230.655C322.626 197.241 340.317 206.844 349.336 215.677Z" fill="#DD6A57"/>
<path d="M267.626 249.843C249.882 247.589 244.941 249.496 231.075 240.317C221.971 234.296 213.858 237.022 219.042 246.597C227.545 262.249 249.777 269.56 258.28 270.071L267.626 249.843Z" fill="#DD6A57"/>
<path d="M314.776 265.467C314.776 265.467 294.831 255.343 276.181 251.22C263.274 248.379 234.457 245.036 206.883 271.034C200.34 277.208 195.799 290.231 210.487 283.71C220.918 279.067 225.996 273.249 232.613 271.564C232.613 271.564 228.999 288.767 236.006 294.508C242.14 299.535 248.658 304.158 255.509 308.34C256.632 307.367 257.687 306.331 258.67 305.238C258.67 305.238 265.782 310.055 279.153 308.879L314.776 265.467Z" fill="#DD6A57"/>
<path d="M263.39 250.305C257.226 253.243 244.266 259.678 235.669 268.308C226.123 277.892 210.55 298.717 218.357 305.094C224.089 309.766 230.801 302.291 230.801 302.291C230.801 302.291 226.354 312.135 232.539 315.323C238.176 318.213 242.981 312.164 242.981 312.164C242.981 312.164 241.411 318.56 247.427 320.4C254.666 322.615 256.784 308.841 266.235 305.287C268.353 304.497 263.39 250.305 263.39 250.305Z" fill="#DD6A57"/>
<path d="M248.428 275.841C243.16 279.482 233.393 290.559 230.706 302.031C230.643 302.291 230.822 302.474 230.938 302.252C235.612 292.859 241.52 284.022 248.534 275.937C248.576 275.869 248.492 275.802 248.428 275.841Z" fill="#263238"/>
<path d="M258.744 284.934C254.529 288.507 245.046 300.345 242.749 312.048C242.697 312.309 242.897 312.482 243.002 312.251C247.131 302.655 252.433 293.517 258.807 285.011C258.891 284.953 258.796 284.895 258.744 284.934Z" fill="#263238"/>
<path d="M232.603 271.458C226.818 273.018 223.057 275.609 218.168 278.711C215.774 280.275 213.287 281.715 210.718 283.026C208.358 284.192 204.892 285.916 202.373 284.124C200.983 283.113 201.004 281.235 201.32 279.809C201.655 278.163 202.373 276.603 203.427 275.234C203.48 275.166 203.353 275.08 203.301 275.147C202.304 276.34 201.498 277.657 200.909 279.058C200.28 280.355 200.096 281.796 200.382 283.19C201.236 286.08 204.997 286.484 207.652 285.685C209.243 285.155 210.771 284.481 212.214 283.672C213.616 282.93 214.975 282.14 216.313 281.312C219.063 279.607 221.708 277.767 224.437 276.043C227.086 274.413 229.849 272.943 232.708 271.641C232.734 271.628 232.754 271.606 232.763 271.58C232.772 271.554 232.769 271.526 232.755 271.501C232.741 271.477 232.717 271.459 232.689 271.451C232.66 271.443 232.629 271.445 232.603 271.458Z" fill="#263238"/>
<path d="M220.486 290.068C221.982 287.053 230.084 274.492 232.719 271.583C232.728 271.568 232.733 271.551 232.73 271.534C232.728 271.517 232.72 271.501 232.706 271.488C232.693 271.476 232.675 271.468 232.657 271.466C232.638 271.464 232.619 271.468 232.603 271.477C228.093 275.388 220.844 285.762 219.158 289.095C217.472 292.427 215.565 296.579 215.565 300.239C215.565 305.768 219.569 306.808 221.055 307.078C222.813 307.371 224.629 307.102 226.196 306.317C228.033 305.284 229.62 303.921 230.864 302.31C230.927 302.233 230.811 302.127 230.738 302.204C228.63 304.381 225.164 306.529 221.887 306.134C221.161 306.071 220.456 305.875 219.814 305.559C219.172 305.243 218.605 304.813 218.147 304.294C217.251 302.965 216.907 301.386 217.177 299.844C217.662 296.437 218.781 293.13 220.486 290.068Z" fill="#263238"/>
<path d="M242.749 312.048C241.906 312.703 240.178 314.996 237.428 315.487C236.452 315.73 235.425 315.752 234.438 315.55C233.45 315.349 232.531 314.931 231.76 314.331C230.343 312.98 229.56 311.175 229.579 309.303C229.807 306.959 230.229 304.634 230.843 302.349C230.843 302.243 230.727 302.195 230.695 302.301C229.685 304.695 229.071 307.215 228.873 309.775C228.835 310.789 229.02 311.799 229.418 312.746C229.817 313.692 230.419 314.556 231.191 315.285C232.021 315.999 233.051 316.489 234.166 316.701C235.282 316.914 236.44 316.84 237.513 316.489C238.566 316.123 241.991 314.129 242.97 312.164C243.002 312.116 242.791 312.02 242.749 312.048Z" fill="#263238"/>
<path d="M265.666 304.294C264.735 304.864 263.877 305.527 263.106 306.269C262.252 307.02 261.43 307.801 260.64 308.59C259.04 310.195 257.628 311.948 256.425 313.821C255.203 315.699 254.076 317.789 252.084 319.09C251.139 319.749 249.991 320.118 248.803 320.146C247.615 320.173 246.448 319.858 245.468 319.244C244.435 318.558 243.691 317.568 243.36 316.441C242.967 315.217 242.838 313.934 242.981 312.665C242.981 312.644 242.972 312.625 242.956 312.61C242.94 312.596 242.919 312.588 242.897 312.588C242.874 312.588 242.853 312.596 242.837 312.61C242.821 312.625 242.812 312.644 242.812 312.665C242.593 313.793 242.495 314.939 242.517 316.084C242.626 317.126 243.033 318.123 243.697 318.974C244.415 319.811 245.371 320.45 246.46 320.823C247.549 321.195 248.73 321.285 249.872 321.084C252.401 320.66 254.244 318.926 255.625 317.048C257.142 314.957 258.406 312.732 260.039 310.7C260.893 309.631 261.736 308.552 262.674 307.541C263.611 306.529 264.781 305.547 265.729 304.449C265.877 304.362 265.792 304.237 265.666 304.294Z" fill="#263238"/>
<path d="M272.736 309.014C269.434 308.682 266.174 308.063 263 307.165C262.895 307.165 262.758 307.396 262.853 307.444C264.387 308.087 265.995 308.572 267.647 308.889C269.311 309.216 271.019 309.314 272.715 309.178C272.799 309.168 272.841 309.024 272.736 309.014Z" fill="#263238"/>
<path d="M381.693 290.385C371.507 284.082 360.344 279.212 348.577 275.937C345.248 274.974 341.887 274.165 338.525 273.327C338.509 273.332 338.495 273.342 338.486 273.355C338.476 273.368 338.47 273.383 338.47 273.399C338.47 273.415 338.476 273.43 338.486 273.443C338.495 273.456 338.509 273.466 338.525 273.471C344.382 275.143 350.13 277.117 355.742 279.385C361.361 281.594 366.911 283.893 372.39 286.282C375.55 287.64 378.543 289.124 381.609 290.568C381.623 290.58 381.639 290.589 381.657 290.593C381.675 290.598 381.694 290.598 381.712 290.595C381.731 290.591 381.748 290.584 381.762 290.573C381.777 290.562 381.788 290.548 381.795 290.532C381.802 290.517 381.805 290.499 381.804 290.482C381.802 290.465 381.796 290.449 381.786 290.435C381.776 290.42 381.763 290.408 381.746 290.399C381.73 290.391 381.712 290.386 381.693 290.385Z" fill="#263238"/>
<path d="M391.176 262.837L341.602 261.334C341.602 261.334 332.372 238.968 328.863 219.068C325.355 199.167 343.183 205.245 361.79 226.552C380.397 247.859 391.176 262.837 391.176 262.837Z" fill="#038C7F"/>
<path d="M347.113 244.719C346.883 244.892 346.613 245.014 346.322 245.075C346.06 245.126 345.787 245.115 345.531 245.042C345.275 244.97 345.043 244.839 344.858 244.661C344.642 244.463 344.381 244.312 344.093 244.219C343.805 244.126 343.497 244.093 343.194 244.124C342.89 244.154 342.598 244.247 342.339 244.395C342.079 244.543 341.86 244.743 341.697 244.979C341.507 245.239 341.297 245.48 341.128 245.759C341.433 245.605 341.697 245.412 341.992 245.239C342.216 245.058 342.483 244.926 342.772 244.853C343.03 244.794 343.301 244.796 343.559 244.858C343.817 244.92 344.054 245.041 344.247 245.21C344.535 245.473 344.9 245.653 345.299 245.73C345.697 245.807 346.111 245.777 346.491 245.643C346.847 245.504 347.15 245.273 347.366 244.979C347.555 244.719 347.766 244.478 347.934 244.198C347.661 244.353 347.397 244.545 347.113 244.719ZM362.728 236.387C362.654 236.078 362.612 235.77 362.517 235.423C362.422 235.732 362.38 236.04 362.317 236.387C362.297 236.658 362.21 236.921 362.064 237.157C361.929 237.368 361.736 237.543 361.506 237.666C361.275 237.789 361.014 237.856 360.747 237.86C360.337 237.861 359.937 237.971 359.594 238.176C359.252 238.381 358.982 238.673 358.819 239.016C358.676 239.343 358.639 239.701 358.713 240.047C358.776 240.355 358.819 240.663 358.913 241.01C359.008 240.702 359.05 240.394 359.124 240.047C359.146 239.777 359.24 239.515 359.398 239.286C359.545 239.08 359.747 238.911 359.984 238.794C360.222 238.678 360.488 238.619 360.757 238.621C361.057 238.618 361.353 238.555 361.623 238.435C361.893 238.316 362.131 238.143 362.319 237.929C362.508 237.715 362.642 237.466 362.713 237.2C362.783 236.933 362.788 236.655 362.728 236.387ZM345.311 211.468C345.3 211.577 345.3 211.686 345.311 211.795C345.385 212.094 345.416 212.402 345.511 212.71C345.606 212.402 345.648 212.094 345.722 211.795C345.627 211.66 345.479 211.564 345.332 211.468H345.311ZM380.64 249.159C380.269 249.151 379.916 249.009 379.66 248.764C379.369 248.501 379.002 248.321 378.601 248.246C378.201 248.171 377.785 248.203 377.405 248.34C377.05 248.476 376.746 248.704 376.53 248.995C376.341 249.265 376.13 249.506 375.961 249.785C376.267 249.631 376.53 249.438 376.825 249.265C377.046 249.085 377.315 248.962 377.605 248.909C377.868 248.855 378.142 248.865 378.4 248.936C378.658 249.006 378.892 249.136 379.08 249.313C379.347 249.544 379.674 249.707 380.031 249.787C380.388 249.866 380.761 249.859 381.114 249.766L380.64 249.159ZM346.333 226.571C346.035 226.547 345.747 226.461 345.49 226.321C345.266 226.186 345.082 226.001 344.957 225.784C344.832 225.567 344.768 225.324 344.774 225.078C344.762 224.702 344.629 224.338 344.393 224.03C344.158 223.722 343.828 223.483 343.446 223.344C343.084 223.229 342.694 223.205 342.319 223.277C341.981 223.344 341.644 223.383 341.265 223.47C341.602 223.547 341.939 223.585 342.319 223.653C342.618 223.671 342.91 223.75 343.172 223.884C343.401 224.009 343.591 224.185 343.726 224.395C343.86 224.606 343.934 224.844 343.941 225.088C343.942 225.462 344.062 225.828 344.286 226.141C344.511 226.454 344.83 226.701 345.206 226.851C345.563 226.981 345.955 227.015 346.333 226.947C346.66 226.88 346.997 226.851 347.334 226.764C347.028 226.677 346.691 226.639 346.365 226.571H346.333ZM369.134 258.271C368.837 258.248 368.551 258.159 368.301 258.011C368.074 257.879 367.887 257.695 367.76 257.477C367.632 257.259 367.568 257.015 367.574 256.769C367.574 256.494 367.505 256.223 367.375 255.975C367.245 255.728 367.055 255.51 366.821 255.338C366.586 255.167 366.313 255.045 366.02 254.982C365.728 254.92 365.423 254.918 365.13 254.977C364.793 255.044 364.456 255.073 364.076 255.16C364.413 255.247 364.751 255.285 365.13 255.353C365.427 255.366 365.716 255.446 365.973 255.584C366.204 255.706 366.397 255.881 366.532 256.093C366.667 256.304 366.739 256.543 366.742 256.788C366.745 257.161 366.866 257.525 367.09 257.836C367.314 258.147 367.633 258.392 368.006 258.541C368.362 258.679 368.755 258.716 369.134 258.647C369.471 258.579 369.808 258.541 370.187 258.454C369.84 258.368 369.503 258.329 369.165 258.271H369.134Z" fill="white"/>
<path d="M343.636 261.18C343.362 261.18 341.623 260.901 341.613 260.901C341.486 260.313 338.662 250.96 337.914 248.928C336.408 244.776 334.627 240.702 332.91 236.627C332.894 236.606 332.872 236.591 332.846 236.582C332.82 236.574 332.792 236.574 332.766 236.581C332.74 236.589 332.717 236.604 332.701 236.625C332.685 236.645 332.677 236.67 332.678 236.695C333.795 240.201 334.848 243.726 335.997 247.233C335.649 246.732 335.312 246.269 334.943 245.73C334.279 244.69 333.689 243.611 333.068 242.551C333.054 242.533 333.033 242.519 333.009 242.513C332.986 242.506 332.96 242.508 332.937 242.517C332.915 242.526 332.896 242.542 332.886 242.563C332.875 242.583 332.872 242.606 332.878 242.628C333.409 244.098 334.141 245.499 335.059 246.799C335.454 247.356 335.887 247.89 336.355 248.398L336.639 249.275C337.345 251.317 340.97 261.44 341.16 261.45H343.551C343.762 261.488 343.762 261.18 343.636 261.18Z" fill="#263238"/>
<path d="M383.137 254.062C372.453 253.33 361.685 253.282 350.958 253.436C347.917 253.474 344.879 253.58 341.844 253.754C341.831 253.759 341.819 253.767 341.811 253.778C341.802 253.79 341.798 253.803 341.798 253.816C341.798 253.83 341.802 253.843 341.811 253.854C341.819 253.865 341.831 253.874 341.844 253.879C347.197 254.139 352.549 254.197 357.913 254.293C363.276 254.389 368.66 254.428 374.033 254.38C377.068 254.38 380.102 254.332 383.137 254.245C383.158 254.239 383.176 254.226 383.189 254.21C383.202 254.193 383.209 254.174 383.209 254.153C383.209 254.133 383.202 254.113 383.189 254.097C383.176 254.081 383.158 254.068 383.137 254.062Z" fill="#263238"/>
<path d="M211.508 341.109H219.074V336.592H211.508V341.109Z" fill="#455A64"/>
<path d="M201.699 340.811H209.264V336.293H201.699V340.811Z" fill="#455A64"/>
<path d="M191.879 340.512H199.444V335.994H191.879V340.512Z" fill="#455A64"/>
<path d="M182.07 340.213H189.635V335.696H182.07V340.213Z" fill="#455A64"/>
<path d="M172.25 339.915H179.815V335.397H172.25V339.915Z" fill="#455A64"/>
<path d="M162.44 339.616H170.006V335.099H162.44V339.616Z" fill="#455A64"/>
<path d="M152.62 339.318H160.186V334.8H152.62V339.318Z" fill="#455A64"/>
<path d="M142.811 339.019H150.376V334.501H142.811V339.019Z" fill="#455A64"/>
<path d="M132.991 338.72H140.556V334.203H132.991V338.72Z" fill="#455A64"/>
<path d="M131.137 343.71H220.928V338.219L131.137 335.927V343.71Z" fill="#37474F"/>
<path d="M43.5049 322.037H191.732L168.162 221.148H19.9243L43.5049 322.037Z" fill="#455A64"/>
<path d="M38.0155 322.037H186.253L162.672 221.148H14.4454L38.0155 322.037Z" fill="#37474F"/>
<path d="M87.5368 265.746C87.9893 268.044 89.291 270.13 91.2243 271.655C93.1575 273.18 95.605 274.053 98.1575 274.126C99.3099 274.159 100.456 273.954 101.509 273.524C102.561 273.094 103.494 272.452 104.236 271.646C104.979 270.839 105.511 269.889 105.794 268.867C106.077 267.845 106.103 266.778 105.87 265.746C105.412 263.451 104.109 261.368 102.177 259.843C100.245 258.319 97.8002 257.444 95.2495 257.366C94.097 257.332 92.9513 257.538 91.8984 257.968C90.8455 258.397 89.9129 259.04 89.1705 259.846C88.4282 260.653 87.8955 261.603 87.6126 262.625C87.3296 263.646 87.3037 264.714 87.5368 265.746Z" fill="#263238"/>
<path d="M79.9399 348.382H152.842V343.209L79.9399 341.051V348.382Z" fill="#455A64"/>
<path d="M60.121 348.372H99.2639L122.834 291.849H83.691L60.121 348.372Z" fill="#455A64"/>
<path d="M53.6725 348.372H92.8154L116.396 291.849H77.253L53.6725 348.372Z" fill="#263238"/>
<path d="M223.699 349.759H298.866C305.283 349.759 296 333.066 272.588 326.641C249.176 320.217 216.271 343.498 223.699 349.759Z" fill="#37474F"/>
<path d="M253.201 349.759C252.726 347.938 252.117 346.149 251.378 344.403C250.648 342.68 249.756 341.017 248.713 339.433C247.688 337.845 246.465 336.371 245.067 335.041L244.013 334.078L242.844 333.182C242.106 332.527 241.19 332.103 240.378 331.506C242.313 332.222 244.096 333.243 245.647 334.521C247.215 335.802 248.558 337.297 249.629 338.952C250.699 340.597 251.552 342.353 252.169 344.182C252.777 345.992 253.124 347.867 253.201 349.759Z" fill="#263238"/>
<path d="M244.287 333.875C243.234 334.376 242.233 334.839 241.221 335.388C240.21 335.937 239.188 336.418 238.197 336.958C236.217 338.046 234.246 339.144 232.381 340.377C230.487 341.564 228.723 342.916 227.113 344.413C226.315 345.159 225.608 345.983 225.006 346.869C224.376 347.754 223.919 348.731 223.657 349.759C223.724 348.677 224.029 347.619 224.553 346.648C225.088 345.677 225.738 344.763 226.491 343.922C228.034 342.274 229.805 340.816 231.76 339.587C235.61 337.143 239.826 335.219 244.277 333.875H244.287Z" fill="#263238"/>
<path d="M364.824 309.775L360.357 361.058H329.506L325.039 309.775H364.824Z" fill="#038C7F"/>
<path opacity="0.1" d="M364.824 309.775L360.357 361.058H329.506L325.039 309.775H364.824Z" fill="black"/>
<path d="M367.48 305.152H322.12V312.626H367.48V305.152Z" fill="#455A64"/>
<path d="M364.371 305.152H325.228L327.515 296.752H362.085L364.371 305.152Z" fill="#37474F"/>
<path d="M355.647 335.869C355.647 342.525 350.853 347.919 344.931 347.919C339.01 347.919 334.216 342.525 334.216 335.869C334.216 329.213 339.021 323.81 344.931 323.81C350.842 323.81 355.647 329.213 355.647 335.869Z" fill="white"/>
<path d="M235.059 221.993C235.059 223.865 234.579 225.305 233.619 226.313C232.659 227.297 231.303 227.789 229.551 227.789C227.799 227.789 226.443 227.297 225.483 226.313C224.523 225.305 224.043 223.865 224.043 221.993V220.517H226.995V222.137C226.995 223.097 227.211 223.841 227.643 224.369C228.099 224.873 228.735 225.125 229.551 225.125C230.391 225.125 231.027 224.873 231.459 224.369C231.915 223.841 232.143 223.097 232.143 222.137V204.713H235.059V221.993Z" fill="#EBEBEB"/>
</svg>
