<svg width="21" height="21" viewBox="0 0 21 21" fill="none" xmlns="http://www.w3.org/2000/svg">
<path d="M19.6875 11.1562V16.4062C19.6875 16.7543 19.5492 17.0882 19.3031 17.3343C19.0569 17.5805 18.7231 17.7188 18.375 17.7188H2.625C2.2769 17.7188 1.94306 17.5805 1.69692 17.3343C1.45078 17.0882 1.3125 16.7543 1.3125 16.4062V11.1562C1.3125 10.8082 1.45078 10.4743 1.69692 10.2282C1.94306 9.98203 2.2769 9.84375 2.625 9.84375H5.90625C6.0803 9.84375 6.24722 9.91289 6.37029 10.036C6.49336 10.159 6.5625 10.326 6.5625 10.5C6.5625 10.674 6.49336 10.841 6.37029 10.964C6.24722 11.0871 6.0803 11.1562 5.90625 11.1562H2.625V16.4062H18.375V11.1562H15.0938C14.9197 11.1562 14.7528 11.0871 14.6297 10.964C14.5066 10.841 14.4375 10.674 14.4375 10.5C14.4375 10.326 14.5066 10.159 14.6297 10.036C14.7528 9.91289 14.9197 9.84375 15.0938 9.84375H18.375C18.7231 9.84375 19.0569 9.98203 19.3031 10.2282C19.5492 10.4743 19.6875 10.8082 19.6875 11.1562ZM10.0357 10.9643C10.0967 11.0253 10.169 11.0737 10.2487 11.1067C10.3284 11.1398 10.4138 11.1568 10.5 11.1568C10.5862 11.1568 10.6716 11.1398 10.7513 11.1067C10.831 11.0737 10.9033 11.0253 10.9643 10.9643L14.9018 7.0268C15.0249 6.90366 15.0941 6.73665 15.0941 6.5625C15.0941 6.38835 15.0249 6.22134 14.9018 6.0982C14.7787 5.97506 14.6116 5.90589 14.4375 5.90589C14.2634 5.90589 14.0963 5.97506 13.9732 6.0982L11.1562 8.91598V1.96875C11.1562 1.7947 11.0871 1.62778 10.964 1.50471C10.841 1.38164 10.674 1.3125 10.5 1.3125C10.326 1.3125 10.159 1.38164 10.036 1.50471C9.91289 1.62778 9.84375 1.7947 9.84375 1.96875V8.91598L7.0268 6.0982C6.90366 5.97506 6.73665 5.90589 6.5625 5.90589C6.38835 5.90589 6.22134 5.97506 6.0982 6.0982C5.97506 6.22134 5.90589 6.38835 5.90589 6.5625C5.90589 6.73665 5.97506 6.90366 6.0982 7.0268L10.0357 10.9643ZM16.4062 13.7812C16.4062 13.5866 16.3485 13.3962 16.2404 13.2344C16.1322 13.0725 15.9784 12.9463 15.7986 12.8718C15.6187 12.7973 15.4208 12.7778 15.2298 12.8158C15.0389 12.8538 14.8635 12.9475 14.7258 13.0852C14.5882 13.2229 14.4944 13.3983 14.4564 13.5892C14.4184 13.7802 14.4379 13.9781 14.5124 14.158C14.5869 14.3378 14.7131 14.4916 14.875 14.5997C15.0369 14.7079 15.2272 14.7656 15.4219 14.7656C15.6829 14.7656 15.9333 14.6619 16.1179 14.4773C16.3025 14.2927 16.4062 14.0423 16.4062 13.7812Z" fill="white"/>
</svg>
