<svg width="52" height="52" viewBox="0 0 52 52" fill="none" xmlns="http://www.w3.org/2000/svg">
<path d="M19.5 28.1667C18.07 28.8817 16.8783 29.9434 15.99 31.265C15.4916 32.0234 15.4916 32.9767 15.99 33.735C16.8783 35.0567 18.07 36.1184 19.5 36.8334" stroke="white" stroke-width="3" stroke-linecap="round" stroke-linejoin="round"/>
<path d="M32.9551 28.1667C34.3851 28.8817 35.5767 29.9434 36.4651 31.265C36.9634 32.0234 36.9634 32.9767 36.4651 33.735C35.5767 35.0567 34.3851 36.1184 32.9551 36.8334" stroke="white" stroke-width="3" stroke-linecap="round" stroke-linejoin="round"/>
<path d="M4.33325 28.1666V32.5C4.33325 43.3333 8.66659 47.6666 19.4999 47.6666H32.4999C43.3333 47.6666 47.6666 43.3333 47.6666 32.5V19.5C47.6666 8.66665 43.3333 4.33331 32.4999 4.33331H19.4999C8.66659 4.33331 4.33325 8.66665 4.33325 19.5" stroke="white" stroke-width="3" stroke-linecap="round" stroke-linejoin="round"/>
<path d="M4.83179 17.355L46.4751 17.3333" stroke="white" stroke-width="3" stroke-linecap="round" stroke-linejoin="round"/>
</svg>
