<svg width="62" height="62" viewBox="0 0 62 62" fill="none" xmlns="http://www.w3.org/2000/svg">
<path d="M20.1499 35.65V24.8" stroke="#F5F5F5" stroke-width="3" stroke-linecap="round" stroke-linejoin="round"/>
<path d="M20.5375 46.5C23.3197 46.5 25.5751 44.2446 25.5751 41.4625C25.5751 38.6804 23.3197 36.425 20.5375 36.425C17.7554 36.425 15.5 38.6804 15.5 41.4625C15.5 44.2446 17.7554 46.5 20.5375 46.5Z" stroke="#F5F5F5" stroke-width="3" stroke-linecap="round" stroke-linejoin="round"/>
<path d="M20.15 24.8C22.7181 24.8 24.7999 22.7181 24.7999 20.15C24.7999 17.5818 22.7181 15.5 20.15 15.5C17.5818 15.5 15.5 17.5818 15.5 20.15C15.5 22.7181 17.5818 24.8 20.15 24.8Z" stroke="#F5F5F5" stroke-width="3" stroke-linecap="round" stroke-linejoin="round"/>
<path d="M41.8502 24.8C44.4183 24.8 46.5001 22.7181 46.5001 20.15C46.5001 17.5818 44.4183 15.5 41.8502 15.5C39.282 15.5 37.2002 17.5818 37.2002 20.15C37.2002 22.7181 39.282 24.8 41.8502 24.8Z" stroke="#F5F5F5" stroke-width="3" stroke-linecap="round" stroke-linejoin="round"/>
<path d="M20.3567 35.65C21.0542 32.9375 23.5342 30.9225 26.4533 30.9484L31.775 30.9741C35.8308 31 39.2925 28.3908 40.5584 24.7483" stroke="#F5F5F5" stroke-width="3" stroke-linecap="round" stroke-linejoin="round"/>
<path d="M23.2501 5.16663H38.7501C51.6668 5.16663 56.8334 10.3333 56.8334 23.25V38.75C56.8334 51.6666 51.6668 56.8333 38.7501 56.8333H23.2501C10.3334 56.8333 5.16675 51.6666 5.16675 38.75V23.25C5.16675 10.3333 10.3334 5.16663 23.2501 5.16663Z" stroke="#F5F5F5" stroke-width="3" stroke-linecap="round" stroke-linejoin="round"/>
</svg>
