<svg width="54" height="54" viewBox="0 0 54 54" fill="none" xmlns="http://www.w3.org/2000/svg">
<path d="M23.895 15.7725V35.9775L16.875 33.9525" stroke="white" stroke-width="3" stroke-miterlimit="10" stroke-linecap="round" stroke-linejoin="round"/>
<path d="M37.1248 15.75L30.0373 16.7625V27.9L37.1248 26.8875V33.975L29.0249 36" stroke="white" stroke-width="3" stroke-miterlimit="10" stroke-linecap="round" stroke-linejoin="round"/>
<path d="M7.47 11.0475L7.01997 6.9975C6.86247 5.67 7.91995 4.5 9.24745 4.5H44.73C46.08 4.5 47.115 5.67 46.9575 6.9975L42.9075 43.4925C42.8175 44.3925 42.1649 45.1575 41.2874 45.405L27.6075 49.32C27.2025 49.4325 26.7749 49.4325 26.3699 49.32L12.69 45.405C11.8125 45.1575 11.1824 44.3925 11.0699 43.4925L8.595 21.1725" stroke="white" stroke-width="3" stroke-miterlimit="10" stroke-linecap="round" stroke-linejoin="round"/>
</svg>
