<svg width="56" height="56" viewBox="0 0 56 56" fill="none" xmlns="http://www.w3.org/2000/svg">
<path d="M43.0968 51.5833H33.7634C31.2073 51.5833 29.4514 50.8849 28.3316 49.7651C27.2118 48.6453 26.5134 46.8894 26.5134 44.3333V11.6666C26.5134 9.11052 27.2118 7.3546 28.3316 6.23479C29.4514 5.11497 31.2073 4.41663 33.7634 4.41663H43.0968C45.6529 4.41663 47.4088 5.11497 48.5286 6.23479C49.6484 7.3546 50.3468 9.11052 50.3468 11.6666V44.3333C50.3468 46.8864 49.6442 48.643 48.5209 49.7641C47.3971 50.8857 45.6397 51.5833 43.0968 51.5833ZM33.7634 4.91663C31.7507 4.91663 29.9566 5.33717 28.6953 6.59847C27.434 7.85976 27.0134 9.65389 27.0134 11.6666V44.3333C27.0134 46.346 27.434 48.1402 28.6953 49.4015C29.9566 50.6627 31.7507 51.0833 33.7634 51.0833H43.0968C45.1095 51.0833 46.9036 50.6627 48.1649 49.4015C49.4262 48.1402 49.8468 46.346 49.8468 44.3333V11.6666C49.8468 9.65389 49.4262 7.85976 48.1649 6.59847C46.9036 5.33717 45.1095 4.91663 43.0968 4.91663H33.7634Z" stroke="white" stroke-width="3"/>
<path d="M38.4301 14.25H26.7634C26.7072 14.25 26.6446 14.2273 26.5903 14.1731C26.5361 14.1189 26.5134 14.0563 26.5134 14C26.5134 13.9437 26.5361 13.8811 26.5903 13.8269C26.6446 13.7727 26.7072 13.75 26.7634 13.75H38.4301C38.4864 13.75 38.549 13.7727 38.6032 13.8269C38.6574 13.8811 38.6801 13.9437 38.6801 14C38.6801 14.0563 38.6574 14.1189 38.6032 14.1731C38.549 14.2273 38.4864 14.25 38.4301 14.25Z" stroke="white" stroke-width="3"/>
<path d="M36.0968 42.25H26.7634C26.7072 42.25 26.6446 42.2273 26.5903 42.1731C26.5361 42.1189 26.5134 42.0563 26.5134 42C26.5134 41.9437 26.5361 41.8811 26.5903 41.8269C26.6446 41.7727 26.7072 41.75 26.7634 41.75H36.0968C36.153 41.75 36.2156 41.7727 36.2698 41.8269C36.3241 41.8811 36.3468 41.9437 36.3468 42C36.3468 42.0563 36.3241 42.1189 36.2698 42.1731C36.2156 42.2273 36.153 42.25 36.0968 42.25Z" stroke="white" stroke-width="3"/>
<path d="M26.7551 32.8001L26.7476 32.8001H26.7401C26.618 32.8001 26.5099 32.6925 26.513 32.5624L26.5134 32.5446V32.5267C26.5134 32.4245 26.6089 32.3 26.7634 32.3H26.7634H26.7634H26.7634H26.7634H26.7634H26.7634H26.7634H26.7634H26.7635H26.7635H26.7635H26.7635H26.7635H26.7635H26.7635H26.7635H26.7635H26.7635H26.7635H26.7635H26.7635H26.7635H26.7635H26.7635H26.7635H26.7635H26.7635H26.7635H26.7635H26.7635H26.7635H26.7635H26.7635H26.7635H26.7635H26.7635H26.7635H26.7635H26.7635H26.7635H26.7635H26.7635H26.7635H26.7635H26.7635H26.7635H26.7635H26.7635H26.7635H26.7635H26.7635H26.7635H26.7635H26.7636H26.7636H26.7636H26.7636H26.7636H26.7636H26.7636H26.7636H26.7636H26.7636H26.7636H26.7636H26.7636H26.7636H26.7636H26.7636H26.7636H26.7636H26.7636H26.7636H26.7636H26.7637H26.7637H26.7637H26.7637H26.7637H26.7637H26.7637H26.7637H26.7637H26.7637H26.7637H26.7637H26.7637H26.7637H26.7637H26.7638H26.7638H26.7638H26.7638H26.7638H26.7638H26.7638H26.7638H26.7638H26.7638H26.7638H26.7638H26.7639H26.7639H26.7639H26.7639H26.7639H26.7639H26.7639H26.7639H26.7639H26.7639H26.764H26.764H26.764H26.764H26.764H26.764H26.764H26.764H26.7641H26.7641H26.7641H26.7641H26.7641H26.7641H26.7641H26.7641H26.7642H26.7642H26.7642H26.7642H26.7642H26.7642H26.7642H26.7643H26.7643H26.7643H26.7643H26.7643H26.7643H26.7643H26.7644H26.7644H26.7644H26.7644H26.7644H26.7644H26.7645H26.7645H26.7645H26.7645H26.7645H26.7645H26.7646H26.7646H26.7646H26.7646H26.7646H26.7647H26.7647H26.7647H26.7647H26.7647H26.7647H26.7648H26.7648H26.7648H26.7648H26.7649H26.7649H26.7649H26.7649H26.7649H26.765H26.765H26.765H26.765H26.7651H26.7651H26.7651H26.7651H26.7651H26.7652H26.7652H26.7652H26.7652H26.7653H26.7653H26.7653H26.7653H26.7654H26.7654H26.7654H26.7654H26.7655H26.7655H26.7655H26.7656H26.7656H26.7656H26.7656H26.7657H26.7657H26.7657H26.7658H26.7658H26.7658H26.7658H26.7659H26.7659H26.7659H26.766H26.766H26.766H26.7661H26.7661H26.7661H26.7662H26.7662H26.7662H26.7663H26.7663H26.7663H26.7664H26.7664H26.7664H26.7665H26.7665H26.7665H26.7666H26.7666H26.7666H26.7667H26.7667H26.7667H26.7668H26.7668H26.7669H26.7669H26.7669H26.767H26.767H26.7671H26.7671H26.7671H26.7672H26.7672H26.7673H26.7673H26.7673H26.7674H26.7674H26.7675H26.7675H26.7675H26.7676H26.7676H26.7677H26.7677H26.7678H26.7678H26.7679H26.7679H26.7679H26.768H26.768H26.7681H26.7681H26.7682H26.7682H26.7683H26.7683H26.7684H26.7684H26.7685H26.7685H26.7686H26.7686H26.7687H26.7687H26.7688H26.7688H26.7689H26.7689H26.769H26.769H26.7691H26.7691H26.7692H26.7692H26.7693H26.7694H26.7694H26.7695H26.7695H26.7696H26.7696H26.7697H26.7697H26.7698H26.7699H26.7699H26.77H26.77H26.7701H26.7702H26.7702H26.7703H26.7703H26.7704H26.7705H26.7705H26.7706H26.7706H26.7707H26.7708H26.7708H26.7709H26.771H26.771H26.7711H26.7712H26.7712H26.7713H26.7713H26.7714H26.7715H26.7716H26.7716H26.7717H26.7718H26.7718H26.7719H26.772H26.772H26.7721H26.7722H26.7722H26.7723H26.7724H26.7725H26.7725H26.7726H26.7727H26.7728H26.7728H26.7729H26.773H26.7731H26.7731H26.7732H26.7733H26.7734H26.7734H26.7735H26.7736H26.7737H26.7738H26.7738H26.7739H26.774H26.7741H26.7742H26.7742H26.7743H26.7744H26.7745H26.7746H26.7746H26.7747H26.7748H26.7749H26.775H26.7751H26.7752H26.7752H26.7753H26.7754H26.7755H26.7756H26.7757H26.7758H26.7759H26.776H26.776H26.7761H26.7762H26.7763H26.7764H26.7765H26.7766H26.7767H26.7768H26.7769H26.777H26.7771H26.7772H26.7773H26.7774H26.7775H26.7776H26.7777H26.7777H26.7778H26.7779H26.778H26.7781H26.7782H26.7783H26.7785H26.7786H26.7787H26.7788H26.7789H26.779H26.7791H26.7792H26.7793H26.7794H26.7795H26.7796H26.7797H26.7798H26.7799H26.78H26.7801H26.7803H26.7804H26.7805H26.7806H26.7807L38.4384 32.4166L38.4459 32.4167H38.4534C38.5755 32.4167 38.6836 32.5243 38.6805 32.6543L40.1801 32.6901L38.6805 32.6535C38.6766 32.8156 38.5543 32.9146 38.4341 32.9167L26.7551 32.8001Z" stroke="white" stroke-width="3"/>
<path d="M33.7634 23.5834H26.7634C26.7072 23.5834 26.6446 23.5607 26.5903 23.5065C26.5361 23.4522 26.5134 23.3896 26.5134 23.3334C26.5134 23.2771 26.5361 23.2145 26.5903 23.1603C26.6446 23.1061 26.7072 23.0834 26.7634 23.0834H33.7634C33.8197 23.0834 33.8823 23.1061 33.9365 23.1603C33.9907 23.2145 34.0134 23.2771 34.0134 23.3334C34.0134 23.3896 33.9907 23.4522 33.9365 23.5065C33.8823 23.5607 33.8197 23.5834 33.7634 23.5834Z" stroke="white" stroke-width="3"/>
<path d="M8.5884 48.6463L8.58789 48.6454L6.67623 45.4749C6.67593 45.4744 6.67564 45.4739 6.67534 45.4734C6.1132 44.5356 5.65332 42.8895 5.65332 41.8133V11.55C5.65332 7.61839 8.85508 4.41663 12.7867 4.41663C16.7182 4.41663 19.92 7.61839 19.92 11.55V41.79C19.92 42.8665 19.4599 44.5131 18.8975 45.4508C18.8974 45.4511 18.8972 45.4513 18.8971 45.4515L16.9854 48.6221L16.9776 48.6351L16.9701 48.6482C15.8367 50.6167 14.268 51.5133 12.81 51.5133C11.3503 51.5133 9.77309 50.6141 8.5884 48.6463ZM7.10955 45.1913L7.10951 45.1914L7.11542 45.2011L9.0249 48.3681C9.02557 48.3692 9.02625 48.3703 9.02692 48.3714C9.85207 49.754 11.1572 50.99 12.81 50.99C14.4735 50.99 15.7767 49.7145 16.5884 48.3791L16.5912 48.3745L18.5046 45.2011L18.5046 45.2012L18.5104 45.1913C18.794 44.7127 19.0176 44.0903 19.1684 43.5394C19.3191 42.9889 19.4433 42.3416 19.4433 41.79V11.55C19.4433 7.8982 16.4617 4.91663 12.81 4.91663C9.15823 4.91663 6.17665 7.8982 6.17665 11.55V41.79C6.17665 42.3416 6.30083 42.9889 6.45157 43.5394C6.60239 44.0903 6.82594 44.7127 7.10955 45.1913Z" stroke="white" stroke-width="3"/>
<path d="M19.6933 16.5834H5.90332C5.84704 16.5834 5.78445 16.5607 5.73023 16.5065C5.67601 16.4522 5.65332 16.3897 5.65332 16.3334C5.65332 16.2771 5.67601 16.2145 5.73023 16.1603C5.78445 16.1061 5.84704 16.0834 5.90332 16.0834H19.6933C19.7496 16.0834 19.8122 16.1061 19.8664 16.1603C19.9206 16.2145 19.9433 16.2771 19.9433 16.3334C19.9433 16.3897 19.9206 16.4522 19.8664 16.5065C19.8122 16.5607 19.7496 16.5834 19.6933 16.5834Z" stroke="white" stroke-width="3"/>
</svg>
