<svg width="52" height="52" viewBox="0 0 52 52" fill="none" xmlns="http://www.w3.org/2000/svg">
<g clip-path="url(#clip0_141_440)">
<path d="M26 0C11.6415 0 0 11.6415 0 26C0 40.3585 11.6415 52 26 52C40.3585 52 52 40.3585 52 26C52 11.6415 40.3585 0 26 0ZM15.0843 16.64C16.718 16.64 17.9812 17.8295 18.1285 19.24C18.278 20.5032 17.758 21.6168 16.3475 22.2863C15.6043 22.6568 15.3075 22.659 15.158 22.4358C15.0843 22.2863 15.158 22.139 15.3075 21.9895C16.6443 20.8758 16.6443 19.9832 16.4948 18.7222C16.4212 17.9032 15.8275 17.3832 15.2317 17.3832C12.6317 17.3832 8.918 23.1768 9.438 27.4127C9.66117 29.0463 10.6275 30.979 12.7075 30.979C13.3748 30.979 14.1158 30.7558 14.7875 30.459C15.8708 29.887 16.5187 29.4407 17.1643 28.7257C17.0062 26.8082 18.6897 24.2927 21.1748 24.2927C22.2907 24.2927 23.1812 24.7368 23.2548 25.5558C23.4022 26.6695 22.438 26.8168 22.1412 26.8168C21.8443 26.8168 21.3222 26.7432 21.3222 26.4485C21.2485 26.1495 21.9917 26.2968 21.918 25.6295C21.8422 25.1832 21.398 25.0358 20.9517 25.0358C19.3917 25.0358 18.5012 27.1895 18.7222 28.5263C18.798 29.1222 19.0948 29.7158 19.6907 29.7158C20.1348 29.7158 20.8043 29.0442 21.0275 28.08C21.1748 27.4127 21.7707 26.9663 22.2907 26.9663C22.5117 26.9663 22.659 27.04 22.7348 27.3368V27.6358C22.6612 27.9327 22.438 28.8232 22.5138 29.0463C22.5138 29.1958 22.5875 29.4168 22.8822 29.4168C23.0815 29.4168 23.8268 29.0268 24.5657 28.4223C24.8192 27.144 25.1138 25.61 25.1138 25.4822C25.1875 24.9622 25.4107 24.4422 26.4507 24.4422C26.6738 24.4422 26.8212 24.5158 26.8948 24.8127V25.1117L26.6002 26.4485C27.5643 25.1853 28.977 24.2948 29.8675 24.2948C30.2402 24.2948 30.537 24.5158 30.537 24.8885C30.537 25.1117 30.537 25.4822 30.3875 25.8548C30.0907 26.6717 29.718 27.9348 29.4948 29.0485C29.4948 29.3453 29.5707 29.6422 29.9433 29.6422C30.3138 29.6422 31.4275 29.1958 32.318 28.0085L32.3332 27.9998C32.3288 27.8525 32.318 27.7095 32.318 27.5622C32.318 26.6717 32.3938 25.9285 32.5433 25.4085C32.6907 24.8148 33.4338 24.2948 33.8802 24.2948C34.1033 24.2948 34.3243 24.4443 34.3243 24.6653C34.3243 24.7412 34.3243 24.8885 34.2507 24.9622C33.9538 25.9285 33.7307 26.819 33.7307 27.7117C33.7307 28.2317 33.8043 28.9727 33.9517 29.419C33.9517 29.4927 34.0275 29.5685 34.1033 29.5685C34.2507 29.5685 35.2907 28.6043 36.0317 27.3412C35.3643 26.8948 34.9917 26.1517 34.9917 25.2612C34.9917 23.7012 35.958 22.8843 36.8507 22.8843C37.5938 22.8843 38.1875 23.4043 38.1875 24.4443C38.1875 25.1117 37.9643 25.8527 37.5938 26.5243H37.8148C38.0505 26.532 38.2851 26.4896 38.5033 26.4C38.7214 26.3104 38.918 26.1755 39.0802 26.0043C39.1483 25.8918 39.2498 25.8032 39.3705 25.7508C40.0963 24.83 41.1688 24.1475 42.4255 24.1475C43.4655 24.1475 44.4275 24.5917 44.5033 25.4085C44.6507 26.5243 43.6843 26.7475 43.3875 26.7475L43.3832 26.7432C43.0842 26.7432 42.5663 26.6673 42.5663 26.3705C42.5663 26.0737 43.2358 26.2232 43.16 25.5558C43.0863 25.1095 42.64 24.96 42.1937 24.96C40.7073 24.96 39.7453 26.8905 39.9663 28.4505C40.04 29.0463 40.3368 29.7137 40.9305 29.7137C41.3768 29.7137 42.0463 29.0463 42.3432 28.08C42.4905 27.4863 43.0863 26.9663 43.6063 26.9663C43.8295 26.9663 43.9747 27.04 44.0505 27.3368C44.0505 27.4863 44.0505 27.7832 43.7537 28.7495C43.3853 29.4168 43.3832 29.7895 43.4568 30.0863C43.5305 30.68 43.8273 31.1263 44.1263 31.3495C44.2 31.4232 44.2737 31.5705 44.2737 31.5705C44.2737 31.72 44.2 31.8695 43.9768 31.8695C43.9032 31.8695 43.8295 31.8695 43.7537 31.7937C42.64 31.3495 42.1937 30.6063 42.0442 29.8632C41.6 30.3832 41.08 30.68 40.4842 30.68C39.52 30.68 38.5558 29.7895 38.4042 28.6737C38.3616 28.1988 38.4169 27.7202 38.5667 27.2675C38.1268 27.5492 37.6523 27.7073 37.2168 27.7073H36.8485C35.88 29.12 34.84 30.0863 34.0968 30.5305C33.8445 30.6648 33.5655 30.7418 33.28 30.7558C33.1327 30.7558 32.9095 30.68 32.8358 30.5305C32.63 30.2012 32.4978 29.6812 32.4177 29.0853C31.3755 30.2272 29.9368 30.8295 29.2695 30.8295C28.5263 30.8295 28.0822 30.3832 28.0085 29.6378V28.8232C28.2295 27.1895 28.8253 26.2232 28.8253 25.9263C28.8233 25.8871 28.807 25.85 28.7794 25.8221C28.7518 25.7941 28.715 25.7773 28.6758 25.7747C28.1558 25.7747 26.4485 27.56 26.1495 28.7495L25.9263 29.7137C25.779 30.3832 25.1095 30.8295 24.6653 30.8295C24.4422 30.8295 24.2927 30.7537 24.219 30.4568V30.16L24.3187 29.6552C23.3762 30.3268 22.4337 30.7558 21.9895 30.7558C21.3222 30.7558 20.9495 30.3832 20.8758 29.8632C20.4295 30.4568 19.9117 30.7558 19.2422 30.7558C18.4795 30.7558 17.7342 30.2358 17.3745 29.471C16.8458 30.0668 16.2413 30.6692 15.5285 31.1263C14.4885 31.7958 13.3012 32.3158 11.8885 32.3158C10.6275 32.3158 9.51167 31.6463 8.918 31.0527C8.02533 30.2358 7.5075 28.9727 7.43167 27.7832C6.9875 24.1432 9.21483 19.4632 12.6317 17.3832C13.4507 16.939 14.2675 16.64 15.0843 16.64ZM36.2527 23.7705C36.0273 23.7705 35.88 24.1432 35.88 24.5137C35.88 25.1073 36.1768 25.7768 36.5495 26.1495C36.6948 25.7442 36.7695 25.3169 36.7705 24.8863C36.7705 24.1432 36.4758 23.7705 36.2527 23.7705Z" fill="white"/>
</g>
<defs>
<clipPath id="clip0_141_440">
<rect width="52" height="52" fill="white"/>
</clipPath>
</defs>
</svg>
