<svg width="62" height="62" viewBox="0 0 62 62" fill="none" xmlns="http://www.w3.org/2000/svg">
<path d="M44.5625 23.25C46.1891 22.0301 47.3906 20.3293 47.9968 18.3885C48.6031 16.4477 48.5833 14.3654 47.9404 12.4365C47.2974 10.5076 46.0638 8.82995 44.4144 7.64109C42.7649 6.45224 40.7832 5.8125 38.75 5.8125H21.3125C19.2793 5.8125 17.2976 6.45224 15.6481 7.64109C13.9987 8.82995 12.7651 10.5076 12.1221 12.4365C11.4792 14.3654 11.4594 16.4477 12.0656 18.3885C12.6719 20.3293 13.8734 22.0301 15.5 23.25C14.2684 24.173 13.2745 25.3761 12.6005 26.7597C11.9265 28.1433 11.5919 29.6676 11.6243 31.2063C11.6567 32.745 12.0553 34.2538 12.787 35.6078C13.5187 36.9618 14.5624 38.1219 15.8318 38.9922C14.388 40.0899 13.2482 41.538 12.5204 43.1993C11.7927 44.8607 11.501 46.6803 11.673 48.4858C11.8451 50.2914 12.4751 52.0232 13.5035 53.5172C14.5319 55.0112 15.9246 56.218 17.5497 57.0233C19.1749 57.8287 20.9787 58.2059 22.7903 58.1192C24.602 58.0326 26.3616 57.4849 27.9025 56.5282C29.4433 55.5714 30.7145 54.2372 31.5956 52.6518C32.4767 51.0665 32.9386 49.2825 32.9375 47.4688V38.75C33.9552 39.5133 35.1134 40.0687 36.3457 40.3844C37.5781 40.7001 38.8606 40.77 40.12 40.5901C41.3794 40.4102 42.591 39.984 43.6857 39.3358C44.7804 38.6877 45.7367 37.8302 46.5 36.8125C47.2633 35.7948 47.8187 34.6366 48.1344 33.4043C48.4501 32.1719 48.52 30.8894 48.3401 29.63C48.1602 28.3706 47.734 27.159 47.0858 26.0643C46.4377 24.9696 45.5802 24.0133 44.5625 23.25ZM44.5625 15.5C44.5625 17.0416 43.9501 18.52 42.86 19.6101C41.77 20.7001 40.2916 21.3125 38.75 21.3125H32.9375V9.6875H38.75C40.2916 9.6875 41.77 10.2999 42.86 11.3899C43.9501 12.48 44.5625 13.9584 44.5625 15.5ZM15.5 15.5C15.5 13.9584 16.1124 12.48 17.2024 11.3899C18.2925 10.2999 19.7709 9.6875 21.3125 9.6875H29.0625V21.3125H21.3125C19.7709 21.3125 18.2925 20.7001 17.2024 19.6101C16.1124 18.52 15.5 17.0416 15.5 15.5ZM21.3125 36.8125C19.7709 36.8125 18.2925 36.2001 17.2024 35.1101C16.1124 34.02 15.5 32.5416 15.5 31C15.5 29.4584 16.1124 27.98 17.2024 26.8899C18.2925 25.7999 19.7709 25.1875 21.3125 25.1875H29.0625V36.8125H21.3125ZM29.0625 47.4688C29.0625 48.81 28.6648 50.121 27.9196 51.2362C27.1745 52.3514 26.1154 53.2206 24.8763 53.7338C23.6372 54.2471 22.2737 54.3814 20.9583 54.1197C19.6428 53.858 18.4345 53.2122 17.4862 52.2638C16.5378 51.3154 15.8919 50.1071 15.6303 48.7917C15.3686 47.4763 15.5029 46.1128 16.0162 44.8737C16.5294 43.6346 17.3986 42.5755 18.5138 41.8303C19.6289 41.0852 20.94 40.6875 22.2812 40.6875H29.0625V47.4688ZM38.75 36.8125C37.6004 36.8125 36.4766 36.4716 35.5207 35.8329C34.5649 35.1942 33.8199 34.2864 33.3799 33.2243C32.94 32.1623 32.8249 30.9936 33.0492 29.866C33.2734 28.7385 33.827 27.7028 34.6399 26.8899C35.4528 26.077 36.4885 25.5235 37.616 25.2992C38.7435 25.0749 39.9122 25.19 40.9743 25.6299C42.0364 26.0699 42.9442 26.8149 43.5829 27.7707C44.2216 28.7266 44.5625 29.8504 44.5625 31C44.5625 32.5416 43.9501 34.02 42.86 35.1101C41.77 36.2001 40.2916 36.8125 38.75 36.8125Z" fill="white"/>
</svg>
