<svg width="47" height="47" viewBox="0 0 47 47" fill="none" xmlns="http://www.w3.org/2000/svg">
<path d="M41.3125 2.125H5.6875C4.74267 2.125 3.83653 2.50033 3.16843 3.16843C2.50033 3.83653 2.125 4.74267 2.125 5.6875V41.3125C2.125 42.2573 2.50033 43.1635 3.16843 43.8316C3.83653 44.4997 4.74267 44.875 5.6875 44.875H41.3125C42.2573 44.875 43.1635 44.4997 43.8316 43.8316C44.4997 43.1635 44.875 42.2573 44.875 41.3125V5.6875C44.875 4.74267 44.4997 3.83653 43.8316 3.16843C43.1635 2.50033 42.2573 2.125 41.3125 2.125Z" stroke="white" stroke-width="4"/>
<path d="M11.625 12.8125V34.1875" stroke="white" stroke-width="4" stroke-linecap="round" stroke-linejoin="round"/>
<path d="M14 24.6875C17.5625 24.6875 22.3125 23.7375 22.3125 18.75C22.3125 13.7625 17.5625 12.8125 14 12.8125H11.625V24.6875H14Z" stroke="white" stroke-width="4" stroke-linecap="round" stroke-linejoin="round"/>
<path d="M35.375 19.9672C34.1875 19.9672 28.25 19.3758 28.25 23.5143C28.25 27.6539 35.375 26.4711 35.375 30.6108C35.375 34.7492 28.25 34.1578 28.25 34.1578" stroke="white" stroke-width="4" stroke-linecap="round" stroke-linejoin="round"/>
</svg>
